<mxfile host="Electron" agent="Mozilla/5.0 (Windows NT 10.0; Win64; x64) AppleWebKit/537.36 (KHTML, like Gecko) draw.io/28.0.6 Chrome/138.0.7204.100 Electron/37.2.3 Safari/537.36" version="28.0.6">
  <diagram name="Page-1" id="hAyrPP_ibODnkenCWu74">
    <mxGraphModel dx="2024" dy="976" grid="1" gridSize="10" guides="1" tooltips="1" connect="1" arrows="1" fold="1" page="1" pageScale="1" pageWidth="1169" pageHeight="827" math="0" shadow="0">
      <root>
        <mxCell id="0" />
        <mxCell id="1" parent="0" />
        <mxCell id="p8KF00mh1tTUKPBj2ykA-3" value="" style="group" parent="1" vertex="1" connectable="0">
          <mxGeometry x="430" y="20" width="1258" height="628.02" as="geometry" />
        </mxCell>
        <mxCell id="p8KF00mh1tTUKPBj2ykA-4" value="" style="group" parent="p8KF00mh1tTUKPBj2ykA-3" vertex="1" connectable="0">
          <mxGeometry x="-40" y="128.04" width="1258" height="628.02" as="geometry" />
        </mxCell>
        <mxCell id="p8KF00mh1tTUKPBj2ykA-5" value="" style="group" parent="p8KF00mh1tTUKPBj2ykA-4" vertex="1" connectable="0">
          <mxGeometry x="40" y="-70" width="1258" height="628.02" as="geometry" />
        </mxCell>
        <mxCell id="p8KF00mh1tTUKPBj2ykA-1" value="" style="shape=image;verticalLabelPosition=bottom;labelBackgroundColor=default;verticalAlign=top;aspect=fixed;imageAspect=0;image=data:image/png,iVBORw0KGgoAAAANSUhEUgAACf4AAAT9CAIAAACcYkc+AAAgAElEQVR4AezdCXhU1cH/8RMIEFAUq9YgVkSFEl8EEVGwryAoFqFo1ZcKeY1UcakLdeEVUQRsq7alqa1KcWHRfxWqlKiNDNYqRFEoAoaqGGQLIMYAgtkJISH3z50zc+fcM0tmJrPPdx4fucu5Z/mcSdrHH+dcYfBBAIF0Eij96pt0Gi5jRQABBBBAAAEEEEAAAQQQQAABBBBAAAEEEEAAAQTSRUCky0AZJwIIOAWIfvkiIIAAAggggAACCCCAAAIIIIAAAggggAACCCCAAAIpKUD0m5LTyqAQ8CtA9OuXhhsIIIAAAggggAACCCCAAAIIIIAAAggggAACCCCAQDILEP0m8+zRdwRCFyD6Dd2MJxBAAAEEEEAAAQQQQAABBBBAAAEEEEAAAQQQQACBJBAg+k2CSaKLCERQgOg3gphUhQACCCCAAAIIIIAAAggggAACCCCAAAIIIIAAAggkjgDRb+LMBT1BIBYCRL+xUKYNBBBAAAEEEEAAAQQQQAABBBBAAAEEEEAAAQQQQCDmAkS/MSenQQTiKkD0G1d+GkcAAQQQQAABBBBAAAEEEEAAAQQQQAABBBBAAAEEoiVA9BstWepFIDEFiH4Tc17oFQIIIIAAAggggAACCCCAAAIIIIAAAggggAACCCDQSgGi31YC8jgCSSZA9JtkE0Z3EUAAAQQQQAABBBBAAAEEEEAAAQQQQAABBBBAAIHgBIh+g3OiFAKpIkD0myozyTgQQAABBBBAAAEEEEAAAQQQQAABBBBAAAEEEEAAAZsA0a+NgxMEUl6A6Dflp5gBIoAAAggggAACCCCAAAIIIIAAAggggAACCCCAQHoKEP2m57wz6vQVIPpN37ln5AgggAACCCCAAAIIIIAAAggggAACCCCAAAIIIJDSAkS/KT29DA4BLwGiXy8SLiCAAAIIIIAAAggggAACCCCAAAIIIIAAAggggAACqSBA9JsKs8gYEAhegOg3eCtKIoAAAggggAACCCCAAAIIIIAAAggggAACCCCAAAJJJED0m0STRVcRiIBAakS/ZXu+3bi5tHjjFv5BIOICGzeXlu35NgI/bFSBAAIIIIAAAggggAACCCCAAAIIIIAAAggggEBsBYh+Y+tNawjEWyAFot8tO3Z/Vba3/lBDvC1pPzUF6g81fFW2d8uO3ak5PEaFAAIIIIAAAggggAACCCCAAAIIIIAAAgggkLoCRL/RmttVXx1+ak397UtrRi2qHvBCpfznyoXVt75V+8fVBz/Y1RithqkXgYACyR79lu359quyvQGHyE0EIiDwVdle1v5GwJEqEEAAAQQQQAABBBBAAAEEEEAAAQQQQAABBGIoQPQbYey6w8bz6+tHvlJlxb3+Dob/terpj+sPHGyOcA+oDoGAAske/W7cXMp634AzzM3ICNQfati4uTQydVELAggggAACCCCAAAIIIIAAAggggAACCCCAAAIxESD6jSRzQUnD8P/XcuirhsEXL6h65bNDkewEdSEQUCDZo9/ijVsCjo+bCERMgC9bxCipCAEEEEAAAQQQQAABBBBAAAEEEEAAAQQQQCAmAkS/kWFuNozpRQfVTDek48n/qqtpYPlvZOaCWgILEP0G9uEuApYA0a9FwQECCCCAAAIIIIAAAggggAACCCCAAAIIIIBAUggQ/UZgmqoONd/6Vm1IWa934fEF1WXVRyLQG6pAIKAA0W9AHm4i4BEg+vVYcIQAAggggAACCCCAAAIIIIAAAggggAACCCCQDAJEv62dpcNHjJverPGOcsO4Mvbv1bz6t7XzwfMtCRD9tiTEfQRcAkS/fBUQQAABBBBAAAEEEEAAAQQQQAABBBBAAAEEkkuA6Le18zX1vbowUl5/j9zhqG1th3gegYACRL8BebiJgEeA6NdjwRECCCCAAAIIIIAAAggggAACCCCAAAK+BN54440BAwYcc8wxP/jBD2655ZaKigpfpbiGQOwE1qxZ8+CDDw4ePPj0009v3779CSeccM4551xzzTUvvvhiZWVl7PoRv5aIfltlv/CzQ/5C3LCvP/Nxfah9Wrt27cyZM5944onvvvvO57Pbtm179NFHf/WrX+3atctnAS6mj0A0ot+ysrLXXnvtz3/+8+rVqxsaGqKKSRoXVV4qVwX4sqkaHCOAAAIIIIAAAggggAACCCCAAAIIIKAJLFu2TNg/AwcObG5u1opF6dThcIwdO/aUU06xd6GFs7Zt21500UXTp09PkxQwSvgJWG1DQ8O8efN69+4d4BvQoUOHW265Zfv27QnY/wh2ieg3fMy9tUcGz68KHPFe8mLV7z46OPbv1YGLaXe/2NcUUreOP/54+VUeMGCA94N79uw54YQTZIHRo0d7F2j9lZKSkkcfffS5557zruqWW24RQgwYMKC6utr7LldiLxDB6PfQoUOPPPLIaaedpv4mbd++/YgRIzZs2BCloZHGRQmWar0F+LJ5m3AFAQQQQAABBBBAAAEEEEAAAQQQQCC+AnPnzv3Pf/4T3z5YrY8aNUoIMXbs2F27dr3xxhsdO3YUQnzyySdWgSgdNDY2jhkzRv3v0mEcn3DCCe+8806Ueki1MRYoLy8/99xz5degb9++Dz/88Ntvv71ly5aGhoY9e/asW7fu+eefHz9+fIcOHYQQbdq0mTdvXox7GMvmiH7D1/7jv+u1yNb7dNnWw4ZhbP+uKaT094F364LvVn19vfpL7cUXX9Sevf32260C/fr10+5G5PSss86STWitb9++3Wr65ZdfjkhbVNJKgUhFvytWrDj77LOFEOeee+7dd989d+7ct9566ze/+c11113XoUOHjIyMSZMmRSPvJ41r5ReAx4MX4MsWvBUlEUAAAQQQQAABBBBAAAEEEEAAAQRiIPDRRx8JIS6//PIYtBW4iUOHDk2fPv3YY48VQmzbtk0W/vnPfy6EuPDCC9evXx/48VbenTlzphU9tObgxBNP3L9/fys7w+NxF9i2bdsPfvADIcTpp5/+6quvBujP119/fcMNN8jvzIwZMwKUTOpbRL9hTl99Y/Pg+ZXeWa92pWCTa/Pb7d81rf+m0frntrdqtZLa6fbvgl34e/DgQfVXW9euXevrPVtGH12Pq97t27dvmAMO+Fi3bt1kK3PmzNEK9u/fXwjRpUuXHTt2aLc4jYtARKLf5cuXCyGysrKefPJJ7+07tmzZcvHFFwshhgwZEvExksZFnJQK/QnwZfMnw3UEEEAAAQQQQAABBBBAAAEEEEAAgXgJPPTQQ0uXLo1X67Ld/fv3//CHP5SrJ/Pz863O7NixQ263m5GR8Ze//MW6HtmDmpqadu3aqcFHa46nT58e2e5RW4wFqqqqevToIYQYPXp0kJt4/+Mf/+jcubMQwjvSinHno9Qc0W+YsG9tbtDCWn+nr2708erT9d80+isvrz+33hPfBu6iFv0KIX7/+99bj2ibHsQ++q2uri4qKvrqq6+sLnEQX4HWR79VVVWnn356hw4dvvjiC39jOXLkSF5enhDi6aef9lcmvOukceG58VQYAnzZwkDjEQQQQAABBBBAAAEEEEAAAQQQQACBSAk88sgjI0aM8F57o9U/e/bsiy++OGb/Eb62tvb8888XQvTr1+/zzz/XOnP48OFHH300IyNDCPH3v/9duxuR05UrV7Ym69We/fGPfxyRXlFJvASuuOIKIcTVV1+tdWDVqlV33HHHlVdeOW7cuN/+9rcNDbao7t///ndmZmabNm1WrlypPZgCp0S/YU7iw8vrAme36t13t5vbPhuGIVf9vrv9sHrX5/GNb9QE2bPa2lrtV9Vxxx134MABwzBWrVql3erTp0+Q1YZU7NRTT5UNzZ49O6QHKRx7gdZHvxMmTBBCPPPMM4E7X1tb271796ysLGu7j8Dlg7xLGhckFMVaL8CXrfWG1IAAAggggAACCCCAAAIIIIAAAgggELbA5Zdfrm6n7K+em266SQixfPlyfwUie/3mm28WQgwYMKCqqspfzS+++KIQokOHDjt37vRXJuzrL730khZ8tOb0zDPPDLsnPBh3gUWLFgkhzjrrLO3tk3PmzGnbtq36xRg4cOCePXvUDs+ePVsIcc455zQ1BbsLr/p4Ih8T/YY5O2P+Vu0zsvV58aq/VdcdbjYM45/bWg59rRoagvuyea/6FULcf//9hmFccMEF6jdbCOG96veLL754//33N2/eHAzEgQMHfL6hPcCGzy1WW1VVtW7dusDFvvnmmzVr1tTUBBuHB64tze+2MvqVf9Xg0ksvDYbxo48+ysjIeOihh4IpHGSZhE7jtq0vcKzfFORIKJbwAgn9ZUt4PTqIAAIIIIAAAggggAACCCCAAAIIINBKgaampi1btqiV7N279+OPP/7yyy+1JYwbN25Ui0XveNeuXZmZmVlZWfv27Qvcyn333SeEuPPOOwMXC+OuzJW17KN3794PPvjgzIAfuahJe7B79+5h9MHzyNb8HK1G12muwzAc5s6YQuQ5POUT4siRq/c5J3+rV89cQ5O3XI/kFnoVi9+Fw4cPy3WJH3zwgdqLd955RwjRuXPnqVOn/uMf/3j++eeHDBly9K9HXHLJJdoaevnG0ueee059PILHO3fu1DLpwJWXlJQ0NjYGLhPMXaLfYJT0MjUNzVZAG+Bg3JKa33908JIXqwa8UPnJN+Zs7ao8EqC8dmvLgSN6w77O6+vrrR9SubBdnv7+97+3rvfp00ce9+vXz6rjr3/9q3zxtVXsZz/72ZdffmkV2L179xlnnCF/O3/33XdXX321LHniiSeq2/cbhmFFv1ZVQgj5dnT595K6d+8u3/VbU1MjO3P11VfX1dXdeOON8pFOnTo9/PDDVtPWwezZs+U7A2SxH//4x2vXrrXuchCGQCuj33Xr1gkhXnnllSCbPvPMM3/6058GWTiYYqGmceUbPixwLHf/8+HaFv4PSTBd8F+G6Ne/TTLeCfXLloxjpM8IIIAAAggggAACCCCAAAIIIIAAAkkhUFlZKf9ju/xP5ccdd9xbb70V+57fddddQohf/vKXLTb99ddfZ2Zmtm/fvsWQuMWqtAI+o99ly5ZpxXyeXnjhhWqKIYQg+nWCJGX0W1BQIIQYMWKENte9evUSQrz//vvq9R/96EdCiCVLlqgXi4qK5Nbl6sVIHVdXV3fo0OH73/++9hc4/NV/zz33CCGmTZvmr0Dw14l+g7fylNz+XcsJ7q/ePygfqDrUPGhe5cLPD8lTLd8NcLp6d1DZvrrqt6Cg4PTTT9d+cw0aNGjGjBnyorXq96OPPtKKWaclJSWyqytWrJAXTz31VCs8torNmDHDEvEZ/a5atcowDKt8YaH5t0G2bNkir2RlZf33f/+3dVce3HzzzVadhmGMGjVKKyBPFy1apBbjOCSBVka/L7/8shDi3XffDbLRiy66KCcnJ8jCwRQLKY3btGp5wXsby931lm9YT/TrxuDPlgVC+rK1XB0lEEAAAQQQQAABBBBAAAEEEEAAAQQQCEugpqamZ8+eQoh27dr179+/a9eu8j+VL1iwIKz6wn+oe/fuQoji4uJgqpD/hX/hwoXBFA6+jM/o9ze/+U2LNVRUVHzve9/TQofWRr9Wq4VyJa252Nf6JPiq3xaW8NpW/VpjSqCDiRMnCiGef/55tU/V1dVCiG7duqkXDcN47rnnhBDaHqXNzc0nnXSSEGLv3r1a+dafNjc3yxTslFNO2brVe1W1rQW5Sr5Nmzbvvfee7UZYJ0S/4bBtKG8MENnKW6994Xll9E9frZ78rzrZ0v++XtPis7LA8lLXG4IDd1Fd9fvWW28tXLhQ+811dDvlmTNnyovWqt9NmzbJKzfccMPMmTPl7vzyivU2bPn3HazaevXqpYW11sboVvQ7evRouaHC3LlzZbetx+VfQdq6dat1Rf6FmqFDh6pXPvvsM/mg/DkUQpx00kkvvPBCUVHRtGnTrJIxe2V9YPxkvNvK6HfOnDkhRb+DBw/Ozs6OIFQoadyOIkeUl/lqA2PVrwaS5KehfNmSfKh0HwEEEEAAAQQQQAABBBBAAAEEEEAggQXk23xvuOEGa/PYFStWHHPMMR06dNi+fXvMOt7c3JyZmXk0P9O2m/bXgQcffPBoXP3444/7KxDedZ/Rr1y7OTTg5/jjj7ciBusgNtFv6Sz3ttDq5s+2zaI9625dhfvkl7riZLlldGm+a3dXYUW2rmjZNRhPDYb1oHnLlkY7zQPs3uzZCzp3ltzL2ueGz55iZgPuXaBt/fGM1GrOxxDC+w7Ip8477zwhhNxx1qrnq6++EkJ4L0h79dVXhRATJ060SsqD8ePHCyGCXDWuPdviaU1Nzfnnny+EyM7O1vqpPnvvvfcKIdq2bfv3v/9dvR72MdFvOHSf7mk5+r31rdpG54bNG/c1DZxb+fhK1yLg4F8S/MHOcKJfwzD69etn/drKy8s7OkLv6NcwjE8++UT9iwaPPPKI9VRlZaVhGGr0a23g8Pbbb1vF/vSnP0k+K/p99tlnNVCrsHf0+7Of/UwWLi4utopNnjxZXrQ2o1YX4MvdJIQQRwNmrSFOgxRoZfT74YcfCiG0Hb8DNN2xY0fv/RYClG/xVihp3I4ix3LHhv2+69y30WFtBL1qh1VG3SDa86xZ+MO12+Qj7rf5mkGveytpubZYRr9KzUXbrIo5SD6BUL5syTc6eowAAggggAACCCCAAAIIIIAAAgggkLACH330kdW35ubmTp06dezYsaqqyrpoGIYMVv/85z9bF0tKSqK6aKq8vDykHZIXLFhwdD3lHXfcYfUwIgf+ol8rZQjpIBbRr71DrqDUls66SshbnpzY/qByJtNcT5LqvuW8rtfsN/p1PyVEn/xSc268KzRTVOdrgK341jAMW+7rjn59PeuqVi/vbNe7VyF/O04++WQhxOHDepR27LHHZmVl1dW5FmTKeqdMmSKEsFItqzH5c/TCCy9YVyJ7UFlZKdPf0047zWf6O3XqVCFEmzZtgn/PZos9JPptkchHgV2VTcGs3L3mterb3qq9eIH5rt+CTeYi4IYmI5gHZZlP9zT5aNvrkrbq1zAMK53t2LHj119/ffQJn9GvVtO3335r/ZyvWbNGi353795tlR85cqQsOWHCBHkxvOj3448/tuq85ZZbZJ2XXXaZYRg7duywOqP+b9VTTz0lr19zzTXWsxyEJNDK6Le2tlYIcXSxeDCNbt68WQgxZcqUYAoHWSa0NE6ms0qy62pFRrmu9/7uX/ve8gJXmR1FVmFnguvKbmWaa9s7+sMCz5Li/WtXObeVls25izlTZHdOHOTwKJZIAqF92RKp5/QFAQQQQAABBBBAAAEEEEAAAQQQQCB5BebOnSuEeOSRR+QQdu3aFWAV4y233CKLNTQ0tGvXrkePHtEb+O7du4UQZ511VpBNyLcHeq+zDPJxf8V8Rr/t27e/6KKLfC76HTBgQJs2bazEQTuISfQrY05XApozq9QTsrqWxrpzU2dW6o5+bZmrK511xbrKAl8Xkyea9Swa9ifold36rNxnN8xw2udG0FrH3PGzM8x2R79ysFpJv51s4UZjY+PRKPf444/3Ljdp0iSZYqir5Dt16tSlSxfv8PXJJ588+pV49NFHveuJ1JXKyspzzz1XCHHaaaepWZthGPJtrZHNfc03sUaq62lVz+Gm5uATXFmy5Fszx928P6jMWD6yr645GFXv6Pfoit4xY8YIIay/7+Mz+q2vr3/ppZcmTJhw6aWXDh069JJLLrF+5b399tta9FtTU2N15vbbb5clj27vLC+GF/1u2rTJqlPr4YYNG6zO+DwYN26c9SwHIQm0Mvo1DOOss8465phjdu7c2WK7v/jFL4QQf/vb31osGXyB0NM4c+2vuTzXynQNY9Mq+2pguVpX74QZCbsW/qoxsFnMrNPHil6zHnWLaT/F9IY4T1CB0L9sCToQuoUAAggggAACCCCAAAIIIIAAAgggkEQCxcXFw4YNczhcL42tq6vLyMjw9+7SqVOnWkObMGHCfffdZ51G/CCRo9/AbxR+/PHHfQYNIS1ibsHTlWjaFrPa3/Xryned0a9MQ5UEV3ncnt2qT+mxqzud9QzOjFrdsavzqq0/7iF4cmL3FfNPe7vW6l5bAm2LcmUDzt2eXc96NnlWu601p52qXQjtuF27dpmZmc3NepTW1NQ0YcIED4rzKDs7e9WqVd4N/PrXvxZCPPHEE963InjlwIEDMv0944wzrPT3t7/9rRAiIyNj/vz5EWyL6Dd8zOuXBPvK3gEvVN7zz1rZUuHmhiAz4ytetm3dEKCjBw8etL7BclNlWXj/fs8+t/IvDggh+vbtK+9u37797LPPth7UDmT0u2LFCuu69ZcjDMO47bbb5HXv6HfOnDlaV60aCgvNXwBbtmyxrgSIftUtoK3y8iA7O3vo0KEbNmzQGuI0SIHWR7/PP//80df9/uhHP/L+lar2QW4YfvbZZ2v7KqhlwjgON42TAbBcg+tc5mvt1ew6sJbnuqNi53Ul+lUyXTMJtsorg9AjZKJfBScJD8P9siXhUOkyAggggAACCCCAAAIIIIAAAggggEACC+TkmG+KXblypdrHiy++WAihvjBRvRuNY6LfQKpKdmsV8xv9ei+cVR63R7BqhmqPft0Rr5IlW6/ddcWrzlRFCZhdPfMdvtp7a2/LvVDYGf2ataiv9c2ZVao/6947OkDfrKosrlAPTj31VCHEgQMHfD74zjvvXHvttSeeeOL555//yCOPqCGXWv6OO+4QQkQ8fFWbkMcHDhzo3bu3EOKMM84oLy//05/+FKXcl+jXGz/YK7/98GCQIe61r1WX1zjf+qvU/ej7LTz+4Lu2XciVR/VDn6t+tULamlrDMH784x/LJHXIkCFffPGFYRjV1dVWyBr3Vb9ffvml1RnZPW1EnIYt0Pro1zCM//mf/zn6+vQJEyb4+3X5zjvvZGZmtmnT5tNPPw27qz4fbEUaZ63iNQ98rNk1DPmiX/ctq7xhmFkv0a/PCUnli634sqUyC2NDAAEEEEAAAQQQQAABBBBAAAEEEIixwDvvvCOE6Ny589SpUwsLC59//vkhQ4YIIYYMGRJ4fU5k+7lu3TohxHnnnRdktW+88YYQYsyYMUGWD7KYzw2fO3fufM8998z09bntttvat29vJQ7aQSw2fLbv6hxow2dnySCjX9tCW1eWbEW/0tJ3xGu9rFcLX10Vul7u614E7ONdv56J8iS+rhzaHTPbTrVuaKee2kI9ki8nfffdd0N9UC1/0UUXCSHWr1+vXozS8b59++Rf4zj22GPl99B7OWVEmmbD5zAZP9zVGGT0u6G80buNFpf/vrXZfDdwMJ/wol/rt9vSpUtlK0uWLLEuhhr99uzZUz7761//WuuzVadckbx161brSoBVv+pS5scee0ytc//+/Z988ol6heOQBCIS/VZXV8tfiF27dl28eHFlZaXsQ1NT03/+8x/55mb5+oQxY8Y0Nvr4EQipz2rh1qRxm1a5tn22DtSaDUPJes0byqkW/Qba8FldDcyqXztwsp215suWbGOlvwgggAACCCCAAAIIIIAAAggggAACCS3w17/+9bjjjrP+67oQ4sorr9y7d28sO33nnXceXaf4q1/9KshGDx482LFjx7Zt20a2nz6jX1UmpOOIvR1ZWbZr+XiSUfOSff2ue82u0ltXbhpa9Ks8L4QZ/boTXOuGO461uuVewmuVkA+6X+KrXjZfM52/1dr82Rktu2Nmq5wtzLauCiFcmbeW9Wqnnm6FeiQXzh6N/EN90Cr/7bffZmRkHH/88TH7KxR79+6Va3+FEM8884zVk8geEP2G7znmb9Utpr/rv3GFXu9uP/z8J4esfwI/eMmLlYf1dcJ++9nK6Peuu+4yDKO4uPikk06yfiRDjX6vu+4669kbb7xx5syZs2fPlj22rocU/R7dGjo3N1c+m5WV9Yc//KHI+Zk5c+YJJ5xwdLfhVv49Dr+aaXAjItGvYRhNTU0zZsyQ+a4Qolu3bhdccEG7du3krJ177rkbNmwYMWKEEGL06NERTH9DSeN2FCnv93Wu3HUv9jV3ZnYfG+ai3qIN5gbpaiQsVwD73vDZtT7YWge8f+2qjeWGYfjf8Nms+T1nGc9rg81gWNbvbEvNjNPgi5gMQwzly5YM46GPCCCAAAIIIIAAAggggAACCCCAAALJLLB3796nn376uuuuu//++997770YD+Xtt9+Wa2e3b98efNP/+7//K4S4/PLLGxqCXe3WYuXLly+3cofWH4wYMaLFFoMqEGr0a/h9KW+Q0a+VJTvTWU+eao9+vXNfT46r6rlWAHti3Zz8wnxzn/GWol9n7iuFXNm2rFa57umbs5x2GpSuz0IlJSVCiO9973tVVa43qJaVlU2ZMqVfv34ySFIHmJmZ2aNHj9GjR7/55ptW0Dt9+nQhxPjx433WH6WL5eXlV111VZTW+8o+E/2GP3cvf9byi3tf3Wj+Ont3++HAWa92d/ba+uC7FV70O3ToUPVLLzeLsNLfUKPfNWvWaLUJIYqLi80txd2fUKPfffv29erVy/20/ufTTz8dPBElVYFIRb+yzlWrVt1+++3Dhg3r1q1bp06d+vXrN3bs2N/97nfyf8gPHz4c8fQ3lDTO9tbeAnXHZldMu7zA/4t+HRt2rH3PFc3qGz47By+zYVmDKyEm+lW/asl/HMqXLflHywgQQAABBBBAAAEEEEAAAQQQQAABBBJMYPbs2TfffHOLnXrttdfGjx9fU1PTYsmwCyxdulQu++nUqdNQ52fIkCGnnHJKTk6OPLX+/aMf/ejkk0/u27evvHLOOefI/7j/k5/85NChQ2F3QH3w4MGD1pIkPTkI/fzBBx9UK+c4uQQuu+wyIcS9995rruzatOmYY44J5itw0003GYZRVlaWlZV1dAH9xx9/nFyjbrG3RL8tEgUqcLAJy/EAACAASURBVN3iGi219T694fWWy6hPjXi5urahOVCrXvdOPvlk+W2WaavXfWPevHmywE9+8hN5d/v27WeddZb1M3DJJZd89tlnl19+ubyyYcMGwzB27twpT88880y1zscee0xev/POO63rhYWFco9yeevEE0/cv99cRnn22WfLK5s3bzYMo7Ky8vjjjxdCdOnSpaKiwnp8/vz5sthVV11lXayoqLjrrrs6deokb8l/d+rUSW3XKsxBkAKRjX5bbDTi6S9pXIvmFIiUAF+2SElSDwIIIIAAAggggAACCCCAAAIIIIBAGAKDBw8WQpSUlAR+dty4cUIIuaArcMmw7+bl5an/lT684x07doTdAe3BqVOnhtcH7anOnTt//fXXWuWcJpHA1q1b27Ztm5GRsWTJkh/84AdCiP79+7/22mu7d+/WRnHo0KF169ZNnjw5MzNTbrZ8/vnnCyEmTJiglUyBU6LfVk3iB0G/8VcNdwMfL91yONQ+VVVVFRUVBf69+dlnn61cuVKtua6u7rXXXsvPz1+zZo28fvDgwaKiom3btlnFtm/fXlRUdODAAeuKPFi7du2qVau0i4Zh7N27d+3ate+//35dXZ28e+DAgaKiInULiK+//rqoqOibb77RHv/888+1HloF3n333aeffvovf/nLunXrrIschCcQ4+jXMIzIpr+kceHNO0+FIcCXLQw0HkEAAQQQQAABBBBAAAEEEEAAAQQQiJTAzp07vV996L1zclVV1dKlSyPVqM966urq3n//fflaRvnvl156SQjRs2dP9WJRUdHjjz8uhLj00ku162vXrvVZc3gXjxw5cvPNN2s5bqinHTt2XLZsWXgd4KnEEXj22WeFEHI38n79+tXW1gbum/zqyjWH//Vf/1VdXR24fDLeJfpt7aw9t/5Q4Cg3pLt/WB3CVs+t7TrPp6VA7KPfyKa/pHFp+bWNz6D5ssXHnVYRQAABBBBAAAEEEEAAAQQQQAABBPwIlJSUtGvXLphdoP1UELHLtbW1QoiuXbtqNcocLja7KBcVFV1//fXWrqhBRr8ZGRndunUbOXKkugpOGwWnySXw8MMPy9l/8sknW+z5oUOH5JuATzzxxFRd80302+LXoOUCj394MKR811/hh5a7Vsq23CQlEAhXIC7Rr0x/R40aJYSYO3duuH03nyONa40ez4YkwJctJC4KI4AAAggggAACCCCAAAIIIIAAAghEW2DXrl3du3e///77o91QMPXL9/hqe3lefPHFQoiCgoJgaohgmX79+mnRb2Zm5v333x/VVyBHsP9U1UqB0aNHCyEyMzN/8Ytf7Nu3z19tS5Ys6dmzpxDi2GOPTb1X/FqjJvq1KFp1MGtVa9PfR98/2Koe8DACwQnEK/qV6e+sWbMC/NoNZgSkccEoUSYiAnzZIsJIJQgggAACCCCAAAIIIIAAAggggAACKSmwfv36rKyszp07H42iZzo/Q4YMEUKMHz8+9uPVot8hQ4Z88cUXse8GLcZRYMmSJd26dZMB8ODBgx944AH5tZT/HjduXNeuXYUQbdq0+fnPf15ZWRnHrka7aaLfiAkv/Cz8nZ/nFR+KWD+oCIGAAnGMfgP2K9ibpHHBSlGu1QJ82VpNSAUIIIAAAggggAACCCCAAAIIIIAAAqksUFJSMmjQIGu5badOnf7whz80NTXFfswDBgyQ3cjOzl60aFHsO0CLiSDQ1NT08ssvjxw5sl27dtbX0jro3r37lClTdu/enQhdjWofiH4jyfvl/qZfvl3rbz9nn9dve6t2Q3kcfg9GctjUlVQCRL9JNV10Np4CRL/x1KdtBBBAAAEEEEAAAQQQQAABBBBAAIEkEfjss8+eeeaZwsLCOO6uvGTJkmOPPfa+++6rrq5OEja6GUWBqqqqf/7znwsWLHj88cefeuqpxYsXf/rpp1FsL8GqJvqN/IT8e3fj1PfqLphb6TPrtS7e907tBzsbI988NSIQUIDoNyAPNxHwCBD9eiw4QgABBBBAAAEEEEAAAQQQQAABBBBAAAEEEEgGAaLfaM3SwcPNK3c1Pv9J/fQVdXcvq71tae1dy2qnrah7dv2hFTsOVzc0R6th6kUgoADRb0AebiLgESD69VhwhAACCCCAAAIIIIAAAggggAACCCCAAAIIIJAMAkS/yTBL9BGByAkQ/UbOkppSXIDoN8UnmOEhgAACCCCAAAIIIIAAAggggAACCCCAAAIpJ0D0m3JTyoAQCCiQ7NHvxs2l9YcaAg6RmwhEQKD+UMPGzaURqIgqEEAAAQQQQAABBBBAAAEEEEAAAQQQQAABBBCIlQDRb6ykaQeBxBBI9ui3bM+3X5XtTQxLepHKAl+V7S3b820qj5CxIYAAAggggAACCCCAAAIIIIAAAggggAACCKScANFvyk0pA0IgoECyR7+GYWzZsfursr2s/Q04z9wMX6D+UMNXZXu37NgdfhU8iQACCCCAAAIIIIAAAggggAACCCCAAAIIIIBAPASIfuOhTpsIxE8gBaJfwzDK9ny7cXNp8cYt/INAxAU2bi5lvW/8fkXRMgIIIIAAAggggAACCCCAAAIIIIAAAggggED4AkS/4dvxJALJKJAa0W8yytNnBBBAAAEEEEAAAQQQQAABBBBAAAEEEEAAAQQQQCCqAkS/UeWlcgQSToDoN+GmhA4hgAACCCCAAAIIIIAAAggggAACCCCAAAIIIIAAApEQIPqNhCJ1IJA8AkS/yTNX9BQBBBBAAAEEEEAAAQQQQAABBBBAAAEEEEAAAQQQCEGA6DcELIoikAICRL8pMIkMAQEEEEAAAQQQQAABBBBAAAEEEEAAAQQQQAABBBDwFiD69TbhCgKpLED0m8qzy9gQQAABBBBAAAEEEEAAAQQQQAABBBBAAAEEEEAgjQWIftN48hl6WgoQ/abltDNoBBBAAAEEEEAAAQQQQAABBBBAAAEEEEAAAQQQSH0Bot/Un2NGiIAqQPSranCMAAIIIIAAAggggAACCCCAAAIIIIAAAggggAACCKSMANFvykwlA0EgKAGi36CYKIQAAggggAACCCCAAAIIIIAAAggggAACCCCAAAIIJJsA0W+yzRj9RaB1AkS/rfPjaQQQQAABBBBAAAEEEEAAAQQQQAABBBBAAAEEEEAgQQWIfhN0YugWAlESIPqNEizVIoAAAggggAACCCCAAAIIIIAAAggggAACCCCAAALxFSD6ja8/rSMQa4HSr77hHwQQQAABBBBAAAEEEEAAAQQQQAABBBBAAAEEEEAAgdQTIPqNdfBGewjEV4BVv/H1p3UEEEAAAQQQQAABBBBAAAEEEEAAAQQQQAABBBBAIEoCRL9RgqVaBBJUgOg3QSeGbiGAAAIIIIAAAggggAACCCCAAAIIIIAAAggggAACrRMg+m2dH08jkGwCRL/JNmP0FwEEEEAAAQQQQAABBBBAAAEEEEAAAQQQQAABBBAISoDoNygmCiGQMgJEvykzlQwEAQQQQAABBBBAAAEEEEAAAQQQQAABBBBAAAEEEFAFiH5VDY4RSH0Bot/Un2NGiAACCCCAAAIIIIAAAggggAACCCCAAAIIIIAAAmkpQPSbltPOoNNYgOg3jSefoSOAAAIIIIAAAggggAACCCCAAAIIIIAAAggggEAqCxD9pvLsMjYEvAWIfr1NuIIAAggggAACCCCAAAIIIIAAAggggAACCCCAAAIIpIAA0W8KTCJDQCAEAaLfELAoigACCCCAAAIIIIAAAggggAACCCCAAAIIIIAAAggkjwDRb/LMFT1FIBICRL+RUKQOBBBAAAEEEEAAAQQQQAABBBBAAAEEEEAAAQQQQCDhBIh+E25K6BACURUg+o0qL5UjgAACCCCAAAIIIIAAAggggAACCCCAAAIIIIAAAvESIPqNlzztIhAfAaLf+LjTKgIIIIAAAggggAACCCCAAAIIIIAAAggggAACCCAQZQGi3ygDUz0CCSZA9JtgE0J3EEAAAQQQQAABBBBAAAEEEEAAAQQQQAABBBBAAIHICBD9RsaRWhBIFgGi32SZKfqJAAIIIIAAAggggAACCCCAAAIIIIAAAggggAACCIQkQPQbEheFEUh6AaLfpJ9CBoAAAggggAACCCCAAAIIIIAAAggggAACCCCAAAII+BIg+vWlwjUEUleA6Dd155aRIYAAAggggAACCCCAAAIIIIAAAggggAACCCCAQFoLEP2m9fQz+DQUIPpNw0lnyAgggAACCCCAAAIIIIAAAggggAACCCCAAAIIIJAOAkS/6TDLjBEBjwDRr8eCIwQQQAABBBBAAAEEEEAAAQQQQAABBBBAAAEEEEAghQSIflNoMhkKAkEIEP0GgUQRBBBAAAEEEEAAAQQQQAABBBBAAAEEEEAAAQQQQCD5BIh+k2/O6DECrREg+m2NHs8igAACCCCAAAIIIIAAAggggAACCCCAAAIIIIAAAgkrENPo97XXXjvvvPOE/XPOOee89NJLFtC///3vSy65JCMjQy112mmnzZgxwyrDAQIIhC1A9Bs2HQ8igAACCCCAAAIIIIAAAggggAACCCCAAAIIIIAAAoksENPot0ePHm3bth1q/7Rr1+773/9+U1OTZLrmmmuEEIMGDVJLnXjiiUKI3bt3JzIlfUMgKQSIfpNimugkAggggAACCCCAAAIIIIAAAggggAACCCCAAAIIIBCqQOyi37q6OiHEwIEDtS6OGDFCCFFWViav9+zZs127dlqZBx544OizDodDu84pAgiEKkD0G6oY5RFAAAEEEEAAAQQQQAABBBBAAAEEEEAAAQQQQACBpBAg+k2KaaKTCERMgOg3YpRUhAACCCCAAAIIIIAAAggggAACCCCAAAIIIIAAAggkkkDCRb/9+/dv06ZNkf0zduxYIcTKlSsTiY6+IJCUAkS/STltdBoBBBBAAAEEEEAAAQQQQAABBBBAAAEEEEAAAQQQaEkg4aLfRx99VPj6nHzyyUeOHGlpOK28X5rfR+TMKvVZiyNPiLwY7zgdqD8x7eTW/ByRk7/VZ5tcTDIBot8kmzC6iwACCCCAAAIIIIAAAggggAACCCCAAAIIIIAAAggEJ5Bw0e/hw4fnz58/fPjwocrnjjvu2LFjR3AjspcqzPWVI/vLdwNFrUS/RL/271aynhH9JuvM0W8EEEAAAQQQQAABBBBAAAEEEEAAAQQQQAABBBBAIKBAwkW/AXvbiptBrVsl+vUjHJSen2e5nGACRL8JNiF0BwEEEEAAAQQQQAABBBBAAAEEEEAAAQQQQAABBBCIjADRr+pI9KtqKMdEvwpGsh8S/Sb7DNJ/BBBAAAEEEEAAAQQQQAABBBBAAAEEEEAAAQQQQMCnQOyi38OHD7dr165Xr15F9k///v2FEBUVFVb/Dh48+MEHH6iltm3bZt0N80ALL81T96dPvvvtvq7ot3SWdTPXeruvtuGzeer6qC/BdSgbTFvPmtXmFno6btbvadRz3TxSOpYzy2F/97BSuZ/HXZ30bHOt9s0wDLMn1sfTJYlTKE1c3VYQcvLNW1pV9m5zljwCRL/JM1f0FAEEEEAAAQQQQAABBBBAAAEEEEAAAQQQQAABBBAIQSB20a9hGD/96U+t3FE9uOyyy6wuv/LKK+3bt1fvyuOhQ4daZcI5sEe/jjxbLivyZMLrSkZzZrmyYGe+6yqpRr/qsWHmrK5YtHRWrvVCXLOMK6ANOvp15r5WIuts3XotsZn72m75Sn/lI+7hGM741opsncmxa6SujNk1Upk3KxU6H7SIZORs1RMOP88kjgDRb+LMBT1BAAEEEEAAAQQQQAABBBBAAAEEEEAAAQQQQAABBCIoENPot66u7vXXX59p/yxevLi2ttYa0pAhQzIyMqZOnaqWkiuDP/30U6tYyAf26Fd9XFmD64x+rXDULOQJXD1xr1mVFYu6ltJaabGnZjMSlsWCjX49TbhqMR+UNZudVDvmZzhmDUqCK5f5emqw3XIGw/KKM/q1cmV11K6O+GnOM1iOkkeA6Dd55oqeIoAAAggggAACCCCAAAIIIIAAAggggAACCCCAAAIhCMQ0+g2mXz179mzXrp1W8oEHHhBCOBzW7sva/SBOvcJL1wJZuabYlYl6olZ3jZ4rnlzWs52yZ3GyFf0618ta10OKfvWEWA1ubb11Ve9jGa6nk+4BWFccedYCYvc908TZQw3Huu4u6NyG2kdz1n0OkkiA6DeJJouuIoAAAggggAACCCCAAAIIIIAAAggggAACCCCAAALBC6Rl9GtGm8JaRKut+rVCXCein+jXvnzWze3cGNm6FfKq3xaiX3vH3G3a/7SCXuuydYXo1zJJ8wOi3zT/AjB8BBBAAAEEEEAAAQQQQAABBBBAAAEEEEAAAQQQSFWBmEa/Bw8efPPNN9WdnGfOnLl48eKamhrLNwarfpWs12xWOfUEva7+KMthrQzV7xJYT9brfNpzqldrVmUlxNbIDbOYFUg7L5tZsr/tmj3PKUeeTrouejasVobpuue5ogzTvOeMxpX9nw31fcZKaxwmpQDRb1JOG51GAAEEEEAAAQQQQAABBBBAAAEEEEAAAQQQQAABBFoSiGn0O3bsWGsrZPXgyiuvtPoZg+jXGWS6X9YrVwArGz4LIdyppzOLdWe0Sqpqu26+EDjPe9tk5wpg9yuBzZDVfexs3Wf0KxNWq3XDbNEd/co4Vln468hVX/3r5rM9YnbMHI17m2xnl6yn1HxXi359PijY8NmtnOR/Ev0m+QTSfQQQQAABBBBAAAEEEEAAAQQQQAABBBBAAAEEEEDAt0Dsot8jR44cd9xxJ5xwgrbq95RTTmnfvv3BgwdlB2MR/bqiTWf63CffMSvHvQZXLs91mKtv5ced+zrzXXVJrjP9dZeyEllnxCuv5jo8q37NpcWeOvMcnuW23pNiPuX65BbK/pS6SsmU2nXTdxAr82kZADsLWrmvrEMG0rIKpQav6Nc1XndHHL4KePedK0khQPSbFNNEJxFAAAEEEEAAAQQQQAABBBBAAAEEEEAAAQQQQACBUAViF/3W1dUJIQYOHKh1ccSIEUKIsrIyeT1a0a/WKqcIpKsA0W+6zjzjRgABBBBAAAEEEEAAAQQQQAABBBBAAAEEEEAAgRQXIPpN8QlmeAhoAkS/GginCCCAAAIIIIAAAggggAACCCCAAAIIIIAAAggggEBqCMQu+j1y5MgJJ5zQtWtXbcPnM844o0OHDtaGz5deemlGRoZWZtCgQUKITz/9NDXQGQUCcRQg+o0jPk0jgAACCCCAAAIIIIAAAggggAACCCCAAAIIIIAAAtETiF30axjGtGnT2rRp43qBrPLHvffea41w0aJFHTp0UG66DocPH26V4QABBMIWIPoNm44HEUAAAQQQQAABBBBAAAEEEEAAAQQQQAABBBBAAIFEFohp9GsYxoEDB4rsn71792pAdXV1H3zwgVpq+/btWhlOEUAgPAGi3/DceAoBBBBAAAEEEEAAAQQQQAABBBBAAAEEEEAAAQQQSHCBWEe/Cc5B9xBIeQGi35SfYgaIAAIIIIAAAggggAACCCCAAAIIIIAAAggggAAC6SlA9Jue886o01eA6Dd9556RI4AAAggggAACCCCAAAIIIIAAAggggAACCCCAQEoLEP2m9PQyOAS8BIh+vUi4gAACCCCAAAIIIIAAAggggAACCCCAAAIIIIAAAgikggDRbyrMImNAIHgBot/grSiJAAIIIIAAAggggAACCCCAAAIIIIAAAggggAACCCSRANFvEk0WXUUgAgJEvxFApAoEEEAAAQQQQAABBBBAAAEEEEAAAQQQQAABBBBAIPEEiH4Tb07oEQLRFCD6jaYudSOAAAIIIIAAAggggAACCCCAAAIIIIAAAggggAACcRMg+o0bPQ0jEBcBot+4sNMoAggggAACCCCAAAIIIIAAAggggAACCCCAAAIIIBBtAaLfaAtTPwKJJUD0m1jzQW8QQAABBBBAAAEEEEAAAQQQQAABBBBAAAEEEEAAgQgJEP1GCJJqEEgSAaLfJJkouokAAggggAACCCCAAAIIIIAAAggggAACCCCAAAIIhCZA9BuaF6URSHYBot9kn0H6jwACCCCAAAIIIIAAAggggAACCCCAAAIIIIAAAgj4FCD69cnCRQRSVoDoN2WnloEhgAACCCCAAAIIIIAAAggggAACCCCAAAIIIIBAegsQ/ab3/DP69BMg+k2/OWfECCCAAAIIIIAAAggggAACCCCAAAIIIIAAAgggkBYCRL9pMc0MEgFLgOjXouAAAQQQQAABBBBAAAEEEEAAAQQQQAABBBBAAAEEEEglAaLfVJpNxoJAywJEvy0bUQIBBBBAAAEEEEAAAQQQQAABBBBAAAEEEEAAAQQQSEIBot8knDS6jEArBIh+W4HHowgggAACCCCAAAIIIIAAAggggAACCCCAAAIIIIBA4goQ/Sbu3NAzBKIhQPQbDVXqRAABBBBAAAEEEEAAAQQQQAABBBBAAAEEEEAAAQTiLkD0G/cpoAMIxFSA6Dem3DSGAAIIIIAAAggggAACCCCAAAIIIIAAAggggAACCMRKgOg3VtK0g0BiCBD9JsY80AsEEEAAAQQQQAABBBBAAAEEEEAAAQQQQAABBBBAIMICRL8RBqU6BBJcgOg3wSeI7iGAAAIIIIAAAggggAACCCCAAAIIIIAAAggggAAC4QkQ/YbnxlMIJKsA0W+yzhz9RgABBBBAAAEEEEAAAQQQQAABBBBAAAEEEEAAAQQCChD9BuThJgIpJ0D0m3JTyoAQQAABBBBAAAEEEEAAAQQQQAABBBBAAAEEEEAAAVOA6JfvAQLpJUD0m17zzWgRQAABBBBAAAEEEEAAAQQQQAABBBBAAAEEEEAgbQSIftNmqhkoAk4Bol++CAgggAACCCCAAAIIIIAAAggggAACCCCAAAIIIIBASgoQ/abktDIoBPwKEP36peEGAggggAACCCCAAAIIIIAAAggggAACCCCAAAIIIJDMAjGNfktLS4t8fdavX3/o0CHDMJqamjZt2uSrSFFxcXEyO9N3BBJFgOg3UWaCfiCAAAIIIIAAAggggAACCCCAAAIIIIAAAggggAACERWIXfQ7evRo4f/Tvn37cePGnXzyyf6LiG7dulVWVkZ0+FSGQNoJEP2m3ZQzYAQQQAABBBBAAAEEEEAAAQQQQAABBBBAAAEEEEgPgRhFv2VlZUKIs846a6avzw033JCZmSlD32HDhvkqMvOyyy4TQrz66qvpMS+MEoFoCRD9RkuWehFAAAEEEEAAAQQQQAABBBBAAAEEEEAAAQQQQACBuArEKPpdsWKFEOKXv/ylv8Hed999Qoi+ffv6K/D6668LIWbMmOGvANcRQCAYAaLfYJQogwACCCCAAAIIIIAAAggggAACCCCAAAIIIIAAAggknUCiRL/z588XQlx99dX+BIl+/clwHYGQBIh+Q+KiMAIIIIAAAggggAACCCCAAAIIIIAAAggggAACCCCQLAIxin6XL18uhJg0aZLlsmDBgvnz52/btk1ecTgcQogpU6ZYBeY7Pzt37pRXCgoKhBDTp0+3CnCAAAJhCBD9hoHGIwgggAACCCCAAAIIIIAAAggggAACCCCAAAIIIIBA4gvEJ/pdsGCBfLPvz372M2mkRb9z5syRBW688UZZgOg38b9M9DAYgaVLl+7atSuYklEqQ/QbJViqRQABBBBAAAEEEEAAAQQQQAABBBBAAAEEEEAAAQTiKxCf6NcwjCeffPKPf/zjhg0b5Pi16LehoeGPzs/GjRtlgdZHv448mSa7/p1bGHP5wlyrBzmzSmPePA0mhMDdd9/dq1evffv2xas3RL/xkqddBBBAAAEEEEAAAQQQQAABBBBAAAEEEEAAAQQQQCCqAnGLfrVRadGvdtcwjFZFv1vzc4Swpa2FubZT7/Yif8WRK4Qrbzb7k5O/NfJt+K3RTJ1zHX5vcyN2Ak1NTSNHjszJyamsrIxdq0pLRL8KBocIIIAAAggggAACCCCAAAIIIIAAAggggAACCCCAQOoIpEP0q2SucZw4M+61wtfS/D7uGDg2XSL6jY1zcK3U19dfeOGFAwYMqKmpCe6JSJYi+o2kJnUhgAACCCCAAAIIIIAAAggggAACCCCAAAIIIIAAAgkjEJ/ot7a2dobzs3LlSkmhrfqtqKiQBdasWSMLhL3qt3RWjuiTH2h7ZWUfZrWk+WCeslBWXaork1T5oLNydTdpP1tJKwm0GsQW5qqN2r8YZkJsfaxqzY5ZH6WHZh/yHMpdV9Ks9s2z9te5EtpVjVWJa4xmV+XHszZa76cyHEPtZ2xXM9u9kuisoqLihz/84aBBg+rr62PcbaLfGIPTHAIIIIAAAggggAACCCCAAAIIIIAAAggggAACCCAQG4H4RL8LFiyQyeL1118vx6lFv88++6wsMGHCBFkg3OjXTCU9+aUXqjMo9aSVzpTUlZi2FP2aOauszyxppcuFuVZGq7dmpa1WYcMw9EjVesiZv7qbMNzVqj00ZObqrk1GvO7BOuNY5XFP6GsYhhpjy0pkSVcP3auTzYjajaP30xP9mu26GyqdlRvTjawtrSQ8KCsrO/3008eNGxfjvhP9xhic5hBAAAEEEEAAAQQQQAABBBBAAAEEEEAAAQQQQACB2AjEJ/qV7+4tKCjYu3evHKcW/VoFDhw4IAu0Jvr1m8UanvzSze250lL0685EDUPNPt31eP3pXCKcM6vUGTZ70mhHnudYfcYWJ1s3bJGt86pyxeyGOwY272lriz3bTZsddifEzkqsks7oV+FSgnO/0a9SxuonB0EIlJWVde/eneg3CCqKIIAAAggggAACCCCAAAIIIIAAAggggAACCCCAAAIItCwQt+hX65p39KsVaE30a4s51XrNpNO9wtV93YpFW4p+lQedialnYj1diwAAIABJREFUgay7Ks+fSkDrvGgGzM5eOXKtZbWe0uaR1Q3bZT1/NeTCXxnW6gm0FehqMbBtf2bXxs6uNcF6P5VYV2/ak5E7M2ZhW1Vs6zQnPgQqKip69erFhs8+aLiEAAIIIIAAAggggAACCCCAAAIIIIAAAggggAACCCAQlkDKR78Bl+RGKvqV9M51vT4DYD1FNsub0an5cW+VrE1ftKNfZWmv0nJ40a+zArmamQBY0fR7WF9fP3DgwAEDBtTU1PgtFLUbbPgcNVoqRgABBBBAAAEEEEAAAQQQQAABBBBAAAEEEEAAAQTiKZCg0e+WLVtudH7efPNNyRPuql+577Fnc2Y7trJ01XXDc0XfctlMdt31qAtqbTUqy2SV63pVzlvOrFRZOqyUNxfzqu8Ptm7p0aztrb1Br/r1H4fr9SvD0YZslhRe+bFHz+oyB5pAY2PjFVdckZOTU1lZqd2KzSnRb2ycaQUBBBBAAAEEEEAAAQQQQAABBBBAAAEEEEAAAQQQiLFAgka/c+fOlWtib731VikSfvQrY1QtpyzMlbtAO/NXd6Ar39prvS7Xlm7KRbrukvYc1JFnJbhKVqrOpLMqdd9pM6YVubna23nVR+SyYGtNcGGuZ1dnzybVZnPWuuFA0a+W6Zr9V4Lbrfm5s0rNxrVizq2h3d02BdzHznZdNZTm5+U7H3YtZfbKg22j4mTSpEk9e/bct29fvCiIfuMlT7sIIIAAAggggAACCCCAAAIIIIAAAggggAACCCCAQFQFEjT6NQzjE+fHGnxrol+zEmf4KuNk57+tsNa5vta6YUWtzoadwbC8l+tQY1E9+rWet8JRq+PWgQyPXSXdGapzAa55zdMf6wHPptD2As7YWK9Hvh7YioHNSnx30t2QM/111WK1ro7RrMKeZHseycnfai3wdcXAsipyX2X6fB8uX758165dvu/F5CrRb0yYaQQBBBBAAAEEEEAAAQQQQAABBBBAAAEEEEAAAQQQiLVA4ka/mkRro1+tOk4RSFcBot90nXnGjQACCCCAAAIIIIAAAggggAACCCCAAAIIIIAAAikuQPSb4hPM8BDQBIh+NRBOEUAAAQQQQAABBBBAAAEEEEAAAQQQQAABBBBAAIHUEIhR9Lt37942bdp07dp1qK/PT37yk9xc8+2zl1122fXXX++ryNDevXsLIV5//fXUcGcUCMRLgOg3XvK0iwACCCCAAAIIIIAAAggggAACCCCAAAIIIIAAAghEVSBG0a9hGL/5zW+6devmfrlsyH8ed9xxN9xww+HDh6PKQeUIpLwA0W/KTzEDRAABBBBAAAEEEEAAAQQQQAABBBBAAAEEEEAAgfQUiF30G8B327ZtOTk5Qohjjjnmgw8+CFCSWwgg0EoBot9WAvI4AggggAACCCCAAAIIIIAAAggggAACCCCAAAIIIJCYAgkR/RqGMWPGDCHEhRdemJhM9AqBlBEg+k2ZqWQgCCCAAAIIIIAAAggggAACCCCAAAIIIIAAAggggIAqkCjRb0NDw6hRoz788EO1cxwjgEDEBYh+I05KhQgggAACCCCAAAIIIIAAAggggAACCCCAAAIIIIBAIggkSvSbCBb0AYF0ECD6TYdZZowIIIAAAggggAACCCCAAAIIIIAAAggggAACCCCQhgJEv2k46Qw5rQWIftN6+hk8AggggAACCCCAAAIIIIAAAggggAACCCCAAAIIpK4A0W/qzi0jQ8CXANGvLxWuIYAAAggggAACCCCAAAIIIIAAAggggAACCCCAAAJJL0D0m/RTyAAQCEmA6DckLgojgAACCCCAAAIIIIAAAggggAACCCCAAAIIIIAAAskiQPSbLDNFPxGIjADRb2QcqQUBBBBAAAEEEEAAAQQQQAABBBBAAAEEEEAAAQQQSDABot8EmxC6g0CUBYh+owxM9QgggAACCCCAAAIIIIAAAggggAACCCCAAAIIIIBAfASIfuPjTqsIxEuA6Dde8rSLAAIIIIAAAggggAACCCCAAAIIIIAAAggggAACCERVgOg3qrxUjkDCCRD9JtyU0CEEEEAAAQQQQAABBBBAAAEEEEAAAQQQQAABBBBAIBICRL+RUKQOBJJHgOg3eeaKniKAAAIIIIAAAggggAACCCCAAAIIIIAAAggggAACIQgQ/YaARVEEUkCA6DcFJpEhIIAAAggggAACCCCAAAIIIIAAAggggAACCCCAAALeAkS/3iZcQSCVBYh+U3l2GRsCCCCAAAIIIIAAAggggAACCCCAAAIIIIAAAgiksQDRbxpPPkNPSwGi37ScdgaNAAIIIIAAAggggAACCCCAAAIIIIAAAggggAACqS9A9Jv6c8wIEVAFiH5VDY4RQAABBBBAAAEEEEAAAQQQQAABBBBAAAEEEEAAgZQRIPpNmalkIAgEJUD0GxQThRBAAAEEEEAAAQQQQAABBBBAAAEEEEAAAQQQQACBZBMg+k22GaO/CLROgOi3dX48jQACCCCAAAIIIIAAAggggAACCCCAAAIIIIAAAggkqADRb4JODN1CIEoCRL9RgqVaBBBAAAEEEEAAAQQQQAABBBBAAAEEEEAAAQQQQCC+AkS/8fWndQRiLUD0q4o78oT9k+tQbxfm2u+K3EL1NsexECidlWOfBfscxaILtIEAAggggAACCCCAAAIIIIAAAggggAACCCCAQHIIEP0mxzzRSwQiJRD/6Hdrvhbl5cwqDTg6hx7A5tny2YDPtnAzwaNfr+65M9AzppW0MDLD8HJ2P5yTv7XFhxOoANFvAk0GXUEAAQQQQAABBBBAAAEEEEAAAQQQQAABBBBIbAGi38SeH3qHQKQFiH5VUa9s1b6iNN6rfr26505vRY9pn6vj8HHslZhazxL9+uDiEgIIIIAAAggggAACCCCAAAIIIIAAAggggAACKSBA9JsCk8gQEAhBgOhXxfLKVpMl+hU9pgde91ua38fKerUDol/1K8AxAggggAACCCCAAAIIIIAAAggggAACCCCAAAKpI0D0mzpzyUgQCEaA6FdVSt7oVwTe89nvbs9CCKJf9SvAMQIIIIAAAggggAACCCCAAAIIIIAAAggggAACqSNA9Js6c8lIEAhGgOhXVUri6Dfgns/+d3sm+lXnn2MEEEAAAQQQQAABBBBAAAEEEEAAAQQQQAABBFJKIFGi34aGhvXr11dVVaWULoNBIPEEiH7VOUmu6Lf/Bf3VvZv97/ls2+1Ze4pVv+oXgGMEEEAAAQQQQAABBBBAAAEEEEAAAQQQQAABBFJJIP7R78aNGy+//PL27dvLSKNv376FhYWpRMxYEEgoAaJfdTqSK/rNnXRXlpr9+tvz2bbbc9Zdk3LVh4h+1S8AxwgggAACCCCAAAIIIIAAAggggAACCCCAAAIIpJJAnKPf+fPnZ2ZmnnTSSWPHjn3wwQdvvPHGnj17CiFuu+22VFJmLAgkjgDRrzoXSRb9Lpg3ypbi9pj2uToa17F9t+fc/Fm2tcJEvz7IuIQAAggggAACCCCAAAIIIIAAAggggAACCCCAQEoIxDP6XbNmTdu2bUeOHFlRUWFhNjU1TZkyRQjx5z//2brIAQIIREogxaPf+tLlc6aNuiC7S6Y7I+2S3X/M5PxlpfW+BCMW/TbWlyzLnzymf3a2si63S3bOsNxpC4rLfbbtqz/aNa17ObNWzxvmHpfzT197Ptt2exZjFhbPyrE9I3Lyt2rtOE9ryosX508ePzzntC6e8gH1jEJtPbHIlVs21Jc6ZuX2tyiysvvn5Tu2BlQwH5k4vLfyzAW5ctbsSbYQItfh3f3G+vJ1Bfn35Q7vrUx9ZpfsC0ZNnuXwPffelXAFAQQQQAABBBBAAAEEEEAAAQQQQAABBBBAAIEkF4hn9Dto0KCsrKzy8nLNsLm5uW/fvh06dKivDxgVaI9xigACQQikbvRbX7rg2mxPaOl1dPbEgt06kJat6rGiv2jTVk196eKJOVbS7NWseSEz+9qnS8L4daZ1L2dWafkLw20teO/5bNvtWYxaVO8VnXpFvzWrHxsWSM5ssfdkx7e2YZsnvnzqP88f7Fsje2Kh52/5qHVVLJvsDzD7JsdqPbrWot/61b8enu27RTdVZs7kZb6bVrvBMQIIIIAAAggggAACCCCAAAIIIIAAAggggAACyS4Qt+i3qampQ4cOAwcO9Cl47733CiE+/vhjn3e5iAACYQskYPTrDuiC/jPPe9lnheOmlsJLM4IdnL/JJqdlqyFHv40VBcG06xxZ9k2OUONHrXs5s0qN8nn27Fff89ke9I5aWGPYrwgfGz7b02K/09BloqPGpucj+p2Vr+0uba9t+Dyv9L180bXKKmN7cfMsq8cZykJq84oW/dpXOXtX4LrSZeKyMMJ3+3g5QwABBBBAAAEEEEAAAQQQQAABBBBAAAEEEEAgsQXiFv3u2rVLCHHVVVf59MnPzxdCvPLKKz7vRveiMwVxbVtqrmlzxQxmBtMnvzS6bSdJ7QpLkvQ4gbq5dOnSXbt2xbFDKRn9luivszUjw+zTsrPVvYtlBHiB7adYy1atn3fXBPla1arO3epJAVNLrxiy/6wS9fEWj7XumdGvUR5wz2d7DjpmYb0RevTbJdtJZ+297BmGvr+0l4+nqJ+jrEmrbaPeFDgq9llLwOg3s4vsvI/ee6+QtnWFEwQQQAABBBBAAAEEEEAAAQQQQAABBBBAAAEEkl4gbtHvkSNHOnbs6G/V7/333x+xVb8+c0qfF+Vspkz0q6QyzsQocl/WAHqRayRVa7r77rt79eq1b9++eA0wBaNfr0Wr2WPneV7v+m1Brj2fvXaRZ/Wnlq2GFv2um9bDK5rMvnLawhUl5eXlJSsW5udpL9n1teI24PdA6578Qa5fNMrWrJpo2ilGOUca7Krf7MGTFxSXq+t6GysK8ux2WXfZklvll4ynS5k5E+csLykvLV48bZT3SuzsacWeIesxtllJ9uDJcxzFO8pL1zlm3+oN6G/Vb/bg++YV7/bMrGEYFa9rM59114eetjlCAAEEEEAAAQQQQAABBBBAAAEEEEAAAQQQQCD1BOIW/RqGId/1+80332iszc3Nffr0ycjIOHTokHYrnFOfOaV6UT3WGghwSyvp99RchBfh5NVvW+oNh7lgudB5xUyDvN7uqZYN9TgCLKE2mTrlm5qaRo4cmZOTU1lZGZdRpV70u/wO+4bAXqvz6xdd6wkmhRDKftFathpS9Ov1bNaoBfqbyysW59o7J/RlrwG/BFoTrt8kNQvt2a9nz2d7ymvu9mwEtep33uRZqysafXWlsSDXZtc/f4dSzPxVoH1GzVNfCVxRoI9f5BZYDdmDarOiLrnaptgVhVp86yP6nXdf/mq1UaWDBeNt3ev/JBs3KDocIoAAAggggAACCCCAAAIIIIAAAggggAACCKScQDyjX4fDIYQYOXJkRYXnDZhNTU1TpkwRQkyfPj0y2j5zSvWieqw1GeCWVtLvaZyiXzNTsbZFNfvgioH99jOUGxFgCaW5lCtbX19/4YUXDhgwoKZGXWIZo3EmYvSb5dph2LVVr7lRs/qPfeGpPbs1jNV32cNVudTVpqlFjL0fs7Zd1rLVUKJfx0RbqijEoNl68Gt2onz2IHs527JXWze9T7Tuuf8SSf3Ca2x1uvdh9rHbc1DRr9ZwfYVz1XJBwV/zJ996bX8778RlSmnzV4Ht4+6Jp8zqSfbnlb+GUv6C/bXFIuuuFZ4H3Uf1C8fYmtDnyF3O/aez958vL1i8MP++ideeZ2/9Ju+3RLuf408EEEAAAQQQQAABBBBAAAEEEEAAAQQQQAABBJJfIJ7Rr2EYzz33XGZm5kknnTR27NipU6feeOONPXv2FELcdtttzc3NkeH1mVO6L9qTFWdWqq6RdRczDMMsaS0WVAMP90V1vZ0robEHTu7YxvbqTXciq6ezZm3uxYuyadlVWYnabXcNmpay6lcZhVGYa1Vre0COujDfub+qOzNWh+nujPmUWqF9TaHSGTWFiuiaY1u/k/WkoqLihz/84aBBg+rrbVvUxmA8CRj9Wj8afoZvfpltH/cPnVl+R6teFqv+KDmbcH/5ZVfUHwF5W66kNwzD/tMthPC3orTkCW3XYmXZq58BW5e17llQ+jpmueezvUtWBK7+anIOwtfPY2N9ybL8icNyumTapL1PlJ9x+avAVsR21zmMAK07brI9a2a61oJgi8D+G8b5gH2OnCXrNznybx2e4/WXBLQGPL/Dlfo5RAABBBBAAAEEEEAAAQQQQAABBBBAAAEEEEAgZQTiHP0ahrFx48Zhw4a1b99e/jf6fv36LV26NJK+9pzSVbN6UT12JTruaES5ZWYwMnCSKelWWZMj15VCWQeuTMgdgZgJqBXYuFbgWTGqM6pxlmwp+rV2b5ZBiFVDYa67IS8zKweyCsvUVj21HpKFlVvOwMbtIJNvaxmxwqJG1DIMk/3xcJkdzs13cVntcWCUlZWdfvrp48aNi7FFqkW/1vdcT/kCnHuyQy1b1VeUml9128fz4+bVrueWfUYDZJ/2gj7OtO55fpPULLTvYW3+qNobulbu9hzUqt9N83y8lNc2bs+JbZgBfNyjsffK9rZjbXS+/1ZKi9FvY8m8K71fKezpsO1I/UsD7h7yJwIIIIAAAggggAACCCCAAAIIIIAAAggggAACKSMQ/+hXUjY0NKxbt66qqiryskpO6alcvageBxP9auU9lVpHatyrHpuLh3OV/U6VxcQtRb9KKKumqlaT+oHZSTNylrmLlRg58mw5tOcpZ46lhDrKomFXIeWKRyDQcKxGPa1wpAiUlZV1796d6Fd+URUY78OAq369Ilhb1Of7JL7Rr/11ud7DVa5o4ajyM6Xv+Tz8heJ5w5TRXrPQWk4eIHw1m6pweL9NV4gsc8/tC0ZN9NrwWfkt0epVv3lKh4UIK/qtcOT5WOqblZ2dfVr/Ubd6bfhM9Kt8uzhEAAEEEEAAAQQQQAABBBBAAAEEEEAAAQQQSD2BRIl+oyjrySmVRtSL6nEw0a9hxrS+8ipbQOUOaezRr8+YykwjWop+1cTCVYlnSa4yMOehWUC9a3bM2R89qfU8qD1innriMVnMExtbYq6e2PMb2VWzjNDXUHraS/ejioqKXr16seGz/Oq4f1j8fStsP1nmIz5+HGRN5r8HP1BQsDjwP8XWS3m1bFX/xrq+xp7KPcGn15d/+AtWrbaBFD+krUnVf7Jspe0nWvdsUFrf8iaqK5SvXWQlv9pqYNu6W8Mw9Hfxnj2xYJPnWfmryTN+ZfsBs6daH7S7zrEECJ610Qk/b0EOBPih9qLnHhMXl9Qru0brravfHDs1ZwgggAACCCCAAAIIIIAAAggggAACCCCAAAIIpIAA0a/+5lrnrsXu3NQMNlw5jZlS2GIDVxwlwxgZMLhjITXuVY/lXtA+g59Qol/5vXOFLu6uKl9GszO2rsrVxs74Rr/ufiz86NfncFzVunOXQGXcPUijP+vr6wcOHDhgwICamprYDzvVNnyuWThKTSaF6DG9JHhVPX10/7y7aggUbTom2tsVykJbpQMl086wl7sgv1S5HfhQ654t+m30SsQ97Xh2e25pw+fiabZgOnvaOnuPGgvURNn82xzW245bHf3qqbPoMe1ze+uGYTQW64DKHGmpcPZDxdrzBeM9KOaRv1+A2mOcIoAAAggggAACCCCAAAIIIIAAAggggAACCCCQnALxjH6rqqpefPHF22677dJLLx2qfMaNG/fUU0/t3LkzMqTOxXm2uEK+udbKAJR812xRDUGVW17Rr1nWjDbNrZjt+a7tVLtlpjVaZ5zD1IoZZnPuTZ59Nu3zKedFq1fyzPVvZwrrP4JVR20+4d1P5YqHRbloa009CaaMWj7FjxsbG6+44oqcnJzKysq4DDXVol+j3LbRsRAiK7egIlhaLVu1/qqH6/lA0a++5bIQXXIL9YZLZvW3Z49+dlz301+te7bo1/UGbq1656k9hHb/DQyrpPr3RcwfT+WT89gmW1fKXxiu3DUPbb++Avm46gnQev0iLbUX4oL8EmXNrmHUlzyhA6pzpPs8YU/9d8/Te2/92reNkhMEEEAAAQQQQAABBBBAAAEEEEAAAQQQQAABBFJEIG7Rb1FR0amnnqqFCuppp06dnn766ebm5tZLO+MBJfU04wol/NBST/XUk3E6s1gZGxTmWuGHO/pV7so82LXBstl3s3Ulb9A6UzorN3+rWcwWzcpAxU/068izxqIHxi4rcwi2hEk2mqvEybqqOmrnPWd/PEpmDe7+OHd5dfXBz3BK8/OspY1EvzbsSZMm9ezZc9++fbarMTxJuejXqPBOELsMnry4pEJdU11TUbquID+v/+AnbWtunV9g9ReP9cPlnJLA0eaHd3m/ZjYnL3/hipLy8vKSFQvz83LUqp3Hoxbq6XCgude6p0W/xgptu2NXa+puz+7fLWpHPD/XhqGvXe4yYnaxdKuvKFlwrW1JsLMO67ef2e/APs6RBYh+jZqF16r9kse9c/P/urzEBJw9+b+927dtI++4yf58l+GzN8jdqusrPp/no/fKr+JA7txDAAEEEEAAAQQQQAABBBBAAAEEEEAAAQQQQCA5BeIT/f7rX/8SQnTs2HHKlCkLFy4ssn/+8Y9/PP744127dhVCTJ8+PSKw9vjBnu54Fs85r6shqJ/o15M2WGmoc5msvJ4zy5HfR0lenUGs+m5gW5zjiSLMHNf1yXOYHXZXbpb3FHNmye6CehTkwbIt5rOKuZvWBWxrnd2V2NCUDqjRryvbdvfH3U9lLNoyQXflafvn8uXLd+3aFcfhp170azSW5F9gfQVbOLB+FuQUuH8irKfsPxotRJsVjjzv8NeqyseBv/cB+/s+aN3TOm80LveV/dp2e24p+vVaM+2j17ZLkYx+DaP4oR622oM68cyR96LkFipQf4/5Q+c6AggggAACCCCAAAIIIIAAAggggAACCCCAAAJJKxCH6Hf//v0nn3xyp06dSktty+80w7q6uvPOO08IsWrVKu0WpwggELZACka/hmFUOHKDC2G19FTLVtXNhE3hFqJfw2gsmTciuIaF6P9EiVyRGvzcad3TOm8YxvI7svSw077bc0vRr1FfmOtVhafKLnm52qbMkY1+W47tu+TmP6AtnvZEv0aNI2Dvc3Ov9IzFPCL6Df7LR0kEEEAAAQQQQAABBBBAAAEEEEAAAQQQQACBJBSIQ/T75ptvCiEefvjhFrmWLVsmhPi///u/FktSAAEEghRIzejXTH9X51/pc39gW/g3+Gnb3zjRstWQo1/DMBorVs8a1ULDWf0nLwtlo2f3XGrd845+vfd81nZ7bjH6NYyK5ZN8L73tMmJeSaNt/4DIvuvXNcqK1dMG2ebIc9Jl+LxNcjN8zzVtjipW3OWn9+azGiDRr/ubxZ8IIIAAAggggAACCCCAAAIIIIAAAggggAACqSkQh+j3scceE0IsWbKkRdE9e/YIIa688soWS1IAAQSCFEjZ6Nc5/vqty2dPH9X/tGx1JWuX07JzhuVOm+MoLteX3erRoFBWlAaz6tdCry9dPmda7rCcbGUNcFZ2dv8x02avKKlvtMqFdqB1z0f0a6y27/ms7/YcRPRrdqniw9kTh+V0yZQJa1b2Bbn5y0qdWNGPfs3260uX5SsdEF1O6587yyF7YNt53uygfY4Mw/h29exbh+e45bOyPc9qgES/oX3/KI0AAggggAACCCCAAAIIIIAAAggggAACCCCQbAJxiH5vv/324LdxzszM7N27d7Kp0l8EElcg/tFv4trQMwQQQAABBBBAAAEEEEAAAQQQQAABBBBAAAEEEEAgiQXiEP3eeuutwUe/7dq169mzZxID03UEEkyA6DfBJoTuIIAAAggggAACCCCAAAIIIIAAAggggAACCCCAAAKREYhD9HvPPfcIITZs2BDMCI4//vh+/foFU5IyCCAQjADRbzBKlEEAAQQQQAABBBBAAAEEEEAAAQQQQAABBBBAAAEEkk4gDtHvjh07nnvuuebm5mCwCgsLV69eHUxJyiCAQDACRL/BKFEGAQQQQAABBBBAAAEEEEAAAQQQQAABBBBAAAEEEEg6gThEv0lnRIcRSCUBot9Umk3GggACCCCAAAIIIIAAAggggAACCCCAAAIIIIAAAghYAkS/FgUHCKSFANFvWkwzg0QAAQQQQAABBBBAAAEEEEAAAQQQQAABBBBAAIH0EyD6Tb85Z8TpLUD0m97zz+gRQAABBBBAAAEEEEAAAQQQQAABBBBAAAEEEEAgZQWIflN2ahkYAj4FiH59snARAQQQQAABBBBAAAEEEEAAAQQQQAABBBBAAAEEEEh2AaLfZJ9B+o9AaAJEv6F5URoBBBBAAAEEEEAAAQQQQAABBBBAAAEEEEAAAQQQSBIBot8kmSi6iUCEBIh+IwRJNQgggAACCCCAAAIIIIAAAggggAACCCCAAAIIIIBAYgkQ/SbWfNAbBKItQPQbbWHqRwABBBBAAAEEEEAAAQQQQAABBBBAAAEEEEAAAQTiIkD0Gxd2GkUgbgJEv3Gjp2EEEEAAAQQQQAABBBBAAAEEEEAAAQQQQAABBBBAIJoCRL/R1KVuBBJPgOg38eaEHiGAAAIIIIAAAggggAACCCCAAAIIIIAAAggggAACERAg+o0AIlUgkEQCRL9JNFl0FQEEEEAAAQQQQAABBBBAAAEEEEAAAQQQQAABBBAIXoDoN3grSiKQCgJEv6kwi4wBAQQQQAABBBBAAAEEEEAAAQQQQAABBBBAAAEEEPASIPr1IuECAiktQPSb0tPL4BBAAAEEEEAAAQQQQAABBBBAAAEEEEAAAQQQQCB9BYh+03fuGXl6ChD9pue8M2oEEEAAAQQQQAABBBBAAAEEEEAAAQQQQAABBBBIeQGi35SfYgaIgE2A6NfGwQkCCCCAAALQH//5AAAgAElEQVQIIIAAAggggAACCCCAAAIIIIAAAgggkCoCRL+pMpOMA4HgBIh+g3OiFAIIIIAAAggggAACCCCAAAIIIIAAAggggAACCCCQZAJEv0k2YXQXgVYKEP22EpDHEUAAAQQQQAABBBBAAAEEEEAAAQQQQAABBBBAAIHEFCD6Tcx5oVcIREuA6DdastSLAAIIIIAAAggggAACCCCAAAIIIIAAAggggAACCMRVgOg3rvw0jkDMBYh+Y05OgwgggAACCCCAAAIIIIAAAggggAACCCCAAAIIIIBALASIfmOhTBsIJI4A0W/izAU9QQABBBBAAAEEEEAAAQQQQAABBBBAAAEEEEAAAQQiKED0G0FMqkIgCQSIfpNgkugiAggggAACCCCAAAIIIIAAAggggAACCCCAAAIIIBC6ANFv6GY8gUAyCxD9JvPs0XcEEEAAAQQQQAABBBBAAAEEEEAAAQQQQAABBBBAwK8A0a9fGm4gkJICRL8pOa0MCgEEEEAAAQQQQAABBBBAAAEEEEAAAQQQQAABBBAg+uU7gEB6CRD9ptd8M1oEEEAAAQQQQAABBBBAAAEEEEAAAQQQQAABBBBIGwGi37SZagaKgFOA6JcvAgIIIIAAAggggAACCCCAAAIIIIAAAggggAACCCCQkgIxjX73799/xx13nHnmmRkZGSLozymnnHLttddu3LgxJSeAQSEQYwGi3xiD0xwCCCCAAAIIIIAAAggggAACCCCAAAIIIIAAAgggEBuBmEa/d955pxCiTZs2F1988dCgP507dxZC9O3bt7m5OTYo/5+9u4+xrC7vAP5jXdhVEVjlxYCC0C44ZEsl61ohRKBpKbQIjUHFsWtMKIjVNVqLNlW7qKWY7YCUGGhDtbRUTN/SZrMjtkCpBQpNoFKsFt1mdGkWyhYE3JJdu8ueeu7LuefcuTNzZ+be8/q5f7D3nvt7ez7P+NfXc65dCNRYQPRb4+YqjQABAgQIECBAgAABAgQIECBAgAABAgQIEGiyQK7R75o1a1auXLl9+/ZFie/evXtiYiKE8Nhjjy1qosEECMwWEP3ONnGFAAECBAgQIECAAAECBAgQIECAAAECBAgQIFADgfyi3z179oQQ1q9fH0XRD3/4w9/7vd/b3H19+ctfTijvu+++7uXNn/nMZ2ZmZn48/td//ddDCF/72teSYd4QILA0AdHv0tzMIkCAAAECBAgQIECAAAECBAgQIECAAAECBAiUXCC/6PeFF14IIWzYsCGKottvv73vp36ff/75ttRpp52W/ur9739/FEVXXXXVj+dOT0+XXNPxCJRfQPRb/h45IQECBAgQIECAAAECBAgQIECAAAECBAgQIEBgCQLFRL9f/OIXQwjnnXfe5s2bTzrppBDCzp0726dfu3btihUrNm/efMUVV4QQNm7cmF/0u31qIoTJrQswTm8MYd1UfDPyWF9bJ0OYmFrcs7HHeqD24jNT60LYOF8GH/vMOyCHU5Z5i23btu3YsaPAE4p+C8S3NQECBAgQIECAAAECBAgQIECAAAECBAgQIEBgfAJFRr/XXXddFEU///M/3xf9HnzwwVEUPfzww6OJfluB7lxhbZxTJglrQ6LfOFTuvCa2LDbCFv0u93+MH/zgB08++eRdu3Ytd6Glzhf9LlXOPAIECBAgQIAAAQIECBAgQIAAAQIECBAgQIBAqQUaEv1OTKwbeAftdCsFHfhVqdvWPVx8/gVvU+4Obv+bmhJH3QvWHme9i0qIF33XbxxFT853H3G2gKp/2r9///nnnz8xMfHcc88VUovotxB2mxIgQIAAAQIECBAgQIAAAQIECBAgQIAAAQIExi3QnOh3wFOIZ7ZMhI2TkwvHn+PuwpLXT+W4Q64Rx71JzhrHugslx6LfIWUXMWzPnj1vetOb1q9fv3v37kVMG9FQ0e+IIC1DgAABAgQIECBAgAABAgQIECBAgAABAgQIECiXQFOi36mt6ciz3YN28Dndi37Td8G2b0VtPQK6/XDkJCJd4K7Wzj2s7fuJ46m9W2bb68cnCb37XFOPX848lTp7L2ycUndfnZOkJ3bv/W09v7ozLjlw9i8ulRant9g6mdm9PSdVfreQ/iQ4fbD2T/ymfdrfJgKp43XuNk5dSUziLbqvBW9KzhZXnU/PPvvsKaec8uY3v3nPnj05n1r0mzO47QgQIECAAAECBAgQIECAAAECBAgQIECAAAEC+Qg0JvrdHk1vTKWwURR1ws55ot+QpKGtCLNzs2w62hzQpE4i272ztpWedrLPdpK6bir5fd3Wsr10s5WDdiemctl4WDKrtUg31k3luFGUGbZ1sjtm1hmTQDdZs6cxa3DUl/VmPmYOHE1Pbowf29zziUvIVtcaEO+R/ipVaWZ6XNHk1PbZR6rJlZ07dx5//PGXXnppzvWIfnMGtx0BAgQIECBAgAABAgQIECBAgAABAgQIECBAIB+B0kW/r3/967t3fMb/vve9742i6KqrrgohTE8v6Qdh46SzFUBmb2yd3th+1vE80W8vtoyiXsjaizYHtigdarYG9BLZTGobp5yzfqk3daUXiKZO2FowdYDU+HTmOvBg7YvxsnEE3kqde1l4fy7eWyGT9UbpJDiB7Q2O33WO19qoFz/Hg7updjwqtWyv0uz17LL1+7Rz584TTjhB9Fu/zqqIAAECBAgQIECAAAECBAgQIECAAAECBAgQIFCIQOmi3y984Qtnd18/+7M/e9ddd40s+m3FjZ0wspdEpoLVdJaZySMzMW0qeY3zy+TVWbl/YvsO11bqmV4/iqLeGXqt70WwyTrxsFmvzu2zmei3tWAc7M55p2zfAVrZc+uO5BRC7yztd6mMNr6Q+piN0pN5sc+6iYnuM6g71+Ny+l+dm6GTSttDOyPTOXGydn3ePPvssyeffLIHPtenoyohQIAAAQIECBAgQIAAAQIECBAgQIAAAQIECBQtULrodyDIaO76bT9nuBWazmyZ6P4AbSr1TCejfXlk6g7dVPQ76LD9E0cS/c6Vg2aj3/ZxOtHpgAA4vtM3eeRy5+zxCvGr/3pSWirrja+lPi4U/XaFW0vNMTj+brZY++HV8bHmKjw5XiXf7NmzZ8OGDevXr9+9e3f+BXjgc/7mdiRAgAABAgQIECBAgAABAgQIECBAgAABAgQI5CDQsOg3Ti4nprZPT/YyxbFHv72oOB0tx72dHdymrvQC0dTF/r+Iub5KBbSpKb1HT/dd7Gmkvui87Vsq9bG/nM6ETr3xt70HSrfuSB6QRsdzepX27T5XdX3DKvZx375955133sTExHPPPVfI0UW/hbDblAABAgQIECBAgAABAgQIECBAgAABAgQIECAwboFiot8vfelLIYRf+7Vfu+eee974xjeGEJ544ol5Sh3ZXb+t20kn1iW3/Lbz124kmc4y+/PIXgzZi3IHnjieGMK6qZn2t62PqadMd/dqfdv6wd3elXjlzMTOPa/x9VQ6O7NlsvtI51QQG//IbnKPbOZ675h9cWz7d3nD5GR6397ozrtsvZmVswebnmzdOtwbn9kuntirLn3aNHs0M7WxSzcgGp91uApe2LRp09q1a3ft2lXU2UW/RcnblwABAgQIECBAgAABAgQIECBAgAABAgQIECAwVoFiot9bb7219ZTh3n/++7//e546Rxj9tu617aWtmY/pDHJZ0e/kdDsAbtXXyX07P+6b3jquuJX+dh3ST13OHqAVss41LL4+uTVKj8k8bDkjG2fYySsZ1p2bhMepOa0EN/4N4S0zmQc+t4Z0J3bOEGfpG1OPj247dPLsVvrb3TvZujOltcB064HS3SFxUfV73X333Tt27CiwLtFvgfi2JkCAAAECBAgQIECAAAECBAgQIECAAAECBAiMT6CY6Pf73//+L/7iL57dff3qr/7q/BUuK/qdf+mRf5uNbJe+/Dw/jrv0Rc0kEIl+/REQIECAAAECBAgQIECAAAECBAgQIECAAAECBGopkF/0e+DAgZe+9KWHH374gQMHFkv51re+NYTw4IMPLnZiAeNHFP0O/F3eAsqxZe0ERL+1a6mCCBAgQIAAAQIECBAgQIAAAQIECBAgQIAAAQKxQH7RbxRFZ555Zgjhggsu+NSnPrV56Nd73vOeQw45ZPXq1bt3765A00YT/fZ+WrgCJTtipQREv5Vql8MSIECAAAECBAgQIECAAAECBAgQIECAAAECBIYVyDX6ffjhh1/1qlclv+Q6/JuVK1fedtttw9ZU7LhlRr+ZH9YtthK711NA9FvPvqqKAAECBAgQIECAAAECBAgQIECAAAECBAgQaLxArtFvFEW7du26Z/Gv7du3N75TAAiMRkD0OxpHqxAgQIAAAQIECBAgQIAAAQIECBAgQIAAAQIESiaQd/RbsvIdh0DjBES/jWu5ggkQIECAAAECBAgQIECAAAECBAgQIECAAIFmCIh+m9FnVRLoCoh+uxL+JUCAAAECBAgQIECAAAECBAgQIECAAAECBAjUSkD0W6t2KobAggKi3wWJDCBAgAABAgQIECBAgAABAgQIECBAgAABAgQIVFFA9FvFrjkzgaULiH6XbmcmAQIECBAgQIAAAQIECBAgQIAAAQIECBAgQKDEAqLfEjfH0QiMQUD0OwZUSxIgQIAAAQIECBAgQIAAAQIECBAgQIAAAQIEihcQ/RbfAycgkKeA6DdPbXsRIECAAAECBAgQIECAAAECBAgQIECAAAECBHITEP3mRm0jAqUQEP2Wog0OQYAAAQIECBAgQIAAAQIECBAgQIAAAQIECBAYtYDod9Si1iNQbgHRb7n743QECBAgQIAAAQIECBAgQIAAAQIECBAgQIAAgSUKiH6XCGcagYoKiH4r2jjHJkCAAAECBAgQIECAAAECBAgQIECAAAECBAjMLyD6nd/HtwTqJiD6rVtH1UOAAAECBAgQIECAAAECBAgQIECAAAECBAgQaAmIfv0hEGiWgOi3Wf1WLQECBAgQIECAAAECBAgQIECAAAECBAgQINAYAdFvY1qtUAItAdGvPwQCBAgQIECAAAECBAgQIECAAAECBAgQIECAQC0FRL+1bKuiCMwpIPqdk8YXBAgQIECAAAECBAgQIECAAAECBAgQIECAAIEqC4h+q9w9ZyeweAHR7+LNzCBAgAABAgQIECBAgAABAgQIECBAgAABAgQIVEBA9FuBJjkigREKiH5HiGkpAgQIECBAgAABAgQIECBAgAABAgQIECBAgEB5BES/5emFkxDIQ0D0m4eyPQgQIECAAAECBAgQIECAAAECBAgQIECAAAECuQuIfnMntyGBQgVEv4Xy25wAAQIECBAgQIAAAQIECBAgQIAAAQIECBAgMC4B0e+4ZK1LoJwCot9y9sWpCBAgQIAAAQIECBAgQIAAAQIECBAgQIAAAQLLFBD9LhPQdAIVExD9VqxhjkuAAAECBAgQIECAAAECBAgQIECAAAECBAgQGE5A9Duck1EE6iIg+q1LJ9VBgAABAgQIECBAgAABAgQIECBAgAABAgQIEMgIiH4zHD4QqL2A6Lf2LVYgAQIECBAgQIAAAQIECBAgQIAAAQIECBAg0EwB0W8z+67q5gqIfpvbe5UTIECAAAECBAgQIECAAAECBAgQIECAAAECtRYQ/da6vYojMEtA9DuLxAUCBAgQIECAAAECBAgQIECAAAECBAgQIECAQB0E8ot+v/3tb+/bt28es7179z788MPbt28/cODA7GG7d+9+4IEHBn41e7ArBAjMJSD6nUvGdQIECBAgQIAAAQIECBAgQIAAAQIECBAgQIBApQVyin6/+c1vhhCuvfbaubCuvvrqVatWhdbruOOOu+uuu6Ioevrpp//qr/7qIx/5yOmnn75ixYoQwi233DLXCq4TIDCMgOh3GCVjCBAgQIAAAQIECBAgQIAAAQIECBAgQIAAAQKVE8gp+r377rtDCJs2bRoI9K1vfSuEsHLlyksvvXTDhg0hhCOOOOLUU09tJ8EhhIMOOui000770Ic+9J//+Z8DV3CRAIEhBUS/Q0IZRoAAAQIECBAgQIAAAQIECBAgQIAAAQIECBColkApot8bb7wxhLB58+a23Stf+cp2EnzWWWd97GMfm56efv7556vF6rQESisg+i1taxyMAAECBAgQIECAAAECBAgQIECAAAECBAgQILAcgVJEvzfccEMI4XOf+1y7kp/+6Z8OIWzfvn05hZlLgMBAAdHvQBYXCRAgQIAAAQIECBAgQIAAAQIECBAgQIAAAQJVFyhF9Hv//feHEI455phNmza94Q1vCCEcffTRBw4cqDqu8xMooYDot4RNcSQCBAgQIECAAAECBAgQIECAAAECBAgQIECAwPIFShH9RlG0adOm5Jd9Qwhnnnnm8muzAgECswVEv7NNXCFAgAABAgQIECBAgAABAgQIECBAgAABAgQI1ECgLNFvFEX333//1NTU5z//+SOPPDKEcOONNxbmu31qIoTJrfPtP70xhHVTM/MNKei7rZMhTEwN/bTs8hZSkF/ttxX91r7FCiRAgAABAgQIECBAgAABAgQIECBAgAABAgSaKVCi6DdpwH333bdixYqDDz74kUceSS4u600ryk3uKp7YslBiK/pdFrfJpRYQ/Za6PQ5HgAABAgQIECBAgAABAgQIECBAgAABAgQIEFiqQBmj3yiKrr322hDCmjVrLrzwwne+85033njj//7v/y6xxr67YLdPTS4Y/S5xp/mnTU8udCdxdv7M1LqwcEodRVFc4OR0dvI8n2a2TJT0fuV5Du2r0QmIfkdnaSUCBAgQIECAAAECBAgQIECAAAECBAgQIECAQIkEShr9Hjhw4OUvf3lyn24I4aKLLloa2/TG4QLUpa2+iFmi30VgGTo+AdHv+GytTIAAAQIECBAgQIAAAQIECBAgQIAAAQIECBAoUKCk0e+9994bQjjqqKPuu+++r3/96+1f/33iiSeWIDXnb9luncze/JqKZuMHPrd+LnfWDbXJLbPxshsH32obj+m+Oj8YHK/Tew34FeH0I6nXTc2kP4Ykuo5P2H11bvONj9F7tS6mz5xeJ/5l4vhO4t6r9VvFfYWkDj8xtbXrEEXx9XS9CVGrJalZ6d9ITm+3iJ8fXkKXTRleQPQ7vJWRBAgQIECAAAECBAgQIECAAAECBAgQIECAAIEKCZQx+j1w4MDHP/7xEMJVV13VpvyVX/mVEMK99967JNl2YjrrkcjDRL9RKg+O9+597EtMk4PFIWgrUo2vtJLXbtDbm5sM7r5JfzUztXGq9VvE/Q98ntkyObW9MyPePdklnfVmnv88cNlWiJvMjaJ0Ia0EN4GKp4d2BD5v9DtXydmVe4fvVu3fYgREv8W425UAAQIECBAgQIAAAQIECBAgQIAAAQIECBAgMGaBwqLfBx988IILLlizZs3RRx990UUXPfLII1EUfec73/mt3/qt1772te07U88999x2+WeccUYI4dFHH12yRhxDxq8k12z9RG4qAU3Huq3ItnOXajq/TP+qbuZ671jTk92stH0tNSwdxPYmxO+yd9B2v+uPfrvXW/+m4970+3T0O3jZeaLfWSdMrRDnu4Pv+p2r5HnPnynGh1wFRL+5ctuMAAECBAgQIECAAAECBAgQIECAAAECBAgQIJCXQDHR7969e1/96leHEI488sjDDjsshPDqV7+6ne+GENasWXP55Ze/9KUvje85nZg4/vjjQwgnnHDC//3f/y2TpR0A9x7CPET028plO4Fx+meDU5lu6lCt23zbIXPvv53EdFawmprXPlgmW209nHliS+sG4O7I1l25ycLdGHuu6Ld9R2/ofzB15ibd9F2/8eG7a7Z3HCb6nafk+GDZuL1biH8LFBD9FohvawIECBAgQIAAAQIECBAgQIAAAQIECBAgQIDA+ASKiX7vuuuuEMLZZ5+9d+/eF1544dhjj23nmT/zMz9z66237t27N4qiO+6444gjjmhfP/744x9++OGRKPSCz6Ee+BxFrQi2lRZnbm+dO/rNpqe9Q88X/bZGdX8ZtxMV9901G08f/JDnuaPfQcvOfdfv0qPfuUqO9+/G1fON6SF5N34B0e/4je1AgAABAgQIECBAgAABAgQIECBAgAABAgQIEChAoJjo98///M9DCB/72MfaFb/97W//8Y2/f/AHf5AHQBKUJm/au7buXu3cEJy627UTXm6cjp/2nLpLeHD0m/ox4Fm1LBj9tmb0TpWNfnvX+4a1nlydvlu3b2T7HKmLvfC79VWvkLRAb1bnwdd9s1rPvm5/NUxdw4xpb+m/YxcQ/Y6d2AYECBAgQIAAAQIECBAgQIAAAQIECBAgQIAAgSIEiol+v/GNb4QQXve6133lK1+59dZbjz766BDC448/Pg6B6Y3p+01bd9amnsDcfaJy547bgdFv62eAJyc3hs63rVP2EtPsoePrqSB2Zsvk1Pb2iGyUm561fWoyebBzKqPNbJFJo1t3ACe7ZL5KJcFzLJv+xeIo/cDnzgOiE672Lp3ot/Xg60Qg89UcJc9MbZzqPq5a9Jvud8HvRb8FN8D2BAgQIECAAAECBAgQIECAAAECBAgQIECAAIHxCBQT/UZRdPHFF7cf5tz+7+WXXz6eAqNWMNnbqpv1tnaLc9b2a2Jqeyqe7AtT+zPReG4ml80ePbNjJ2bObJeOkOMvWrfbdk+SJK+96+0zd5+c3IqWUwlx5zDx/Nbc5Ku5lm09wjoe3rqJua+Q1OEnp7MOmQNkv0rNSn5auJOmt+vqLzkr5lOeAqLfPLXtRYAAAQIECBAgQIAAAQIECBAgQIAAAQIECBDITaCw6Hf//v3XX3/9L//yL7/jHe+4+eabDxw4kFvNNhpWIJvvDjvLuHILiH7L3R+nI0CAAAECBAgQIECAAAECBAgQIECAAAECBAgsUaCw6HeJ5zUtTwHRb57aee0l+s1L2j4ECBAgQIAAAQIECBAgQIAAAQIECBAgQIAAgVwFRL+5cldsM9FvxRo21HFFv0MxGUSAAAECBAgQIECAAAECBAgQIECAAAECBAgQqJpATtHvP/zDP4QQ3va2t92zjNc///M/v/jii1UTrvJ5Rb9V7t5cZxf9ziXjOgECBAgQIECAAAECBAgQIECAAAECBAgQIECg0gI5Rb8PPPBAGMXr5ptvrjS3wxMoXED0W3gLHIAAAQIECBAgQIAAAQIECBAgQIAAAQIECBAgMA6BnKLfffv23XDDDZuX9/rd3/3dp556ahwK1iTQHAHRb3N6rVICBAgQIECAAAECBAgQIECAAAECBAgQIECgUQI5Rb+NMlUsgTILiH7L3B1nI0CAAAECBAgQIECAAAECBAgQIECAAAECBAgsWUD0u2Q6EwlUUkD0W8m2OTQBAgQIECBAgAABAgQIECBAgAABAgQIECBAYCEB0e9CQr4nUC8B0W+9+qkaAgQIECBAgAABAgQIECBAgAABAgQIECBAgEBHQPTrT4FAswREv83qt2oJECBAgAABAgQIECBAgAABAgQIECBAgACBxgiIfhvTaoUSaAmIfv0hECBAgAABAgQIECBAgAABAgQIECBAgAABAgRqKSD6rWVbFUVgTgHR75w0viBAgAABAgQIECBAgAABAgQIECBAgAABAgQIVFlA9Fvl7jk7gcULiH4Xb2YGAQIECBAgQIAAAQIECBAgQIAAAQIECBAgQKACAqLfCjTJEQmMUED0O0JMSxEgQIAAAQIECBAgQIAAAQIECBAgQIAAAQIEyiMg+i1PL5yEQB4Cot88lO1BgAABAgQIECBAgAABAgQIECBAgAABAgQIEMhdQPSbO7kNCRQqIPotlN/mBAgQIECAAAECBAgQIECAAAECBAgQIECAAIFxCYh+xyVrXQLlFBD9lrMvTkWAAAECBAgQIECAAAECBAgQIECAAAECBAgQWKaA6HeZgKYTqJiA6LdiDXNcAgQIECBAgAABAgQIECBAgAABAgQIECBAgMBwAqLf4ZyMIlAXAdFvXTqpDgIECBAgQIAAAQIECBAgQIAAAQIECBAgQIBARkD0m+HwgUDtBUS/tW+xAgkQIECAAAECBAgQIECAAAECBAgQIECAAIFmCoh+m9l3VTdXQPTb3N6rnAABAgQIECBAgAABAgQIECBAgAABAgQIEKi1gOi31u1VHIFZAqLfWSQuECBAgAABAgQIECBAgAABAgQIECBAgAABAgTqICD6rUMX1UBgeAHR7/BWRhIgQIAAAQIECBAgQIAAAQIECBAgQIAAAQIEKiQg+q1QsxyVwAgERL8jQLQEAQIECBAgQIAAAQIECBAgQIAAAQIECBAgQKB8AqLf8vXEiQiMU0D0O05daxMgQIAAAQIECBAgQIAAAQIECBAgQIAAAQIEChMQ/RZGb2MChQiIfgthtykBAgQIECBAgAABAgQIECBAgAABAgQIECBAYNwCot9xC1ufQLkERL/l6ofTECBAgAABAgQIECBAgAABAgQIECBAgAABAgRGJCD6HRGkZQhURED0W5FGOSYBAgQIECBAgAABAgQIECBAgAABAgQIECBAYHECot/FeRlNoOoCot+qd9D5CRAgQIAAAQIECBAgQIAAAQIECBAgQIAAAQIDBcoS/T7//PP/8i//snPnzoGndJEAgVEJiH5HJWkdAgQIECBAgAABAgQIECBAgAABAgQIECBAgECpBIqPfvfv33/JJZeE7usNb3jD9773vVIZOQyBOgmIfuvUTbUQIECAAAECBAgQIECAAAECBAgQIECAAAECBBKB4qPfP/qjPwohvOIVr7jssstOOOGEEMJ73/ve5HzeECAwWgHR72g9rUaAAAECBAgQIECAAAECBAgQIECAAAECBAgQKIlAwdHvnj17fuEXfiGEcMcdd0RR9Mwzzxx88MHHHnvsk08+WRIgxyBQMwHRb80aqn6u1PQAACAASURBVBwCBAgQIECAAAECBAgQIECAAAECBAgQIECAQFugyOj3wQcf/Mmf/MkQwoknnrhnz572gS699NIQwuGHH37bbbdpEgECIxcQ/Y6c1IIECBAgQIAAAQIECBAgQIAAAQIECBAgQIAAgTIIFBb9PvTQQy972ctCCOecc87OnTsTiz179nzoQx866KCDQgg333xzct0bAgRGIiD6HQmjRQgQIECAAAECBAgQIECAAAECBAgQIECAAAECZRMoJvqdmZk5/PDDQwif/exnB4ps27Zt9erVIYStW7cOHFDYxe1TEyFMpg41vTHEr3VTM1snQ5iY2r78o81MrQth4/TyF7ICgdkCot/ZJq4QIECAAAECBAgQIECAAAECBAgQIECAAAECBGogUEz0e/nll8+T+7ZZ//Ef/zGEcOqppx44cGBZ0K2wNo5ms6vMbJmYfTE7ZNCnbPSbWUT0OwjMtbIJiH7L1hHnIUCAAAECBAgQIECAAAECBAgQIECAAAECBAiMRKCA6PeJJ5445JBDDjvssBdeeGH+Gt7ylreEEP72b/92/mELfNuOfkOY2JIJfzOp7XxLTE9mb/NNj41v+R3B7bnxbb59x0vv4j2BEQqIfkeIaSkCBAgQIECAAAECBAgQIECAAAECBAgQIECAQHkECoh+v/SlL4UQrrzyygUV/vRP/zSEcNllly04cr4BcfQ7MbWl/2nMot/50HxXXwHRb317qzICBAgQIECAAAECBAgQIECAAAECBAgQIECg0QIFRL+f/OQnQwi33HLLgvDf/va3QwjnnnvugiPnG9COfrdH8R26qcc+90e/8eOau69kWPpi+97f7mpRFN8NnLzie3bjwZOpX+hND+j8BnC8affVuc23e1Ny+3LrYt9NwK2f/u3OSv3McGdY58eG2783nECkTz6C+5KTdb2pvIDot/ItVAABAgQIECBAgAABAgQIECBAgAABAgQIECBAYJBAAdHvFVdc8eNA9+tf//qg82Su7d+/f8WKFa9//eszVxf7IRvWJs9VTke/rUS2k85GUSsk7oW42Qc+91aLz5F54HM6+m0Fuqm9Jqe2x8MnkxS2NaCb4w7IertzW/lxdlb3q04k3F0kHtn5KnPI1KaLpTO+jgKi3zp2VU0ECBAgQIAAAQIECBAgQIAAAQIECBAgQIAAgaiA6Pfyyy8PIdx///3D8B988MFr164dZuScY9I5aJzOpm7A7dzdmw1344XSV9Lvoyi92tzRbyYSHnyydNybfh9FUe9jOp9uL5O60op+k1Q4inpfpUPowbu72lwB0W9ze69yAgQIECBAgAABAgQIECBAgAABAgQIECBAoNYCDYt+22FtK/HtBaVxmpt+UHPc8OmN3TtoMzHwkNFvHMp2b8bt+/OJg+Tklb5/t/s+E/2mjtFdp3faXkLc/q5XUSs8DslNwN2p/iUQ/3k9/gQHAgQIECBAgAABAgQIECBAgAABAgQIECBAgACB+gk0Lvpt39E7sWWmF5T2wtRef1OZ6xLu+h0c/cY7tn8wON4nHdym32e+Sh2je7beaftmpe767YztxMypULm7iH8bLCD6bXDzlU6AAAECBAgQIECAAAECBAgQIECAAAECBAjUWaCA6PfMM88MIezYsWMY1xNPPHH16tU//OEPhxk8eEyclfZ+xzce037s85bJkOsDn/uS2vTH9PtM9NvLp7u1pa70zZod/cZzUuO7S/i32QKi32b3X/UECBAgQIAAAQIECBAgQIAAAQIECBAgQIBAbQXyjn4fe+yxEMJZZ501pOhv/uZvhhC++MUvDjl+wLDZ0W/7sc8hdKPfVj6aiofjX+rtpMKZIDZePLta5jd907+wGw9LHhkdzWyZnNoeP0Q6dH+at30HcHI/bvqr7A3BrTt3u7NauyePkp47+t06mTxuWvQ74E+i2ZdEv83uv+oJECBAgAABAgQIECBAgAABAgQIECBAgACB2grkGv1+97vffc1rXhNCuPLKK+9pvf76r/9669at7ffJf//+7//+tttua3/8whe+EEJYvXr1tm3bltiEbFjbXaQVqfby3Xb62/0R3iRqbY+OM934Feep2dUykW06+u2ExN0FU7cXty9NbJmeWtfLhtuZbvfXefsy3c5zm1sT07cv9w1L3eDbPXA8JVVjt3b/NlpA9Nvo9iueAAECBAgQIECAAAECBAgQIECAAAECBAgQqK9ArtHvK1/5ym4Wuuh/V6xY8a1vfau+jVAZgZwERL85QduGAAECBAgQIECAAAECBAgQIECAAAECBAgQIJCvQK7R74c//OGzs6+XvOQlq1atyl47+5hjjgkhrF+/Pn393e9+9/PPP58vjt0I1FBA9FvDpiqJAAECBAgQIECAAAECBAgQIECAAAECBAgQIBBFuUa/s8HXrl37spe9rO/6hRdeGEJ46qmn+q77SIDA8gVEv8s3tAIBAgQIECBAgAABAgQIECBAgAABAgQIECBAoIQCBUe/73rXu0IIDzzwQELzgx/84FWvetVrX/va5Io3BAiMUED0O0JMSxEgQIAAAQIECBAgQIAAAQIECBAgQIAAAQIEyiNQcPT73e9+d/Xq1YceeugnPvGJbdu2XXfddccff3wI4fbbby+PkZMQqJOA6LdO3VQLAQIECBAgQIAAAQIECBAgQIAAAQIECBAgQCARKDj6jaJo27Zta9asCd3XypUrr7nmmuR83hAgMFoB0e9oPa1GgAABAgQIECBAgAABAgQIECBAgAABAgQIECiJQPHRbxRF//M///OVr3zlc5/73B//8R9v3769JDSOQaCWAqLfWrZVUQQIECBAgAABAgQIECBAgAABAgQIECBAgACBUkS/2kCAQG4Cot/cqG1EgAABAgQIECBAgAABAgQIECBAgAABAgQIEMhTQPSbp7a9CBQvIPotvgdOQIAAAQIECBAgQIAAAQIECBAgQIAAAQIECBAYg4DodwyoliRQYgHRb4mb42gECBAgQIAAAQIECBAgQIAAAQIECBAgQIAAgaULiH6XbmcmgSoKiH6r2DVnJkCAAAECBAgQIECAAAECBAgQIECAAAECBAgsKCD6XZDIAAK1EhD91qqdiiFAgAABAgQIECBAgAABAgQIECBAgAABAgQIdAVEv10J/xJohoDotxl9ViUBAgQIECBAgAABAgQIECBAgAABAgQIECDQOAHRb+NaruCGC4h+G/4HoHwCBAgQIECAAAECBAgQIECAAAECBAgQIECgrgKi37p2Vl0EBguIfge7uEqAAAECBAgQIECAAAECBAgQIECAAAECBAgQqLiA6LfiDXR8AosUEP0uEsxwAgQIECBAgAABAgQIECBAgAABAgQIECBAgEA1BES/1eiTUxIYlYDod1SS1iFAgAABAgQIECBAgAABAgQIECBAgAABAgQIlEpA9FuqdjgMgbELiH7HTmwDAgQIECBAgAABAgQIECBAgAABAgQIECBAgEARAqLfItTtSaA4AdFvcfZ2JkCAAAECBAgQIECAAAECBAgQIECAAAECBAiMUUD0O0ZcSxMooYDot4RNcSQCBAgQIECAAAECBAgQIECAAAECBAgQIECAwPIFRL/LN7QCgSoJiH6r1C1nJUCAAAECBAgQIECAAAECBAgQIECAAAECBAgMLSD6HZrKQAK1EBD91qKNiiBAgAABAgQIECBAgAABAgQIECBAgAABAgQI9AuIfvtFfCZQbwHRb737qzoCBAgQIECAAAECBAgQIECAAAECBAgQIECgsQKi38a2XuENFRD9NrTxyiZAgAABAgQIECBAgAABAgQIECBAgAABAgTqLiD6rXuH1UcgKyD6zXr4RIAAAQIECBAgQIAAAQIECBAgQIAAAQIECBCoiYDotyaNVAaBIQVEv0NCGUaAAAECBAgQIECAAAECBAgQIECAAAECBAgQqJaA6Lda/XJaAssVEP0uV9B8AgQIECBAgAABAgQIECBAgAABAgQIECBAgEApBUS/pWyLQxEYm4Dod2y0FiZAgAABAgQIECBAgAABAgQIECBAgAABAgQIFCkg+i1S394E8hcQ/eZvbkcCBAgQIECAAAECBAgQIECAAAECBAgQIECAQA4CZYl+9+/f/41vfOOFF17IoWZbEGiygOi3yd1XOwECBAgQIECAAAECBAgQIECAAAECBAgQIFBjgVJEv7fccsuhhx4aQli5cuX73ve+GnMrjUDhAqLfwlvgAAQIECBAgAABAgQIECBAgAABAgQIECBAgACBcQgUH/3u2rXr0EMPfcUrXvGBD3zgxBNPDCHcc8894yjVmgQIRFEk+vVnQIAAAQIECBAgQIAAAQIECBAgQIAAAQIECBCopUAB0e8zzzzzkY985JJLLrn11luffvrpd7zjHSGEa6+9Noqi+++/P4Swbt26mZmZO++887LLLnvPe97z6KOP1pJeUQQKERD9FsJuUwIECBAgQIAAAQIECBAgQIAAAQIECBAgQIDAuAXyjn737t170kknhezrNa95ze7du9ulXnTRRdkvwyGHHPLv//7v44awPoGGCIh+G9JoZRIgQIAAAQIECBAgQIAAAQIECBAgQIAAAQJNE8g7+p2amgohXHLJJXfdddfv//7vX3DBBZs2bXr22WcT9/37919//fXnnnvupz71qbvvvvvTn/50COHiiy9OBnhDgMByBES/y9EzlwABAgQIECBAgAABAgQIECBAgAABAgQIECBQWoG8o98rrrgihPDAAw8MKbJv376VK1eeeuqpQ44v7bCZLRMhTE6X63wzU+tC2LioQy1hSrlqLvw027Zt27FjR4HHEP0WiG9rAgQIECBAgAABAgQIECBAgAABAgQIECBAgMD4BPKOfv/sz/4shPDJT35yyJL+7u/+LoTw/ve/f8jxA4Ztn5rIPEJ6Ymr7gFE5XJreGCa2zOSw0bBbbJ0M66YWd6AlTBn2NE0Z98EPfvDkk0/etWtXUQWLfouSty8BAgQIECBAgAABAgQIECBAgAABAgQIECBAYKwCeUe/jz/+eAjh/PPPT1d13XXXnXLKKatXrz7++OOvuOKKH/3oR8m3n/nMZ0IIX/7yl5Mri34TR7+9uLd1923v46JXW9aEmal1ma3jwyw2fF3WAdKTpydTLOkv5n6/hClzL9bUb/bv33/++edPTEw899xzhRiIfgthtykBAgQIECBAgAABAgQIECBAgAABAgQIECBAYNwCuUa/L7zwwgc+8IEQwoc//OGksN/4jd/I3JQbwllnnZWkv3/5l38ZQjjnnHP+67/+K5myuDfZ6DeK4kcWF3f37cxM6p7jQqPfxSkaPUKBPXv2vOlNb1q/fv3u3btHuOyQS4l+h4QyjAABAgQIECBAgAABAgQIECBAgAABAgQIECBQLYH8ot+/+Zu/OfbYY0MIhx56aJLjfu1rXwshnHbaaXfeeefu3bsfeuihiy++OITwiU98ou24f//+008/PYSwatWqq6++eim4/dFvNL2x8wO3rTuAO7lzLwxuj9/afkx0+9d5pyd76XTv93rb68T/bb1aK7R+Crf3MTlvaoXObb69kfHw9sWtk/HvAcf/7V6JWqdtLRjSN+nGh+y+5rhvOFXdxFRcTuqG4/T05Ld+O1C9o/ZMoiiaZ8rCVnGxk1sTjSjJvFuH7B2s9bEn3JtQu3fPPvvsKaec8uY3v3nPnj05Fyf6zRncdgQIECBAgAABAgQIECBAgAABAgQIECBAgACBfATyi36POuqoFStWfPzjH3/yySeT2s4///wQwuOPP55c2bdv34knnnjYYYclV3bv3n3TTTcdccQRIYTvfOc7yfVh33QSzWR4ctfv9GQm9exmk+2MM5WnzmyZTH4eOA56u1+1Q99OotnOa0N3kfhjkmjGYWoSfKZXSBLQzuHaiySnaue+ycfemukFZ6Y2Dvi93myG2k5zu+fJgLQS6PYWnXC3m7z2tmvnvt3prdumQ3pKFySKojms5ox+o3SNmYMl/artm507dx5//PGXXnppzhWKfnMGtx0BAgQIECBAgAABAgQIECBAgAABAgQIECBAIB+BnKLfb37zmyGEd77znX1VHXfccUcddVTfxbe97W0hhO9///vp63/4h38YQrjpppvSF4d6nw0UW3ltN93szU/y4M7trUlS2xvSfhcHop3p8VJJLpsOROORvQXjFLY3LBOjDop+k4S1PTJ91O6a2Yr6Txh/TmfDre9TU6Y3Zp93nVQUj+lF1OkShp6SPUuycksjTZopvHO2bnXZNWr8aefOnSeccILot8YtVhoBAgQIECBAgAABAgQIECBAgAABAgQIECBAIE+BnKLf55577iUvecnatWv/6Z/+KV3e6aefvmrVqgMHDqQv/tzP/VwIoe9nUJ966qnNmzc/+uij6ZFDvW8lmt2HI/fu2W3Nbd8O232e8paZ+GIqJU3Wb91Em6wxZ/SbekJyL8hs3xycTG696eS7mQQ0iqJeVtraOf7Y/2pv0VkznSgnZ+2UkM6M00XFB5v1ag3uLzwpYfgp8SEGWcUrzBn9JlNSdw+nq6nl+2efffbkk0/2wOdaNldRBAgQIECAAAECBAgQIECAAAECBAgQIECAAIFCBHKKfqMouvDCC9uJ4+mnn578vulVV10VQrj55puT4h966KGDDz74jDPOSK4s901/otlZr51QdvPIJOZMp6Ttka14OEklU+ns7Lt+54p+U9cz1Swc/Sb7Zua1P3QT2dkBcFzyfNFvt+rsov1QiUl/cNub1j9lLqv+FQYV3pfK9zap37s9e/Zs2LBh/fr1ff//hnwq9cDnfJztQoAAAQIECBAgQIAAAQIECBAgQIAAAQIECBDIWSC/6DeKojvvvPOMM84IIVxzzTXtOvfu3XvmmWeGEN74xjeeffbZb3nLW1asWHHMMcf0Pe15WSj98WR7sSTXnPWxb3wq642Hpj4OGf32x5ypYvq/Si0ej+o7SWpi723flPYX8cTMXbatY3duNc4eu7fSrO16RMNO6TtM72NvqfZ+8YK9VHt6Mv5d5P4xqZPV6u2+ffvOO++8iYmJ5557rpDCRL+FsNuUAAECBAgQIECAAAECBAgQIECAAAECBAgQIDBugVyj3yiKvve974UQ3vrWtyaF7du3b/PmzWvWrAkhrF69+t3vfvfTTz+dfBtF0bve9a7jjjvux8PSFxfxfo4ANR1nxhFs6P4Cbt/4zMf2A6IX98DnVqTaXTw+9/Rkcp9uLxxtFdT3sf37wb2INJre2Hky82T72dTZKDptElfXu/G3fezurwjHu6SC4e1TndUylWZ+rriVHA8xJbNCxqol3L0RuXWAbvQbJ76d30KOr3cPmS6mXu83bdq0du3aXbt2FVWW6LcoefsSIECAAAECBAgQIECAAAECBAgQIECAAAECBMYqkHf0+9WvfjWEcMUVV/RV9eKLLz7yyCN79+7tu37gwIENGzb8eMoTTzzR99WwHzN5ZHpSO5uMn0I9sWV6al03nZ01vh0Mt55WPTmdSmfT4XHUimlTD3bO3sMar5m80ulmK/gM3VtgU4t3D9od0JrdWT+zWjdP7U5I/m2lv+1NJ6f7imqHr50TdVfoG9NX0VBT0j/0m7Fq+3Q23Did3O6cjaijvo9JLXV6c/fdd+/YsaPAikS/BeLbmgABAgQIECBAgAABAgQIECBAgAABAgQIECAwPoG8o9/2j/veeeed85d07733vu51r/voRz963HHHtfPCVatWve9971u/fv1nP/vZ+ef6doBAf6w7YIhLDREQ/Tak0cokQIAAAQIECBAgQIAAAQIECBAgQIAAAQIEmiaQd/S7adOmEMJNN90URdG//du/XX/99QNj4HvvvffQQw9th74rV65M3qd/J7hprVpOvcldtstZxNx6CIh+69FHVRAgQIAAAQIECBAgQIAAAQIECBAgQIAAAQIE+gTyjn6ffPLJVatWdR782/3nl37plw4cONB3socffjiEcMghhzzzzDP79+8/7bTTQggf/ehH+4b5OFBgemPqsdKtZzVPbh040MXGCYh+G9dyBRMgQIAAAQIECBAgQIAAAQIECBAgQIAAAQLNEMg7+o2i6P777z/99NNDCOecc85tt932Uz/1UyGEv/iLv+gD/4//+I8QwoYNG9rXr7nmmh8nxVdffXXfMB8HCqR+nzgO2OW+A5WaeVH028y+q5oAAQIECBAgQIAAAQIECBAgQIAAAQIECBCovUAB0W+f6aOPPhpC+Imf+ImvfvWr+/fvb3/7+OOPt2/zPeigg37nd37nt3/7t4888sgQwstf/vJt27b1reAjAQLDC4h+h7cykgABAgQIECBAgAABAgQIECBAgAABAgQIECBQIYHio98oiq688sr2s58///nPt+3+5E/+JIRw0kkndZ8JHf97zDHHrFq16u1vf3uFfB2VQNkERL9l64jzECBAgAABAgQIECBAgAABAgQIECBAgAABAgRGIlCK6PfFF1988MEHb7jhhieeeKJd1Y9+9KN//dd/jaLo9ttvP+GEE0IIn/70p/fs2bNjx45kzEjqtwiBpgmIfpvWcfUSIECAAAECBAgQIECAAAECBAgQIECAAAECDREoRfQ7v/XZZ58dQvjBD34w/zDfEiAwjIDodxglYwgQIECAAAECBAgQIECAAAECBAgQIECAAAEClROoQPT72GOP3XHHHZWTdWAC5RQQ/ZazL05FgAABAgQIECBAgAABAgQIECBAgAABAgQIEFimQAWi32VWaDoBAmkB0W9aw3sCBAgQIECAAAECBAgQIECAAAECBAgQIECAQG0ERL+1aaVCCAwlIPodiskgAgQIECBAgAABAgQIECBAgAABAgQIECBAgEDVBES/VeuY8xJYnoDod3l+ZhMgQIAAAQIECBAgQIAAAQIECBAgQIAAAQIESiog+i1pYxyLwJgERL9jgrUsAQIECBAgQIAAAQIECBAgQIAAAQIECBAgQKBYAdFvsf52J5C3gOg3b3H7ESBAgAABAgQIECBAgAABAgQIECBAgAABAgRyERD95sJsEwKlERD9lqYVDkKAAAECBAgQIECAAAECBAgQIECAAAECBAgQGKWA6HeUmtYiUH4B0W/5e+SEBAgQIECAAAECBAgQIECAAAECBAgQIECAAIElCIh+l4BmCoEKC4h+K9w8RydAgAABAgQIECBAgAABAgQIECBAgAABAgQIzC0g+p3bxjcE6igg+q1jV9VEgAABAgQIECBAgAABAgQIECBAgAABAgQIEIhEv/4ICDRLQPTbrH6rlgABAgQIECBAgAABAgQIECBAgAABAgQIEGiMgOi3Ma1WKIGWgOjXHwIBAgQIECBAgAABAgQIECBAgAABAgQIECBAoJYCot9atlVRBOYUEP3OSeMLAgQIECBAgAABAgQIECBAgAABAgQIECBAgECVBUS/Ve6esxNYvIDod/FmZhAgQIAAAQIECBAgQIAAAQIECBAgQIAAAQIEKiAg+q1AkxyRwAgFRL8jxLQUAQIECBAgQIAAAQIECBAgQIAAAQIECBAgQKA8AqLf8vTCSQjkISD6zUPZHgQIECBAgAABAgQIECBAgAABAgQIECBAgACB3AVEv7mT25BAoQKi30L5bU6AAAECBAgQIECAAAECBAgQIECAAAECBAgQGJeA6HdcstYlUE4B0W85++JUBAgQIECAAAECBAgQIECAAAECBAgQIECAAIFlCoh+lwloOoGKCYh+K9YwxyVAgAABAgQIECBAgAABAgQIECBAgAABAgQIDCcg+h3OySgCdREQ/dalk+ogQIAAAQIECBAgQIAAAQIECBAgQIAAAQIECGQERL8ZDh8I1F5A9Fv7FiuQAAECBAgQIECAAAECBAgQIECAAAECBAgQaKaA6LeZfVd1cwVEv83tvcoJECBAgAABAgQIECBAgAABAgQIECBAgACBWguIfmvdXsURmCUg+p1F4gIBAgQIECBAgAABAgQIECBAgAABAgQIECBAoA4Cot86dFENBIYXEP0Ob2UkAQIECBAgQIAAAQIECBAgQIAAAQIECBAgQKBCAqLfCjXLUQmMQED0OwJESxAgQIAAAQIECBAgQIAAAQIECBAgQIAAAQIEyicg+i1fT5yIwDgFRL/j1LU2AQIECBAgQIAAAQIECBAgQIAAAQIECBAgQKAwAdFvYfQ2JlCIgOi3EHabEiBAgAABAgQIECBAgAABAgQIECBAgAABAgTGLSD6Hbew9QmUS0D0W65+OA0BAgQIECBAgAABAgQIECBAgAABAgQIECBAYEQCot8RQVqGQEUERL8VaZRjEiBAgAABAgQIECBAgAABAgQIECBAgAABAgQWJyD6XZyX0QSqLiD6rXoHnZ8AAQIECBAgQIAAAQIECBAgQIAAAQIECBAgMFBA9DuQxUUCtRUQ/da2tQojQIAAAQIECBAgQIAAAQIECBAgQIAAAQIEmi0g+m12/1XfPAHRb/N6rmICBAgQIECAAAECBAgQIECAAAECBAgQIECgEQKi30a0WZEEEgHRb0LhDQECBAgQIECAAAECBAgQIECAAAECBAgQIECgTgKi3zp1Uy0EFhYQ/S5sZAQBAgQIECBAgAABAgQIECBAgAABAgQIECBAoIICot8KNs2RCSxDQPS7DDxTCRAgQIAAAQIECBAgQIAAAQIECBAgQIAAAQLlFRD9lrc3TkZgHAKi33GoWpMAAQIECBAgQIAAAQIECBAgQIAAAQIECBAgULiA6LfwFjgAgVwFRL+5ctuMAAECBAgQIECAAAECBAgQIECAAAECBAgQIJCXgOg3L2n7ECiHgOi3HH1wCgIECBAgQIAAAQIECBAgQIAAAQIECBAgQIDAiAVEvyMGtRyBkguIfkveIMcjQIAAAQIECBAgQIAAAQIECBAgQIAAAQIECCxNQPS7NDezCFRVbtUHZAAAIABJREFUQPRb1c45NwECBAgQIECAAAECBAgQIECAAAECBAgQIEBgXgHR77w8viRQOwHRb+1aqiACBAgQIECAAAECBAgQIECAAAECBAgQIECAQCwg+vV3QKBZAqLfZvVbtQQIECBAgAABAgQIECBAgAABAgQIECBAgEBjBES/jWm1Qgm0BES//hAIECBAgAABAgQIECBAgAABAgQIECBAgAABArUUEP3Wsq2KIjCngOh3ThpfECBAgAABAgQIECBAgAABAgQIECBAgAABAgSqLCD6rXL3nJ3A4gVEv4s3M4MAAQIECBAgQIAAAQIECBAgQIAAAQIECBAgUAEB0W8FmuSIBEYoIPodIaalCBAgQIAAAQIECBAgQIAAAQIECBAgQIAAAQLlERD9lqcXTkIgDwHRbx7K9iBAgAABAgQIECBAgAABAgQIECBAgAABAgQI5C4g+s2d3IYEChUQ/RbKb3MCBAgQIECAAAECBAgQIECAAAECBAgQIECAwLgERL/jkrUugXIKiH7L2RenIkCAAAECBAgQIECAAAECBAgQIECAAAECBAgsU0D0u0xA0wlUTED0W7GGOS4BAgQIECBAgAABAgQIECBAgAABAgQIECBAYDgB0e9wTkYRqIuA6LcunVQHAQIECBAgQIAAAQIECBAgQIAAAQIECBAgQCAjIPrNcPhAoPYCot/at1iBBAgQIECAAAECBAgQIECAAAECBAgQIECAQDMFRL/N7Luqmysg+m1u71VOgAABAgQIECBAgAABAgQIECBAgAABAgQI1FpA9Fvr9iqOwCwB0e8sEhcIECBAgAABAgQIECBAgAABAgQIECBAgAABAnUQEP3WoYtqIDC8gOh3eCsjCRAgQIAAAQIECBAgQIAAAQIECBAgQIAAAQIVEhD9VqhZjkpgBAKi3xEgWoIAAQIECBAgQIAAAQIECBAgQIAAAQIECBAgUD4B0W/5euJEBMYpIPodp661CRAgQIAAAQIECBAgQIAAAQIECBAgQIAAAQKFCYh+C6O3MYFCBES/hbDblAABAgQIECBAgAABAgQIECBAgAABAgQIECAwbgHR77iFrU+gXAKi33L1w2kIECBAgAABAgQIECBAgAABAgQIECBAgAABAiMSEP2OCNIyBCoiIPqtSKMckwABAgQIECBAgAABAgQIECBAgAABAgQIECCwOAHR7+K8jCZQdQHRb9U76PwECBAgQIAAAQIECBAgQIAAAQIECBAgQIAAgYECot+BLC4SqK2A6Le2rVUYAQIECBAgQIAAAQIECBAgQIAAAQIECBAg0GwB0W+z+6/65gmIfpvXcxUTIECAAAECBAgQIECAAAECBAgQIECAAAECjRAQ/TaizYokkAiIfhMKbwgQIECAAAECBAgQIECAAAECBAgQIECAAAECdRIQ/dapm2ohsLCA6HdhIyMIECBAgAABAgQIECBAgAABAgQIECBAgAABAhUUEP1WsGmOTGAZAqLfZeCZSoAAAQIECBAgQIAAAQIECBAgQIAAAQIECBAor4Dot7y9cTIC4xAQ/Y5D1ZoECBAgQIAAAQIECBAgQIAAAQIECBAgQIAAgcIFRL+Ft8ABCOQqIPrNldtmBAgQIECAAAECBAgQIECAAAECBAgQIECAAIG8BES/eUnbh0A5BES/5eiDUxAgQIAAAQIECBAgQIAAAQIECBAgQIAAAQIERiwg+h0xqOUIlFxA9FvyBjkeAQIECBAgQIAAAQIECBAgQIAAAQIECBAgQGBpAqLfpbmZRaCqAqLfqnbOuQkQIECAAAECBAgQIECAAAECBAgQIECAAAEC8wqIfufl8SWB2gmIfmvXUgURIECAAAECBAgQIECAAAECBAgQIECAAAECBGIB0a+/AwLNEhD9NqvfqiVAgAABAgQIECBAgAABAgQIECBAgAABAgQaIyD6bUyrFUqgJSD69YdAgAABAgQIECBAgAABAgQIECBAgAABAgQIEKilgOi3lm1VFIE5BUS/c9L4ggABAgQIECBAgAABAgQIECBAgAABAgQIECBQZQHRb5W75+wEFi8g+l28mRkECBAgQIAAAQIECBAgQIAAAQIECBAgQIAAgQoIiH4r0CRHJDBCAdHvCDEtRYAAAQIECBAgQIAAAQIECBAgQIAAAQIECBAoj4Dotzy9cBICeQiIfvNQtgcBAgQIECBAgAABAgQIECBAgAABAgQIECBAIHcB0W/u5DYkUKiA6LdQfpsTIECAAAECBAgQIECAAAECBAgQIECAAAECBMYlIPodl6x1CZRTQPRbzr44FQECBAgQIECAAAECBAgQIECAAAECBAgQIEBgmQKi32UCmk6gYgKi34o1zHEJECBAgAABAgQIECBAgAABAgQIECBAgAABAsMJiH6HczKKQF0ERL916aQ6CBAgQIAAAQIECBAgQIAAAQIECBAgQIAAAQIZAdFvhsMHArUXEP3WvsUKJECAAAECBAgQIECAAAECBAgQIECAAAECBJopIPptZt9V3VwB0W9ze69yAgQIECBAgAABAgQIECBAgAABAgQIECBAoNYCot9at1dxBGYJiH5nkbhAgAABAgQIECBAgAABAgQIECBAgAABAgQIEKiDgOi3Dl1UA4HhBUS/w1sZSYAAAQIECBAgQIAAAQIECBAgQIAAAQIECBCokIDot0LNclQCIxAQ/Y4A0RIECBAgQIAAAQIECBAgQIAAAQIECBAgQIAAgfIJiH7L1xMnIjBOAdHvOHWtTYAAAQIECBAgQIAAAQIECBAgQIAAAQIECBAoTED0Wxi9jQkUIiD6LYTdpgQIECBAgAABAgQIECBAgAABAgQIECBAgACBcQuIfsctbH0C5RIQ/ZarH05DgAABAgQIECBAgAABAgQIECBAgAABAgQIEBiRgOh3RJCWIVARAdFvRRrlmAQIECBAgAABAgQIECBAgAABAgQIECBAgACBxQmIfhfnZTSBqguIfqveQecnQIAAAQIECBAgQIAAAQIECBAgQIAAAQIECAwUEP0OZHGRQG0FRL+1ba3CCBAgQIAAAQIECBAgQIAAAQIECBAgQIAAgWYLiH6b3X/VN09A9Nu8nquYAAECBAgQIECAAAECBAgQIECAAAECBAgQaISA6LcRbVYkgURA9JtQeEOAAAECBAgQIECAAAECBAgQIECAAAECBAgQqJOA6LdO3VQLgYUFRL8LGxlBgAABAgQIECBAgAABAgQIECBAgAABAgQIEKiggOi3gk1zZALLEBD9LgPPVAIECBAgQIAAAQIECBAgQIAAAQIECBAgQIBAeQVEv+XtjZMRGIeA6HccqtYkQIAAAQIECBAgQIAAAQIECBAgQIAAAQIECBQuIPotvAUOQCBXAdFvrtw2I0CAAAECBAgQIECAAAECBAgQIECAAAECBAjkJSD6zUvaPgTKISD6LUcfnIIAAQIECBAgQIAAAQIECBAgQIAAAQIECBAgMGIB0e+IQS1HoOQCot+SN8jxCBAgQIAAAQIECBAgQIAAAQIECBAgQIAAAQJLExD9Ls3NLAJVFRD9VrVzzk2AAAECBAgQIECAAAECBAgQIECAAAECBAgQmFdA9Dsvjy8J1E5A9Fu7liqIAAECBAgQIECAAAECBAgQIECAAAECBAgQIBALiH79HRBoloDot1n9Vi0BAgQIECBAgAABAgQIECBAgAABAgQIECDQGAHRb2NarVACLQHRrz8EAgQIECBAgAABAgQIECBAgAABAgQIECBAgEAtBUS/tWyrogjMKSD6nZPGFwQIECBAgAABAgQIECBAgAABAgQIECBAgACBKguIfqvcPWcnsHgB0e/izcwgQIAAAQIECBAgQIAAAQIECBAgQIAAAQIECFRAQPRbgSY5IoERCoh+R4hpKQIECBAgQIAAAQIECBAgQIAAAQIECBAgQIBAeQREv+XphZMQyENA9JuHsj0IECBAgAABAgQIECBAgAABAgQIECBAgAABArkLiH5zJ7chgUIFRL+F8tucAAECBAgQIECAAAECBAgQIECAAAECBAgQIDAuAdHvuGStS6CcAqLfcvbFqQgQIECAAAECBAgQIECAAAECBAgQIECAAAECyxQQ/S4T0HQCFRMQ/VasYY5LgAABAgQIECBAgAABAgQIECBAgAABAgQIEBhOQPQ7nJNRBOoiIPqtSyfVQYAAAQIECBAgQIAAAQIECBAgQIAAAQIECBDICIh+Mxw+EKi9gOi39i1WIAECBAgQIECAAAECBAgQIECAAAECBAgQINBMAdFvM/uu6uYKiH6b23uVEyBAgAABAgQIECBAgAABAgQIECBAgAABArUWEP3Wur2KIzBLQPQ7i8QFAgQIECBAgAABAgQIECBAgAABAgQIECBAgEAdBES/deiiGggMLyD6Hd7KSAIECBAgQIAAAQIECBAgQIAAAQIECBAgQIBAhQREvxVqlqMSGIGA6HcEiJYgQIAAAQIECBAgQIAAAQIECBAgQIAAAQIECJRPQPRbvp44EYFxCoh+x6lrbQIECBAgQIAAAQIECBAgQIAAAQIECBAgQIBAYQKi38LobUygEAHRbyHsNiVAgAABAgQIECBAgAABAgQIECBAgAABAgQIjFtA9DtuYesTKJeA6Ldc/XAaAgQIECBAgAABAgQIECBAgAABAgQIECBAgMCIBES/I4K0DIGKCIh+K9IoxyRAgAABAgQIECBAgAABAgQIECBAgAABAgQILE5A9Ls4L6MJVF1A9Fv1Djo/AQIECBAgQIAAAQIECBAgQIAAAQIECBAgQGCggOh3IIuLBGorIPqtbWsVRoAAAQIECBAgQIAAAQIECBAgQIAAAQIECDRbQPTb7P6rvnkCot/m9VzFBAgQIECAAAECBAgQIECAAAECBAgQIECAQCMERL+NaLMiCSQCot+EwhsCBAgQIECAAAECBAgQIECAAAECBAgQIECAQJ0ERL916qZaCCwsIPpd2MgIAgQIECBAgAABAgQIECBAgAABAgQIECBAgEAFBUS/FWyaIxNYhoDodxl4phIgQIAAAQIECBAgQIAAAQIECBAgQIAAAQIEyisg+i1vb5yMwDgERL/jULUmAQIECBAgQIAAAQIECBAgQIAAAQIECBAgQKBwAdFv4S1wAAK5Coh+c+W2GQECBAgQIECAAAECBAgQIECAAAECBAgQIEAgLwHRb17S9iFQDgHRbzn64BQECBAgQIAAAQIECBAgQIAAAQIECBAgQIAAgRELiH5HDGo5AiUXEP2WvEGOR4AAAQIECBAgQIAAAQIECBAgQIAAAQIECBBYmoDod2luZhGoqoDot6qdc24CBAgQIECAAAECBAgQIECAAAECBAgQIECAwLwCot95eXxJoHYCot/atVRBBAgQIECAAAECBAgQIECAAAECBAgQIECAAIFYQPTr74BAswREv83qt2oJECBAgAABAgQIECBAgAABAgQIECBAgACBxgiIfhvTaoUSaAmIfv0hECBAgAABAgQIECBAgAABAgQIECBAgAABAgRqKSD6rWVbFUVgTgHR75w0viBAgAABAgQIECBAgAABAgQIECBAgAABAgQIVFlA9Fvl7jk7gcULiH4Xb2YGAQIECBAgQIAAAQIECBAgQIAAAQIECBAgQKACAqLfCjTJEQmMUED0O0JMSxEgQIAAAQIECBAgQIAAAQIECBAgQIAAAQIEyiMg+i1PL5yEQB4Cot88lO1BgAABAgQIECBAgAABAgQIECBAgAABAgQIEMhdQPSbO7kNCRQqIPotlN/mBAgQIECAAAECBAgQIECAAAECBAgQIECAAIFxCYh+xyVrXQLlFBD9lrMvTkWAAAECBAgQIECAAAECBAgQIECAAAECBAgQWKaA6HeZgKYTqJiA6LdiDXNcAgQIECBAgAABAgQIECBAgAABAgQIECBAgMBwAqLf4ZyMIlAXAdFvXTqpDgIECBAgQIAAAQIECBAgQIAAAQIECBAgQIBARkD0m+HwgUDtBUS/tW+xAgkQIECAAAECBAgQIECAAAECBAgQIECAAIFmCoh+m9l3VTdXQPTb3N6rnAABAgQIECBAgAABAgQIECBAgAABAgQIEKi1gOi31u1VHIFZAqLfWSQuECBAgAABAgQIECBAgAABAgQIECBAgAABAgTqICD6rUMX1UBgeAHR7/BWRhIgQIAAAQIECBAgQIAAAQIECBAgQIAAAQIEKiQg+q1QsxyVwAgERL8jQLQEAQIECBAgQIAAAQIECBAgQIAAAQIECBAgQKB8AqLf8vXEiQiMU0D0O05daxMgQIAAAQIECBAgQIAAAQIECBAgQIAAAQIEChMQ/RZGb2MChQiIfgthtykBAgQIECBAgAABAgQIECBAgAABAgQIECBAYNwCot9xC1ufQLkERL/l6ofTECBAgAABAgQIECBAgAABAgQIECBAgAABAgRGJCD6HRGkZQhURED0W5FGOSYBAgQIECBAgAABAgQIECBAgAABAgQIECBAYHECot/FeRlNoOoCot+qd9D5CRAgQIAAAQIECBAgQIAAAQIECBAgQIAAAQIDBUS/A1lcJFBbAdFvbVurMAIECBAgQIAAAQIECBAgQIAAAQIECBAgQKDZAqLfZvdf9c0TEP02r+cqJkCAAAECBAgQIECAAAECBAgQIECAAAECBBohIPptRJsVSSAREP0mFN4QIECAAAECBAgQIECAAAECBAgQIECAAAECBOokIPqtUzfVQmBhAdHvwkZGECBAgAABAgQIECBAgAABAgQIECBAgAABAgQqKCD6rWDTHJnAMgREv8vAM5UAAQIECBAgQIAAAQIECBAgQIAAAQIECBAgUF4B0W95e+NkBMYhIPodh6o1CRAgQIAAAQIECBAgQIAAAQIECBAgQIAAAQKFC4h+C2+BAxDIVUD0myu3zQgQIECAAAECBAgQIECAAAECBAgQIECAAAECeQmIfvOStg+BcgiIfsvRB6cgQIAAAQIECBAgQIAAAQIECBAgQIAAAQIECIxYQPQ7YlDLESi5gOi35A1yPAIECBAgQIAAAQIECBAgQIAAAQIECBAgQIDA0gREv0tzM4tAVQVEv1XtnHMTIECAAAECBAgQIECAAAECBAgQIECAAAECBOYVEP3Oy+NLArUTEP3WrqUKIkCAAAECBAgQIECAAAECBAgQIECAAAECBAjEAqJffwcEmiUg+m1Wv1VLgAABAgQIECBAgAABAgQIECBAgAABAgQINEZA9NuYViuUQEtA9OsPgQABAgQIECBAgAABAgQIECBAgAABAgQIECBQSwHRby3bqigCcwqIfuek8QUBAgQIECBAgAABAgQIECBAgAABAgQIECBAoMoCot8qd8/ZCSxeQPS7eDMzCBAgQIAAAQIECBAgQIAAAQIECBAgQIAAAQIVEBD9VqBJjkhghAKi3xFiWooAAQIECBAgQIAAAQIECBAgQIAAAQIECBAgUB4B0W95euEkBPIQEP3moWwPAgQIECBAgAABAgQIECBAgAABAgQIECBAgEDuAqLf3MltSKBQAdFvofw2J0CAAAECBAgQIECAAAECBAgQIECAAAECBAiMS0D0Oy5Z6xIop4Dot5x9cSoCBAgQIECAAAECBAgQIECAAAECBAgQIECAwDIFRL/LBDSdQMUERL8Va5jjEiBAgAABAgQIECBAgAABAgQIECBAgAABAgSGExD9DudkFIG6CIh+69JJdRAgQIAAAQIECBAgQIAAAQIECBAgQIAAAQIEMgKi3wyHDwRqLyD6rX2LFUiAAAECBAgQIECAAAECBAgQIECAAAECBAg0U0D028y+q7q5AqLf5vZe5QQIECBAgAABAgQIECBAgAABAgQIECBAgECtBUS/tW6v4gjMEhD9ziJxgQABAgQIECBAgAABAgQIECBAgAABAgQIECBQBwHRbx26qAYCwwuIfoe3MpIAAQIECBAgQIAAAQIECBAgQIAAAQIECBAgUCEB0W+FmuWoBEYgIPodAaIlCBAgQIAAAQIECBAgQIAAAQIECBAgQIAAAQLlExD9lq8nTkRgnAKi33HqWpsAAQIECBAgQIAAAQIECBAgQIAAAQIECBAgUJiA6LcwehsTKERA9FsIu00JECBAgAABAgQIECBAgAABAgQIECBAgAABAuMWEP2OW9j6BMolIPotVz+chgABAgQIECBAgAABAgQIECBAgAABAgQIECAwIgHR74ggLUOgIgKi34o0yjEJECBAgAABAgQIECBAgAABAgQIECBAgAABAosTEP0uzstoAlUXEP1WvYPOT4AAAQIECBAgQIAAAQIECBAgQIAAAQIECBAYKCD6HcjiIoHaCoh+a9tahREgQIAAAQIECBAgQIAAAQIECBAgQIAAAQLNFhD9Nrv/qm+egOi3eT1XMQECBAgQIECAAAECBAgQIECAAAECBAgQINAIAdFvI9qsSAKJgOg3ofCGAAECBAgQIECAAAECBAgQIECAAAECBAgQIFAnAdFvnbqpFgILC4h+FzYyggABAgQIECBAgAABAgQIECBAgAABAgQIECBQQQHRbwWb5sgEliEg+l0GnqkECBAgQIAAAQIECBAgQIAAAQIECBAgQIAAgfIKiH7L2xsnIzAOAdHvOFStSYAAAQIECBAgQIAAAQIECBAgQIAAAQIECBAoXED0W3gLHIBArgKi31y5bUaAAAECBAgQIECAAAECBAgQIECAAAECBAgQyEtA9JuXtH0IlENA9FuOPjgFAQIECBAgQIAAAQIECBAgQIAAAQIECBAgQGDEAqLfEYNajkDJBUS/JW+Q4xEgQIAAAQIECBAgQIAAAQIECBAgQIAAAQIEliYg+l2am1kEqiog+q1q55ybAAECBAgQIECAAAECBAgQIECAAAECBAgQIDCvgOh3Xh5fEqidgOi3di1VEAECBAgQIECAAAECBAgQIECAAAECBAgQIEAgFhD9+jsg0CwB0W+z+q1aAgQIECBAgAABAgQIECBAgAABAgQIECBAoDECot/GtFqhBFoCol9/CAQIECBAgAABAgQIECBAgAABAgQIECBAgACBWgqIfmvZVkURmFNA9DsnjS8IECBAgAABAgQIECBAgAABAgQIECBAgAABAlUWEP1WuXvOTmDxAqLfxZuZQYAAAQIECBAgQIAAAQIECBAgQIAAAQIECBCogIDotwJNckQCIxQQ/Y4Q01IECBAgQIAAAQIECBAgQIAAAQIECBAgQIAAgfIIiH7L0wsnIZCHgOg3D2V7ECBAgAABAgQIECBAgAABAgQIECBAgAABAgRyFxD95k5uQwKFCoh+C+W3OQECBAgQIECAAAECBAgQIECAAAECBAgQIEBgXAKi33HJWpdAOQVEv+Xsi1MRIECAAAECBAgQIECAAAECBAgQIECAAAECBJYpIPpdJqDpBComIPqtWMMclwABAgQIECBAgAABAgQIECBAgAABAgQIECAwnIDodzgnowjURUD0W5dOqoMAAQIECBAgQIAAAQIECBAgQIAAAQIECBAgkBEQ/WY4fCBQewHRb+1brEACBAgQIECAAAECBAgQIECAAAECBAgQIECgmQKi32b2XdXNFRD9Nrf3KidAgAABAgQIECBAgAABAgQIECBAgAABAgRqLSD6rXV7FUdgloDodxaJCwQIECBAgAABAgQIECBAgAABAgQIECBAgACBOgiIfuvQRTUQGF5A9Du8lZEECBAgQIAAAQIECBAgQIAAAQIECBAgQIAAgQoJiH4r1CxHJTACAdHvCBAtQYAAAQIECBAgQIAAAQIECBAgQIAAAQIECBAon4Dot3w9cSIC4xQQ/Y5T19oECBAgQIAAAQIECBAgQIAAAQIECBAgQIAAgcIERL+F0duYQCECot9C2G1KgAABAgQIECBAgAABAgQIECBAgAABAgQIEBi3gOh33MLWJ1AuAdFvufrhNAQIECBAgAABAgQIECBAgAABAgQIECBAgACBEQmIfkcEaRkCFREQ/VakUY5JgAABAgQIECBAgAABAgQIECBAgAABAgQIEFicgOh3cV5GE6i6gOi36h10fgIECBAgQIAAAQIECBAgQIAAAQIECBAgQIDAQAHR70AWFwnUVkD0W9vWKowAAQIECBAgQIAAAQIECBAgQIAAAQIECBBotoDot9n9V33zBES/zeu5igkQIECAAAECBAgQIECAAAECBAgQIECAAIFGCIh+G9FmRRJIBES/CYU3BAgQIECAAAEC/8+enewoDgQBFPz/v27RByTEZuNaconbTIPLWZHcHgECBAgQIECAAAECBAgQIECgkoD0W2mb7kLgu4D0+93INwgQIECAAAECBAgQIECAAAECBAgQIECAAAECCQWk34RLMzKBCwLS7wU8jxIgQIAAAQIECBAgQIAAAQIECBAgQIAAAQIE4gpIv3F3YzICMwSk3xmqziRAgAABAgQIECBAgAABAgQIECBAgAABAgQIbBeQfrevwAAElgpIv0u5vYwAAQIECBAgQIAAAQIECBAgQIAAAQIECBAgsEpA+l0l7T0EYghIvzH2YAoCBAgQIECAAAECBAgQIECAAAECBAgQIECAwGAB6XcwqOMIBBeQfoMvyHgECBAgQIAAAQIECBAgQIAAAQIECBAgQIAAgd8EpN/f3DxFIKuA9Jt1c+YmQIAAAQIECBAgQIAAAQIECBAgQIAAAQIECHwUkH4/8viQQDkB6bfcSl2IAAECBAgQIECAAAECBAgQIECAAAECBAgQIHATkH79Dgj0EpB+e+3bbQkQIECAAAECBAgQIECAAAECBAgQIECAAIE2AtJvm1W7KIF/AenXD4EAAQIECBAgQIAAAQIECBAgQIAAAQIECBAgUFJA+i25Vpci8FZA+n1L4wMCBAgQIECAAAECBAgQIECAAAECBAgQIECAQGYB6Tfz9sxO4LyA9HvcFGCEAAAgAElEQVTezBMECBAgQIAAAQIECBAgQIAAAQIECBAgQIAAgQQC0m+CJRmRwEAB6XcgpqMIECBAgAABAgQIECBAgAABAgQIECBAgAABAnEEpN84uzAJgRUC0u8KZe8gQIAAAQIECBAgQIAAAQIECBAgQIAAAQIECCwXkH6Xk3shga0C0u9Wfi8nQIAAAQIECBAgQIAAAQIECBAgQIAAAQIECMwSkH5nyTqXQEwB6TfmXkxFgAABAgQIECBAgAABAgQIECBAgAABAgQIELgoIP1eBPQ4gWQC0m+yhRmXAAECBAgQIECAAAECBAgQIECAAAECBAgQIHBMQPo95uRbBKoISL9VNukeBAgQIECAAAECBAgQIECAAAECBAgQIECAAIEHAen3gcN/CJQXkH7Lr9gFCRAgQIAAAQIECBAgQIAAAQIECBAgQIAAgZ4C0m/Pvbt1XwHpt+/u3ZwAAQIECBAgQIAAAQIECBAgQIAAAQIECBAoLSD9ll6vyxF4EpB+n0j8gQABAgQIECBAgAABAgQIECBAgAABAgQIECBQQUD6rbBFdyBwXED6PW7lmwQIECBAgAABAgQIECBAgAABAgQIECBAgACBRALSb6JlGZXAAAHpdwCiIwgQIECAAAECBAgQIECAAAECBAgQIECAAAEC8QSk33g7MRGBmQLS70xdZxMgQIAAAQIECBAgQIAAAQIECBAgQIAAAQIEtglIv9vovZjAFgHpdwu7lxIgQIAAAQIECBAgQIAAAQIECBAgQIAAAQIEZgtIv7OFnU8gloD0G2sfpiFAgAABAgQIECBAgAABAgQIECBAgAABAgQIDBKQfgdBOoZAEgHpN8mijEmAAAECBAgQIECAAAECBAgQIECAAAECBAgQOCcg/Z7z8m0C2QWk3+wbND8BAgQIECBAgAABAgQIECBAgAABAgQIECBA4KWA9PuSxR8JlBWQfsuu1sUIECBAgAABAgQIECBAgAABAgQIECBAgACB3gLSb+/9u30/Aem3387dmAABAgQIECBAgAABAgQIECBAgAABAgQIEGghIP22WLNLErgLSL93Cv8gQIAAAQIECBAgQIAAAQIECBAgQIAAAQIECFQSkH4rbdNdCHwXkH6/G/kGAQIECBAgQIAAAQIECBAgQIAAAQIECBAgQCChgPSbcGlGJnBBQPq9gOdRAgQIECBAgAABAgQIECBAgAABAgQIECBAgEBcAek37m5MRmCGgPQ7Q9WZBAgQIECAAAECBAgQIECAAAECBAgQIECAAIHtAtLv9hUYgMBSAel3KbeXESBAgAABAgQIECBAgAABAgQIECBAgAABAgRWCUi/q6S9h0AMAek3xh5MQYAAAQIECBAgQIAAAQIECBAgQIAAAQIECBAYLCD9DgZ1HIHgAtJv8AUZjwABAgQIECBAgAABAgQIECBAgAABAgQIECDwm4D0+5ubpwhkFZB+s27O3AQIECBAgAABAgQIECBAgAABAgQIECBAgACBjwLS70ceHxIoJyD9llupCxEgQIAAAQIECBAgQIAAAQIECBAgQIAAAQIEbgLSr98BgV4C0m+vfbstAQIECBAgQIAAAQIECBAgQIAAAQIECBAg0EZA+m2zahcl8C8g/fohECBAgAABAgQIECBAgAABAgQIECBAgAABAgRKCki/JdfqUgTeCki/b2l8QIAAAQIECBAgQIAAAQIECBAgQIAAAQIECBDILCD9Zt6e2QmcF5B+z5t5ggABAgQIECBAgAABAgQIECBAgAABAgQIECCQQED6TbAkIxIYKCD9DsR0FAECBAgQIECAAAECBAgQIECAAAECBAgQIEAgjoD0G2cXJiGwQkD6XaHsHQQIECBAgAABAgQIECBAgAABAgQIECBAgACB5QLS73JyLySwVUD63crv5QQIECBAgAABAgQIECBAgAABAgQIECBAgACBWQLS7yxZ5xKIKSD9xtyLqQgQIECAAAECBAgQIECAAAECBAgQIECAAAECFwWk34uAHieQTED6TbYw4xIgQIAAAQIECBAgQIAAAQIECBAgQIAAAQIEjglIv8ecfItAFQHpt8om3YMAAQIECBAgQIAAAQIECBAgQIAAAQIECBAg8CAg/T5w+A+B8gLSb/kVuyABAgQIECBAgAABAgQIECBAgAABAgQIECDQU0D67bl3t+4rIP323b2bEyBAgAABAgQIECBAgAABAgQIECBAgAABAqUFpN/S63U5Ak8C0u8TiT8QIECAAAECBAgQIECAAAECBAgQIECAAAECBCoISL8VtugOBI4LSL/HrXyTAAECBAgQIECAAAECBAgQIECAAAECBAgQIJBIQPpNtCyjEhggIP0OQHQEAQIECBAgQIAAAQIECBAgQIAAAQIECBAgQCCegPQbbycmIjBTQPqdqetsAgQIECBAgAABAgQIECBAgAABAgQIECBAgMA2Ael3G70XE9giIP1uYfdSAgQIECBAgAABAgQIECBAgAABAgQIECBAgMBsAel3trDzCcQSkH5j7cM0BAgQIECAAAECBAgQIECAAAECBAgQIECAAIFBAtLvIEjHEEgiIP0mWZQxCRAgQIAAAQIECBAgQIAAAQIECBAgQIAAAQLnBKTfc16+TSC7gPSbfYPmJ0CAAAECBAgQIECAAAECBAgQIECAAAECBAi8FJB+X7L4I4GyAtJv2dW6GAECBAgQIECAAAECBAgQIECAAAECBAgQINBbQPrtvX+37ycg/fbbuRsTIECAAAECBAgQIECAAAECBAgQIECAAAECLQSk3xZrdkkCdwHp907hHwQIECBAgAABAgQIECBAgAABAgQIECBAgACBSgLSb6VtuguB7wLS73cj3yBAgAABAgQIECBAgAABAgQIECBAgAABAgQIJBSQfhMuzcgELghIvxfwPEqAAAECBAgQIECAAAECBAgQIECAAAECBAgQiCsg/cbdjckIzBCQfmeoOpMAAQIECBAgQIAAAQIECBAgQIAAAQIECBAgsF1A+t2+AgMQWCog/S7l9jICBAgQIECAAAECBAgQIECAAAECBAgQIECAwCoB6XeVtPcQiCEg/cbYgykIECBAgAABAgQIECBAgAABAgQIECBAgAABAoMFpN/BoI4jEFxA+g2+IOMRIECAAAECBAgQIECAAAECBAgQIECAAAECBH4TkH5/c/MUgawC0m/WzZmbAAECBAgQIECAAAECBAgQIECAAAECBAgQIPBRQPr9yONDAuUEpN9yK3UhAgQIECBAgAABAgQIECBAgAABAgQIECBAgMBNQPr1OyDQS0D67bVvtyVAgAABAgQIECBAgAABAgQIECBAgAABAgTaCEi/bVbtogT+BaRfPwQCBAgQIECAAAECBAgQIECAAAECBAgQIECAQEkB6bfkWl2KwFsB6fctjQ8IECBAgAABAgQIECBAgAABAgQIECBAgAABApkFpN/M2zM7gfMC0u95M08QIECAAAECBAgQIECAAAECBAgQIECAAAECBBIISL8JlmREAgMFpN+BmI4iQIAAAQIECBAgQIAAAQIECBAgQIAAAQIECMQRkH7j7MIkBFYISL8rlL2DAAECBAgQIECAAAECBAgQIECAAAECBAgQILBcQPpdTu6FBLYKSL9b+b2cAAECBAgQIECAAAECBAgQIECAAAECBAgQIDBLQPqdJetcAjEFpN+YezEVAQIECBAgQIAAAQIECBAgQIAAAQIECBAgQOCigPR7EdDjBJIJSL/JFmZcAgQIECBAgAABAgQIECBAgAABAgQIECBAgMAxAen3mJNvEagiIP1W2aR7ECBAgAABAgQIECBAgAABAgQIECBAgAABAgQeBKTfBw7/IVBeQPotv2IXJECAAAECBAgQIECAAAECBAgQIECAAAECBHoKSL899+7WfQWk3767d3MCBAgQIECAAAECBAgQIECAAAECBAgQIECgtID0W3q9LkfgSUD6fSLxBwIECBAgQIAAAQIECBAgQIAAAQIECBAgQIBABQHpt8IW3YHAcQHp97iVbxIgQIAAAQIECBAgQIAAAQIECBAgQIAAAQIEEglIv4mWZVQCAwSk3wGIjiBAgAABAgQIECBAgAABAgQIECBAgAABAgQIxBOQfuPtxEQEZgpIvzN1nU2AAAECBAgQIECAAAECBAgQIECAAAECBAgQ2CYg/W6j92ICWwSk3y3sXkqAAAECBAgQIECAAAECBAgQIECAAAECBAgQmC0g/c4Wdj6BWALSb6x9mIYAAQIECBAgQIAAAQIECBAgQIAAAQIECBAgMEhA+h0E6RgCSQSk3ySLMiYBAgQIECBAgAABAgQIECBAgAABAgQIECBA4JyA9HvOy7cJZBeQfrNv0PwECBAgQIAAAQIECBAgQIAAAQIECBAgQIAAgZcC0u9LFn8kUFZA+i27WhcjQIAAAQIECBAgQIAAAQIECBAgQIAAAQIEegtIv7337/b9BKTffjt3YwIECBAgQIAAAQIECBAgQIAAAQIECBAgQKCFgPTbYs0uSeAuIP3eKfyDAAECBAgQIECAAAECBAgQIECAAAECBAgQIFBJQPqttE13IfBdQPr9buQbBAgQIECAAAECBAgQIECAAAECBAgQIECAAIGEAtJvwqUZmcAFAen3Ap5HCRAgQIAAAQIECBAgQIAAAQIECBAgQIAAAQJxBaTfuLsxGYEZAtLvDFVnEiBAgAABAgQIECBAgAABAgQIECBAgAABAgS2C0i/21dgAAJLBaTfpdxeRoAAAQIECBAgQIAAAQIECBAgQIAAAQIECBBYJSD9rpL2HgIxBKTfGHswBQECBAgQIECAAAECBAgQIECAAAECBAgQIEBgsID0OxjUcQSCC0i/wRdkPAIECBAgQIAAAQIECBAgQIAAAQIECBAgQIDAbwLS729uniKQVUD6zbo5cxMgQIAAAQIECBAgQIAAAQIECBAgQIAAAQIEPgpIvx95fEignID0W26lLkSAAAECBAgQIECAAAECBAgQIECAAAECBAgQuAlIv34HBHoJSL+99u22BAgQIECAAAECBAgQIECAAAECBAgQIECAQBsB6bfNql2UwL+A9OuHQIAAAQIECBAgQIAAAQIECBAgQIAAAQIECBAoKSD9llyrSxF4KyD9vqXxAQECBAgQIECAAAECBAgQIECAAAECBAgQIEAgs4D0m3l7ZidwXkD6PW/mCQIECBAgQIAAAQIECBAgQIAAAQIECBAgQIBAAgHpN8GSjEhgoID0OxDTUQQIECBAgAABAgQIECBAgAABAgQIECBAgACBOALSb5xdmITACgHpd4WydxAgQIAAAQIECBAgQIAAAQIECBAgQIAAAQIElgtIv8vJvZDAVgHpdyu/lxMgQIAAAQIECBAgQIAAAQIECBAgQIAAAQIEZglIv7NknUsgpoD0G3MvpiJAgAABAgQIECBAgAABAgQIECBAgAABAgQIXBSQfi8CepxAMgHpN9nCjEuAAAECBAgQIECAAAECBAgQIECAAAECBAgQOCYg/R5z8i0CVQSk3yqbdA8CBAgQIECAAAECBAgQIECAAAECBAgQIECAwIOA9PvA4T8EygtIv+VX7IIECBAgQIAAAQIECBAgQIAAAQIECBAgQIBATwHpt+fe3bqvgPTbd/duToAAAQIECBAgQIAAAQIECBAgQIAAAQIECJQWkH5Lr9flCDwJSL9PJP5AgAABAgQIECBAgAABAgQIECBAgAABAgQIEKggIP1W2KI7EDguIP0et/JNAgQIECBAgAABAgQIECBAgAABAgQIECBAgEAiAek30bKMSmCAgPQ7ANERBAgQIECAAAECBAgQIECAAAECBAgQIECAAIF4AtJvvJ2YiMBMAel3pq6zCRAgQIAAAQIECBAgQIAAAQIECBAgQIAAAQLbBKTfbfReTGCLgPS7hd1LCRAgQIAAAQIECBAgQIAAAQIECBAgQIAAAQKzBaTf2cLOJxBLQPqNtQ/TECBAgAABAgQIECBAgAABAgQIECBAgAABAgQGCUi/gyAdQyCJgPSbZFHGJECAAAECBAgQIECAAAECBAgQIECAAAECBAicE5B+z3n5NoHsAtJv9g2anwABAgQIECBAgAABAgQIECBAgAABAgQIECDwUkD6fcnijwTKCki/ZVfrYgQIECBAgAABAgQIECBAgAABAgQIECBAgEBvAem39/7dvp+A9Ntv525MgAABAgQIECBAgAABAgQIECBAgAABAgQItBCQflus2SUJ3AWk3zuFfxAgQIAAAQIECBAgQIAAAQIECBAgQIAAAQIEKglIv5W26S4EvgtIv9+NfIMAAQIECBAgQIAAAQIECBAgQIAAAQIECBAgkFBA+k24NCMTuCAg/V7A8ygBAgQIECBAgAABAgQIECBAgAABAgQIECBAIK6A9Bt3NyYjMENA+p2h6kwCBAgQIECAAAECBAgQIECAAAECBAgQIECAwHYB6Xf7CgxAYKmA9LuU28sIECBAgAABAgQIECBAgAABAgQIECBAgAABAqsEpN9V0t5DIIaA9BtjD6YgQIAAAQIECBAgQIAAAQIECBAgQIAAAQIECAwWkH4HgzqOQHAB6Tf4goxHgAABAgQIECBAgAABAgQIECBAgAABAgQIEPhNQPr9zc1TBLIKSL9ZN2duAgQIECBAgAABAgQIECBAgAABAgQIECBAgMBHAen3I48PCZQTkH7LrdSFCBAgQIAAAQIECBAgQIAAAQIECBAgQIAAAQI3AenX74BALwHpt9e+3ZYAAQIECBAgQIAAAQIECBAgQIAAAQIECBBoIyD9tlm1ixL4F5B+/RAIECBAgAABAgQIECBAgAABAgQIECBAgAABAiUFpN+Sa3UpAm8FpN+3ND4gQIAAAQIECBAgQIAAAQIECBAgQIAAAQIECGQWkH4zb8/sBM4LSL/nzTxBgAABAgQIECBAgAABAgQIECBAgAABAgQIEEggIP0mWJIRCQwUkH4HYjqKAAECBAgQIECAAAECBAgQIECAAAECBAgQIBBHQPqNswuTEFghIP2uUPYOAgQIECBAgAABAgQIECBAgAABAgQIECBAgMByAel3ObkXEtgqIP1u5fdyAgQIECBAgAABAgQIECBAgAABAgQIECBAgMAsAel3lqxzCcQUkH5j7sVUBAgQIECAAAECBAgQIECAAAECBAgQIECAAIGLAtLvRUCPE0gmIP0mW5hxCRAgQIAAAQIECBAgQIAAAQIECBAgQIAAAQLHBKTfY06+RaCKgPRbZZPuQYAAAQIECBAgQIAAAQIECBAgQIAAAQIECBB4EJB+Hzj8h0B5Aem3/IpdkAABAgQIECBAgAABAgQIECBAgAABAgQIEOgpIP323Ltb9xWQfvvu3s0JECBAgAABAgQIECBAgAABAgQIECBAgACB0gLSb+n1uhyBJwHp94nEHwgQIECAAAECBAgQIECAAAECBAgQIECAAAECFQSk3wpbdAcCxwWk3+NWvkmAAAECBAgQIECAAAECBAgQIECAAAECBAgQSCQg/SZallEJDBCQfgcgOoIAAQIECBAgQIAAAQIECBAgQIAAAQIECBAgEE9A+o23ExMRmCkg/c7UdTYBAgQIECBAgAABAgQIECBAgAABAgQIECBAYJuA9LuN3osJbBGQfreweykBAgQIECBAgAABAgQIECBAgAABAgQIECBAYLaA9Dtb2PkEYglIv7H2YRoCBAgQIECAAAECBAgQIECAAAECBAgQIECAwCAB6XcQpGMIJBGQfpMsypgECBAgQIAAAQIECBAgQIAAAQIECBAgQIAAgXMC0u85L98mkF1A+s2+QfMTIECAAAECBAgQIECAAAECBAgQIECAAAECBF4KSL8vWfyRQFkB6bfsal2MAAECBAgQIECAAAECBAgQIECAAAECBAgQ6C0g/fbev9v3E5B+++3cjQkQIECAAAECBAgQIECAAAECBAgQIECAAIEWAtJvizW7JIG7gPR7p/APAgQIECBAgAABAgQIECBAgAABAgQIECBAgEAlAem30jbdhcB3Aen3u5FvECBAgAABAgQIECBAgAABAgQIECBAgAABAgQSCki/CZdmZAIXBKTfC3geJUCAAAECBAgQIECAAAECBAgQIECAAAECBAjEFZB+4+7GZARmCEi/M1SdSYAAAQIECBAgQIAAAQIECBAgQIAAAQIECBDYLiD9bl+BAQgsFZB+l3J7GQECBAgQIECAAAECBAgQIECAAAECBAgQIEBglYD0u0raewjEEJB+Y+zBFAQIECBAgAABAgQIECBAgAABAgQIECBAgACBwQLS72BQxxEILiD9Bl+Q8QgQIECAAAECBAgQIECAAAECBAgQIECAAAECvwlIv7+5eYpAVgHpN+vmzE2AAAECBAgQIECAAAECBAgQIECAAAECBAgQ+Cgg/X7k8SGBcgLSb7mVuhABAgQIECBAgAABAgQIECBAgAABAgQIECBA4CYg/fodEOglIP322rfbEiBAgAABAgQIECBAgAABAgQIECBAgAABAm0EpN82q3ZRAv8C0q8fAgECBAgQIECAAAECBAgQIECAAAECBAgQIECgpID0W3KtLkXgrYD0+5bGBwQIECBAgAABAgQIECBAgAABAgQIECBAgACBzALSb+btmZ3AeQHp97yZJwgQIECAAAECBAgQIECAAAECBAgQIECAAAECCQSk3wRLMiKBgQLS70BMRxEgQIAAAQIECBAgQIAAAQIECBAgQIAAAQIE4ghIv3F2YRICKwSk3xXK3kGAAAECBAgQIECAAAECBAgQIECAAAECBAgQWC4g/S4n90ICWwWk3638Xk6AAAECBAgQIECAAAECBAgQIECAAAECBAgQmCUg/c6SdS6BmALSb8y9mIoAAQIECBAgQIAAAQIECBAgQIAAAQIECBAgcFFA+r0I6HECyQSk32QLMy4BAgQIECBAgAABAgQIECBAgAABAgQIECBA4JiA9HvMybcIVBGQfqts0j0IECBAgAABAgQIECBAgAABAgQIECBAgAABAg8C0u8Dh/8QKC8g/ZZfsQsSIECAAAECBAgQIECAAAECBAgQIECAAAECPQWk3557d+u+AtJv3927OQECBAgQIECAAAECBAgQIECAAAECBAgQIFBaQPotvV6XI/AkIP0+kfgDAQIECBAgQIAAAQIECBAgQIAAAQIECBAgQKCCgPRbYYvuQOC4gPR73Mo3CRAgQIAAAQIECBAgQIAAAQIECBAgQIAAAQKJBKTfRMsyKoEBAtLvAERHECBAgAABAgQIECBAgAABAgQIECBAgAABAgTiCUi/8XZiIgIzBaTfmbrOJkCAAAECBAgQIECAAAECBAgQIECAAAECBAhsE5B+t9F7MYEtAtLvFnYvJUCAAAECBAgQIECAAAECBAgQIECAAAECBAjMFpB+Zws7n0AsAek31j5MQ4AAAQIECBAgQIAAAQIECBAgQIAAAQIECBAYJCD9DoJ0DIEkAtJvkkUZkwABAgQIECBAgAABAgQIECBAgAABAgQIECBwTkD6Pefl2wSyC0i/2TdofgIECBAgQIAAAQIECBAgQIAAAQIECBAgQIDASwHp9yWLPxIoKyD9ll2tixEgQIAAAQIECBAgQIAAAQIECBAgQIAAAQK9BaTf3vt3+34C0m+/nbsxAQIECBAgQIAAAQIECBAgQIAAAQIECBAg0EJA+m2xZpckcBeQfu8U/kGAAAECBAgQIECAAAECBAgQIECAAAECBAgQqCQg/VbaprsQ+C4g/X438g0CBAgQIECAAAECBAgQIECAAAECBAgQIECAQEIB6Tfh0oxM4IKA9HsBz6MECBAgQIAAAQIECBAgQIAAAQIECBAgQIAAgbgC0m/c3ZiMwAwB6XeGqjMJECBAgAABAgQIECBAgAABAgQIECBAgAABAtsFpN/tKzAAgaUC0u9Sbi8jQIAAAQIECBAgQIAAAQIECBAgQIAAAQIECKwSkH5XSXsPgRgC0m+MPZiCAAECBAgQIECAAAECBAgQIECAAAECBAgQIDBYQPodDOo4AsEFpN/gCzIeAQIECBAgQIAAAQIECBAgQIAAAQIECBAgQOA3Aen3NzdPEcgqIP1m3Zy5CRAgQIAAAQIECBAgQIAAAQIECBAgQIAAAQIfBaTfjzw+JFBOQPott1IXIkCAAAECBAgQIECAAAECBAgQIECAAAECBAjcBKRfvwMCvQSk3177dlsCBAgQIECAAAECBAgQIECAAAECBAgQIECgjYD022bVLkrgX0D69UMgQIAAAQIECBAgQIAAAQIECBAgQIAAAQIECJQUkH5LrtWlCLwVkH7f0viAAAECBAgQIECAAAECBAgQIECAAAECBAgQIJBZQPrNvD2zEzgvIP2eN/MEAQIECBAgQIAAAQIECBAgQIAAAQIECBAgQCCBgPSbYElGJDBQQPodiOkoAgQIECBAgAABAgQIECBAgAABAgQIECBAgEAcAek3zi5MQmCFgPS7Qtk7CBAgQIAAAQIECBAgQIAAAQIECBAgQIAAAQLLBaTf5eReSGCrgPS7ld/LCRAgQIAAAQIECBAgQIAAAQIECBAgQIAAAQKzBKTfWbLOJRBTQPqNuRdTESBAgAABAgQIECBAgAABAgQIECBAgAABAgQuCki/FwE9TiCZgPSbbGHGJUCAAAECBAgQIECAAAECBAgQIECAAAECBAgcE5B+jzn5FoEqAtJvlU26BwECBAgQIECAAAECBAgQIECAAAECBAgQIEDgQUD6feDwHwLlBaTf8it2QQIECBAgQIAAAQIECBAgQIAAAQIECBAgQKCngPTbc+9u3VdA+u27ezcnQIAAAQIECBAgQIAAAQIECBAgQIAAAQIESgtIv6XX63IEngSk3ycSfyBAgAABAgQIECBAgAABAgQIECBAgAABAgQIVC/dg4YAACAASURBVBCQfits0R0IHBeQfo9b+SYBAgQIECBAgAABAgQIECBAgAABAgQIECBAIJGA9JtoWUYlMEBA+h2A6AgCBAgQIECAAAECBAgQIECAAAECBAgQIECAQDwB6TfeTkxEYKaA9DtT19kECBAgQIAAAQIECBAgQIAAAQIECBAgQIAAgW0C0u82ei8msEVA+t3C7qUECBAgQIAAAQIECBAgQIAAAQIECBAgQIAAgdkC0u9sYecTiCUg/cbah2kIECBAgAABAgQIECBAgAABAgQIECBAgAABAoMEpN9BkI4hkERA+k2yKGMSIECAAAECBAgQIECAAAECBAgQIECAAAECBM4JSL/nvHybQHYB6Tf7Bs1PgAABAgQIECBAgAABAgQIECBAgAABAgQIEHgpIP2+ZPFHAmUFpN+yq3UxAgQIECBAgAABAgQIECBAgAABAgQIECBAoLeA9Nt7/27fT0D67bdzNyZAgAABAgQIECBAgAABAgQIECBAgAABAgRaCEi/LdbskgTuAtLvncI/CBAgQIAAAQIECBAgQIAAAQIECBAgQIAAAQKVBKTfStt0FwLfBaTf70a+QYAAAQIECBAgQIAAAQIECBAgQIAAAQIECBBIKCD9JlyakQlcEJB+L+B5lAABAgQIECBAgAABAgQIECBAgAABAgQIECAQV0D6jbsbkxGYISD9zlB1JgECBAgQIECAAAECBAgQIECAAAECBAgQIEBgu4D0u30FBiCwVED6XcrtZQQIECBAgAABAgQIECBAgAABAgQIECBAgACBVQLS7ypp7yEQQ0D6jbEHUxAgQIAAAQIECBAgQIAAAQIECBAgQIAAAQIEBgtIv4NBHUcguID0G3xBxiNAgAABAgQIECBAgAABAgQIECBAgAABAgQI/CYg/f7m5ikCWQWk36ybMzcBAgQIECBAgAABAgQIECBAgAABAgQIECBA4KOA9PuRx4cEyglIv+VW6kIECBAgQIAAAQIECBAgQIAAAQIECBAgQIAAgZuA9Ot3QKCXgPTba99uS4AAAQIECBAgQIAAAQIECBAgQIAAAQIECLQRkH7brNpFCfwLSL9+CAQIECBAgAABAgQIECBAgAABAgQIECBAgACBkgLSb8m1uhSBtwLS71saHxAgQIAAAQIECBAgQIAAAQIECBAgQIAAAQIEMgtIv5m3Z3YC5wWk3/NmniBAgAABAgQIECBAgAABAgQIECBAgAABAgQIJBCQfhMsyYgEBgpIvwMxHUWAAAECBAgQIECAAAECBAgQIECAAAECBAgQiCMg/cbZhUkIrBCQflcoewcBAgQIECBAgAABAgQIECBAgAABAgQIECBAYLmA9Luc3AsJbBWQfrfyezkBAgQIECBAgAABAgQIECBAgAABAgQIECBAYJaA9DtL1rkEYgpIvzH3YioCBAgQIECAAAECBAgQIECAAAECBAgQIECAwEUB6fcioMcJJBOQfpMtzLgECBAgQIAAAQIECBAgQIAAAQIECBAgQIAAgWMC0u8xJ98iUEVA+q2ySfcgQIAAAQIECBAgQIAAAQIECBAgQIAAAQIECDwISL8PHP5DoLyA9Ft+xS5IgAABAgQIECBAgAABAgQIECBAgAABAgQI9BSQfnvu3a37Cki/fXfv5gQIECBAgAABAgQIECBAgAABAgQIECBAgEBpAem39HpdjsCTgPT7ROIPBAgQIECAAAECBAgQIECAAAECBAgQIECAAIEKAtJvhS26A4HjAtLvcSvfJECAAAECBAgQIECAAAECBAgQIECAAAECBAgkEpB+Ey3LqAQGCEi/AxAdQYAAAQIECBAgQIAAAQIECBAgQIAAAQIECBCIJyD9xtuJiQjMFJB+Z+o6mwABAgQIECBAgAABAgQIECBAgAABAgQIECCwTUD63UbvxQS2CEi/W9i9lAABAgQIECBAgAABAgQIECBAgAABAgQIECAwW0D6nS3sfAKxBKTfWPswDQECBAgQIECAAAECBAgQIECAAAECBAgQIEBgkID0OwjSMQSSCEi/SRZlTAIECBAgQIAAAQIECBAgQIAAAQIECBAgQIDAOQHp95yXbxPILiD9Zt+g+QkQIECAAAECBAgQIECAAAECBAgQIECAAAECLwWk35cs/kigrID0W3a1LkaAAAECBAgQIECAAAECBAgQIECAAAECBAj0FpB+e+/f7fsJSL/9du7GBAgQIECAAAECBAgQIECAAAECBAgQIECAQAsB6bfFml2SwF1A+r1T+AcBAgQIECBAgAABAgQIECBAgAABAgQIECBAoJKA9Ftpm+5C4LuA9PvdyDcIECBAgAABAgQIECBAgAABAgQIECBAgAABAgkFpN+ESzMygQsC0u8FPI8SIECAAAECBAgQIECAAAECBAgQIECAAAECBOIKSL9xd2MyAjMEpN8Zqs4kQIAAAQIECBAgQIAAAQIECBAgQIAAAQIECGwXkH63r8AABJYKSL9Lub2MAAECBAgQIECAAAECBAgQIECAAAECBAgQILBKQPpdJe09BGIISL8x9mAKAgQIECBAgAABAgQIECBAgAABAgQIECBAgMBgAel3MKjjCAQXkH6DL8h4BAgQIECAAAECBAgQIECAAAECBAgQIECAAIHfBKTf39w8RSCrgPSbdXPmJkCAAAECBAgQIECAAAECBAgQIECAAAECBAh8FJB+P/L4kEA5Aem33EpdiAABAgQIECBAgAABAgQIECBAgAABAgQIECBwE5B+/Q4I9BKQfnvt220JECBAgAABAgQIECBAgAABAgQIECBAgACBNgLSb5tVuyiBfwHp1w+BAAECBAgQIECAAAECBAgQIECAAAECBAgQIFBSQPotuVaXIvBWQPp9S+MDAgQIECBAgAABAgQIECBAgAABAgQIECBAgEBmAek38/bMTuC8gPR73swTBAgQIECAAAECBAgQIECAAAECBAgQIECAAIEEAtJvgiUZkcBAAel3IKajCBAgQIAAAQIECBAgQIAAAQIECBAgQIAAAQJxBKTfOLswCYEVAtLvCmXvIECAAAECBAgQIECAAAECBAgQIECAAAECBAgsF5B+l5N7IYGtAtLvVn4vJ0CAAAECBAgQIECAAAECBAgQIECAAAECBAjMEpB+Z8k6l0BMAek35l5MRYAAAQIECBAgQIAAAQIECBAgQIAAAQIECBC4KCD9XgT0OIFkAtJvsoUZlwABAgQIECBAgAABAgQIECBAgAABAgQIECBwTED6PebkWwSqCEi/VTbpHgQIECBAgAABAgQIECBAgAABAgQIECBAgACBBwHp94HDfwiUF5B+y6/YBQkQIECAAAECBAgQIECAAAECBAgQIECAAIGeAtJvz727dV8B6bfv7t2cAAECBAgQIECAAAECBAgQIECAAAECBAgQKC0g/ZZer8sReBKQfp9I/IEAAQIECBAgQIAAAQIECBAgQIAAAQIECBAgUEFA+q2wRXcgcFxA+j1u5ZsECBAgQIAAAQIECBAgQIAAAQIECBAgQIAAgUQC0m+iZRmVwAAB6XcAoiMIECBAgAABAgQIECBAgAABAgQIECBAgAABAvEEpN94OzERgZkC0u9MXWcTIECAAAECBAgQIECAAAECBAgQIECAAAECBLYJSL/b6L2YwBYB6XcLu5cSIECAAAECBAgQIECAAAECBAgQIECAAAECBGYLSL+zhZ1PIJaA9BtrH6YhQIAAAQIECBAgQIAAAQIECBAgQIAAAQIECAwSkH4HQTqGQBIB6TfJooxJgAABAgQIECBAgAABAgQIECBAgAABAgQIEDgnIP2e8/JtAtkFpN/sGzQ/AQIECBAgQIAAAQIECBAgQIAAAQIECBAgQOClgPT7ksUfCZQVkH7LrtbFCBAgQIAAAQIECBAgQIAAAQIECBAgQIAAgd4C0m/v/bt9PwHpt9/O3ZgAAQIECBAgQIAAAQIECBAgQIAAAQIECBBoISD9tlizSxK4C0i/dwr/IECAAAECBAgQIECAAAECBAgQIECAAAECBAhUEpB+K23TXQh8F5B+vxv5BgECBAgQIECAAAECBAgQIECAAAECBAgQIEAgoYD0m3BpRiZwQUD6vYDnUQIECBAgQIAAAQIECBAgQIAAAQIECBAgQIBAXAHpN+5uTEZghoD0O0PVmQQIECBAgAABAgQIECBAgAABAgQIECBAgACB7QLS7/YVGIDAUgHpdym3lxEgQIAAAQIECBAgQIAAAQIECBAgQIAAAQIEVglIv6ukvYdADAHpN8YeTEGAAAECBAgQIECAAAECBAgQIECAAAECBAgQGCwg/Q4GdRyB4ALSb/AFGY8AAQIECBAgQIAAAQIECBAgQIAAAQIECBAg8JuA9Pubm6cIZBWQfrNuztwECBAgQIAAAQIECBAgQIAAAQIECBAgQIAAgY8C0u9HHh8SKCcg/ZZbqQsRIECAAAECBAgQIECAAAECBAgQIECAAAECBG4C0q/fAYFeAtJvr327LQECBAgQIECAAAECBAgQIECAAAECBAgQINBGQPpts2oXJfAvIP36IRAgQIAAAQIECBAgQIAAAQIECBAgQIAAAQIESgpIvyXX6lIE3gpIv29pfECAAAECBAgQIECAAAECBAgQIECAAAECBAgQyCwg/WbentkJnBeQfs+beYIAAQIECBAgQIAAAQIECBAgQIAAAQIECBAgkEBA+k2wJCMSGCgg/Q7EdBQBAgQIECBAgAABAgQIECBAgAABAgQIECBAII6A9BtnFyYhsEJA+l2h7B0ECBAgQIAAAQIECBAgQIAAAQIECBAgQIAAgeUC0u9yci8ksFVA+t3K7+UECBAgQIAAAQIECBAgQIAAAQIECBAgQIAAgVkC0u8sWecSiCkg/cbci6kIECBAgAABAgQIECBAgAABAgQIECBAgAABAhcFpN+LgB4nkExA+k22MOMSIECAAAECBAgQIECAAAECBAgQIECAAAECBI4JSL/HnHyLQBUB6bfKJt2DAAECBAgQIECAAAECBAgQIECAAAECBAgQIPAgIP0+cPgPgfIC0m/5FbsgAQIECBAgQIAAAQIECBAgQIAAAQIECBAg0FNA+u25d7fuKyD99t29mxMgQIAAAQIECBAgQIAAAQIECBAgQIAAAQKlBaTf0ut1OQJPAtLvE4k/ECBAgAABAgQIECBAgAABAgQIECBAgAABAgQqCEi/FbboDgSOC0i/x618kwABAgQIECBAgAABAgQIECBAgAABAgQIECCQSED6TbQsoxIYICD9DkB0BAECBAgQIECAAAECBAgQIECAAAECBAgQIEAgnoD0G28nJiIwU0D6nanrbAIECBAgQIAAAQIECBAgQIAAAQIECBAgQIDANgHpdxu9FxPYIiD9bmH3UgIECBAgQIAAAQIECBAgQIAAAQIECBAgQIDAbAHpd7aw8wnEEpB+Y+3DNAQIECBAgAABAgQIECBAgAABAgQIECBAgACBQQLS7yBIxxBIIiD9JlmUMQkQIECAAAECBAgQIECAAAECBAgQIECAAAEC5wSk33Nevk0gu4D0m32D5idAgAABAgQIECBAgAABAgQIECBAgAABAgQIvBSQfl+y+COBsgLSb9nVuhgBAgQIECBAgAABAgQIECBAgAABAgQIECDQW0D67b1/t+8nIP3227kbEyBAgAABAgQIECBAgAABAgQIECBAgAABAi0EpN8Wa3ZJAncB6fdO4R8ECBAgQIAAAQIECBAgQIAAAQIECBAgQIAAgUoC0m+lbboLge8C0u93I98gQIAAAQIECBAgQIAAAQIECBAgQIAAAQIECCQUkH4TLs3IBC4ISL8X8DxKgAABAgQIECBAgAABAgQIECBAgAABAgQIEIgrIP3G3Y3JCMwQkH5nqDqTAAECBAgQIECAAAECBAgQIECAAAECBAgQILBdQPrdvgIDEFgqIP0u5fYyAgQIECBAgAABAgQIECBAgAABAgQIECBAgMAqAel3lbT3EIghIP3G2IMpCBAgQIAAAQIECBAgQIAAAQIECBAgQIAAAQKDBaTfwaCOIxBcQPoNviDjESBAgAABAgQIECBAgAABAgQIECBAgAABAgR+E5B+f3PzFIGsAtJv1s2ZmwABAgQIECBAgAABAgQIECBAgAABAgQIECDwUUD6/cjjQwLlBKTfcit1IQIECBAgQIAAAQIECBAgQIAAAQIECBAgQIDATUD69Tsg0EtA+u21b7clQIAAAQIECBAgQIAAAQIECBAgQIAAAQIE2ghIv21W7aIE/gWkXz8EAgQIECBAgAABAgQIECBAgAABAgQIECBAgEBJAem35FpdisBbAen3LY0PCBAgQIAAAQIECBAgQIAAAQIECBAgQIAAAQKZBaTfzNszO4HzAtLveTNPECBAgAABAgQIECBAgAABAgQIECBAgAABAgQSCEi/CZZkRAIDBaTfgZiOIkCAAAECBAgQIECAAAECBAgQIECAAAECBAjEEZB+4+zCJARWCEi/K5S9gwABAgQIECBAgAABAgQIECBAgAABAgQIECCwXED6XU7uhQS2Cki/W/m9nAABAgQIECBAgAABAgQIECBAgAABAgQIECAwS0D6nSXrXAIxBaTfmHsxFQECBAgQIECAAAECBAgQIECAAAECBAgQIEDgooD0exHQ4wSSCUi/yRZmXAIECBAgQIAAAQIECBAgQIAAAQIECBAgQIDAMQHp95iTbxGoIiD9VtmkexAgQIAAAQIECBAgQIAAAQIECBAgQIAAAQIEHgSk3wcO/yFQXkD6Lb9iFyRAgAABAgQIECBAgAABAgQIECBAgAABAgR6Cki/Pffu1n0FpN++u3dzAgQIECBAgAABAgQIECBAgAABAgQIECBAoLSA9Ft6vS5H4ElA+n0i8QcCBAgQIECAAAECBAgQIECAAAECBAgQIECAQAUB6bfCFt2BwHEB6fe4lW8SIECAAAECBAgQIECAAAECBAgQIECAAAECBBIJSL+JlmVUAgMEpN8BiI4gQIAAAQIECBAgQIAAAQIECBAgQIAAAQIECMQTkH7j7cREBGYKSL8zdZ1NgAABAgQIECBAgAABAgQIECBAgAABAgQIENgmIP1uo/diAlsEpN8t7F5KgAABAgQIECBAgAABAgQIECBAgAABAgQIEJgtIP3OFnY+gVgC0m+sfZiGAAECBAgQIECAAAECBAgQIECAAAECBAgQIDBIQPodBOkYAkkEpN8kizImAQIECBAgQIAAAQIECBAgQIAAAQIECBAgQOCcgPR7zsu3CWQXkH6zb9D8BAgQIECAAAECBAgQIECAAAECBAgQIECAAIGXAtLvSxZ/JFBWQPotu1oXI0CAAAECBAgQIECAAAECBAgQIECAAAECBHoLSL+99+/2/QSk3347d2MCBAgQIECAAAECBAgQIECAAAECBAgQIECghYD022LNLkngLiD93in8gwABAgQIECBAgAABAgQIECBAgAABAgQIECBQSUD6rbRNdyHwXUD6/W7kGwQIECBAgAABAgQIECBAgAABAgQIECBAgACBhALSb8KlGZnABQHp9wKeRwkQIECAAAECBAgQIECAAAECBAgQIECAAAECcQWk37i7MRmBGQLS7wxVZxIgQIAAAQIECBAgQIAAAQIECBAgQIAAAQIEtgtIv9tXYAACSwWk36XcXkaAAAECBAgQIECAAAECBAgQIECAAAECBAgQWCUg/a6S9h4CMQSk3xh7MAUBAgQIECBAgAABAgQIECBAgAABAgQIECBAYLCA9DsY1HEEggtIv8EXZDwCBAgQIECAAAECBAgQIECAAAECBAgQIECAwG8C0u9vbp4ikFVA+s26OXMTIECAAAECBAgQIECAAAECBAgQIECAAAECBD4KSL8feXxIoJyA9FtupS5EgAABAgQIECBAgAABAgQIECBAgAABAgQIELgJSL9+BwR6CUi/vfbttgQIECBAgAABAgQIECBAgAABAgQIECBAgEAbAem3zapdlMC/gPTrh0CAAAECBAgQIECAAAECBAgQIECAAAECBAgQKCkg/ZZcq0sReCsg/b6l8QEBAgQIECBAgAABAgQIECBAgAABAgQIECBAILOA9Jt5e2YncF5A+j1v5gkCBAgQIECAAAECBAgQIECAAAECBAgQIECAQAIB6TfBkoxIYKCA9DsQ01EECBAgQIAAAQIECBAgQIAAAQIECBAgQIAAgTgC0m+cXZiEwAoB6XeFsncQIECAAAECBAgQIECAAAECBAgQIECAAAECBJYLSL/Lyb2QwFYB6Xcrv5cTIECAAAECBAgQIECAAAECBAgQIECAAAECBGYJSL+zZJ1LIKaA9BtzL6YiQIAAAQIECBAgQIAAAQIECBAgQIAAAQIECFwUkH4vAnqcQDIB6TfZwoxLgAABAgQIECBAgAABAgQIECBAgAABAgQIEDgmIP0ec/ItAlUEpN8qm3QPAgQIECBAgAABAgQIECBAgAABAgQIECBAgMCDgPT7wOE/BMoLSL/lV+yCBAgQIECAAAECBAgQIECAAAECBAgQIECAQE8B6bfn3t26r4D023f3bk6AAAECBAgQIECAAAECBAgQIECAAAECBAiUFpB+S6/X5Qg8CUi/TyT+QIAAAQIECBAgQIAAAQIECBAgQIAAAQIECBCoICD9VtiiOxA4LiD9HrfyTQIECBAgQIAAAQIECBAgQIAAAQIECBAgQIBAIgHpN9GyjEpggID0OwDREQQIECBAgAABAgQIECBAgAABAgQIECBAgACBeALSb7ydmIjATAHpd6auswkQIECAAAECBAgQIECAAAECBAgQIECAAAEC2wSk3230Xkxgi4D0u4XdSwkQIECAAAECBAgQIECAAAECBAgQIECAAAECswWk39nCzicQS0D6jbUP0xAgQIAAAQIECBAgQIAAAQIECBAgQIAAAQIEBglIv4MgHUMgiYD0m2RRxiRAgAABAgQIECBAgAABAgQIECBAgAABAgQInBOQfs95+TaB7ALSb/YNmp8AAQIECBAgQIAAAQIECBAgQIAAAQIECBAg8FJA+n3J4o8EygpIv2VX62IECBAgQIAAAQIECBAgQIAAAQIECBAgQIBAbwHpt/f+3b6fgPTbb+duTIAAAQIECBAgQIAAAQIECBAgQIAAAQIECLQQkH5brNklCdwFpN87hX8QIECAAAECBAgQIECAAAECBAgQIECAAAECBCoJSL+VtukuBL4LSL/fjXyDAAECBAgQIECAAAECBAgQIECAAAECBAgQIJBQQPpNuDQjE7ggIP1ewPMoAQIECBAgQIAAAQIECBAgQIAAAQIECBAgQCCugPQbdzcmIzBDQPqdoepMAgQIECBAgAABAgQIECBAgAABAgQIECBAgMB2Ael3+woMQGCpgPS7lNvLCBAgQIAAAQIECBAgQIAAAQIECBAgQIAAAQKrBKTfVdLeQyCGgPQbYw+mIECAAAECBAgQIECAAAECBAgQIECAAAECBAgMFpB+B4M6jkBwAek3+IKMR4AAAQIECBAgQIAAAQIECBAgQIAAAQIECBD4TUD6/c3NUwSyCki/WTdnbgIECBAgQIAAAQIECBAgQIAAAQIECBAgQIDARwHp9yOPDwmUE5B+y63UhQgQIECAAAECBAgQIECAAAECBAgQIECAAAECNwHp1++AQC8B6bfXvt2WAAECBAgQIECAAAECBAgQIECAAAECBAgQaCMg/bZZtYsS+BeQfv0QCBAgQIAAAQIECBAgQIAAAQIECBAgQIAAAQIlBaTfkmt1KQJvBaTftzQ+IECAAAECBAgQIECAAAECBAgQIECAAAECBAhkFpB+M2/P7ATOC0i/5808QYAAAQIECBAgQIAAAQIECBAgQIAAAQIECBBIICD9JliSEQkMFJB+B2I6igABAgQIECBAgAABAgQIECBAgAABAgQIECAQR0D6jbMLkxBYISD9rlD2DgIECBAgQIAAAQIECBAgQIAAAQIECBAgQIDAcgHpdzm5FxLYKiD9buX3cgIECBAgQIAAAQIECBAgQIAAAQIECBAgQIDALAHpd5ascwnEFJB+Y+7FVAQIECBAgAABAgQIECBAgAABAgQIECBAgACBiwLS70VAjxNIJiD9JluYcQkQIECAAAECBAgQIECAAAECBAgQIECAAAECxwSk32NOvkWgioD0W2WT7kGAAAECBAgQIECAAAECBAgQIECAAAECBAgQeBCQfh84/IdAeQHpt/yKXZAAAQIECBAgQIAAAQIECBAgQIAAAQIECBDoKSD99ty7W/cVkH777t7NCRAgQIAAAQIECBAgQIAAAQIECBAgQIAAgdIC0m/p9bocgScB6feJxB8IECBAgAABAgQIECBAgAABAgQIECBAgAABAhUEpN8KW3QHAscFpN/jVr5JgAABAgQIECBAgAABAgQIECBAgAABAgQIEEgkIP0mWpZRCQwQkH4HIDqCAAECBAgQIECAAAECBAgQIECAAAECBAgQIBBPQPqNtxMTEZgpIP3O1HU2AQIECBAgQIAAAQIECBAgQIAAAQIECBAgQGCbgPS7jd6LCWwRkH63sHspAQIECBAgQIAAAQIECBAgQIAAAQIECBAgQGC2gPQ7W9j5BGIJSL+x9mEaAgQIECBAgAABAgQIECBAgAABAgQIECBAgMAgAel3EKRjCCQRkH6TLMqYBAgQIECAAAECBAgQIECAAAECBAgQIECAAIFzAtLvOS/fJpBdQPrNvkHzEyBAgAABAgQIECBAgAABAgQIECBAgAABAgReCki/L1n8kUBZAem37GpdjAABAgQIECBAgAABAgQIECBAgAABAgQIEOgtIP323r/b9xOQfvvt3I0JECBAgAABAgQIECBAgAABAgQIECBAgACBFgLSb4s1uySBu4D0e6fwDwIECBAgQIAAAQIECBAgV4EA+wAAIABJREFUQIAAAQIECBAgQIBAJQHpt9I23YXAdwHp97uRbxAgQIAAAQIECBAgQIAAAQIECBAgQIAAAQIEEgpIvwmXZmQCFwSk3wt4HiVAgAABAgQIECBAgAABAgQIECBAgAABAgQIxBWQfuPuxmQEZghIvzNUnUmAAAECBAgQIECAAAECBAgQIECAAAECBAgQ2C4g/W5fgQEILBWQfpdyexkBAgQIECBAgAABAgQIECBAgAABAgQIECBAYJWA9LtK2nsIxBCQfmPswRQECBAgQIAAAQIECBAgQIAAAQIECBAgQIAAgcEC0u9gUMcRCC4g/QZfkPEIECBAgAABAgQIECBAgAABAgQIECBAgAABAr8JSL+/uXmKQFYB6Tfr5sxNgAABAgQIECBAgAABAgQIECBAgAABAgQIEPgoIP1+5PEhgXIC0m+5lboQAQIECBAgQIAAAQIECBAgQIAAAQIECBAgQOAmIP36HRDoJSD99tq32xIgQIAAAQIECBAgQIAAAQIECBAgQIAAAQJtBKTfNqt2UQL/AtKvHwIBAgQIECBAgAABAgQIECBAgAABAgQIECBAoKSA9FtyrS5F4K2A9PuWxgcECBAgQIAAAQIECBAgQIAAAQIECBAgQIAAgcwC0m/m7ZmdwHkB6fe8mScIECBAgAABAgQIECBAgAABAgQIECBAgAABAgkEpN8ESzIigYEC0u9ATEcRIECAAAECBAgQIECAAAECBAgQIECAAAECBOIISL9xdmESAisEpN8Vyt5BgAABAgQIECBAgAABAgQIECBAgAABAgQIEFguIP0uJ/dCAlsFpN+t/F5OgAABAgQIECBAgAABAgQIECBAgAABAgQIEJglIP3OknUugZgC0m/MvZiKAAECBAgQIECAAAECBAgQIECAAAECBAgQIHBRQPq9COhxAskEpN9kCzMuAQIECBAgQIAAAQIECBAgQIAAAQIECBAgQOCYgPR7zMm3CFQRkH6rbNI9CBAgQIAAAQIECBAgQIAAAQIECBAgQIAAAQIPAtLvA4f/ECgvIP2WX7ELEiBAgAABAgQIECBAgAABAgQIECBAgAABAj0FpN+ee3frvgLSb9/duzkBAgQIECBAgAABAgQIECBAgAABAgQIECBQWkD6Lb1elyPwJCD9PpH4AwECBAgQIECAAAECBAgQIECAAAECBAgQIECggoD0W2GL7kDguID0e9zKNwkQIECAAAECBAgQIECAAAECBAgQIECAAAECiQSk30TLMiqBAQLS7wBERxAgQIAAAQIECBAgQIAAAQIECBAgQIAAAQIE4glIv/F2YiICMwWk35m6ziZAgAABAgQIECBAgAABAgQIECBAgAABAgQIbBOQfrfRezGBLQLS7xZ2LyVAgAABAgQIECBAgAABAgQIECBAgAABAgQIzBaQfmcLO59ALAHpN9Y+TEOAAAECBAgQIECAAAECBAgQIECAAAECBAgQGCQg/Q6CdAyBJALSb5JFGZMAAQIECBAgQIAAAQIECBAgQIAAAQIECBAgcE5A+j3n5dsEsgtIv9k3aH4CBAgQIECAAAECBAgQIECAAAECBAgQIECAwEsB6fcliz8SKCsg/ZZdrYsRIECAAAECBAgQIECAAAECBAgQIECAAAECvQWk3977d/t+AtJvv527MQECBAgQIECAAAECBAgQIECAAAECBAgQINBCQPptsWaXJHAXkH7vFP5BgAABAgQIECBAgAABAgQIECBAgAABAgQIEKgkIP1W2qa7EPguIP1+N/INAgQIECBAgAABAgQIECBAgAABAgQIECBAgEBCAek34dKMTOCCgPR7Ac+jBAgQIECAAAECBAgQIECAAAECBAgQIECAAIG4AtJv3N2YjMAMAel3hqozCRAgQIAAAQIECBAgQIAAAQIECBAgQIAAAQLbBaTf7SswAIGlAtLvUm4vI0CAAAECBAgQIECAAAECBAgQIECAAAECBAisEpB+V0l7D4EYAtJvjD2YggABAgQIECBAgAABAgQIECBAgAABAgQIECAwWED6HQzqOALBBaTf4AsyHgECBAgQIECAAAECBAgQIECAAAECBAgQIEDgNwHp9zc3TxHIKiD9Zt2cuQkQIECAAAECBAgQIECAAAECBAgQIECAAAECHwWk3488PiRQTkD6LbdSFyJAgAABAgQIECBAgAABAgQIECBAgAABAgQI3ASkX78DAr0EpN9e+3ZbAgQIECBAgAABAgQIECBAgAABAgQIECBAoI2A9Ntm1S5K4F9A+vVDIECAAAECBAgQIECAAAECBAgQIECAAAECBAiUFJB+S67VpQi8FZB+39L4gAABAgQIECBAgAABAgQIECBAgAABAgQIECCQWUD6zbw9sxM4LyD9njfzBAECBAgQIECAAAECBAgQIECAAAECBAgQIEAggYD0m2BJRiQwUED6HYjpKAIECBAgQIAAAQIECBAgQIAAAQIECBAgQIBAHAHpN84uTEJghYD0u0LZOwgQIECAAAECBAgQIECAAAECBAgQIECAAAECywWk3+XkXkhgq4D0u5XfywkQIECAAAECBAgQIECAAAECBAgQIECAAAECswSk31myziUQU0D6jbkXUxEgQIAAAQIECBAgQIAAAQIECBAgQIAAAQIELgpIvxcBPU4gmYD0m2xhxiVAgAABAgQIECBAgAABAgQIECBAgAABAgQIHBOQfo85+RaBKgLSb5VNugcBAgQIECBAgAABAgQIECBAgAABAgQIECBA4EFA+n3g8B8C5QWk3/IrdkECBAgQIECAAAECBAgQIECAAAECBAgQIECgp4D023Pvbt1XQPrtu3s3J0CAAAECBAgQIECAAAECBAgQIECAAAECBEoLSL+l1+tyBJ4EpN8nEn8gQIAAAQIECBAgQIAAAQIECBAgQIAAAQIECFQQkH4rbNEdCBwXkH6PW/kmAQIECBAgQIAAAQIECBAgQIAAAQIECBAgQCCRgPSbaFlGJTBAQPodgOgIAgQIECBAgAABAgQIECBAgAABAgQIECBAgEA8Aek33k5MRGCmgPQ7U9fZBAgQIECAAAECBAgQIECAAAECBAgQIECAAIFtAtLvNnovJrBFQPrdwu6lBAgQIECAAAECBAgQIECAAAECBAgQIECAAIHZAtLvbGHnE4glIP3G2odpCBAgQIAAAQIECBAgQIAAAQIECBAgQIAAAQKDBKTfQZCOIZBEQPpNsihjEiBAgAABAgQIECBAgAABAgQIECBAgAABAgTOCUi/57x8m0B2Aek3+wbNT4AAAQIECBAgQIAAAQIECBAgQIAAAQIECBB4KSD9vmTxRwJlBaTfsqt1MQIECBAgQIAAAQIECBAgQIAAAQIECBAgQKC3gPTbe/9u309A+u23czcmQIAAAQIECBAgQIAAAQIECBAgQIAAAQIEWghIvy3W7JIE7gLS753CPwgQIECAAAECBAgQIECAAAECBAgQIECAAAEClQSk30rbdBcC3wWk3+9GvkGAAAECBAgQIECAAAECBAgQIECAAAECBAgQSCgg/SZcmpEJXBCQfi/geZQAAQIECBAgQIAAAQIECBAgQIAAAQIECBAgEFdA+o27G5MRmCEg/c5QdSYBAgQIECBAgAABAgQIECBAgAABAgQIECBAYLuA9Lt9BQYgsFRA+l3K7WUECBAgQIAAAQIECBAgQIAAAQIECBAgQIAAgVUC0u8qae8hEENA+o2xB1MQIECAAAECBAgQIECAAAECBAgQIECAAAECBAYLSL+DQR1HILiA9Bt8QcYjQIAAAQIECBAgQIAAAQIECBAgQIAAAQIECPwmIP3+5uYpAlkFpN+smzM3AQIECBAgQIAAAQIECBAgQIAAAQIECBAgQOCjgPT7kceHBMoJSL/lVupCBAgQIECAAAECBAgQIECAAAECBAgQIECAAIGbgPTrd0Cgl4D022vfbkuAAAECBAgQIECAAAECBAgQIECAAAECBAi0EZB+26zaRQn8C0i/fggECBAgQIAAAQIECBAgQIAAAQIECBAgQIAAgZIC0m/JtboUgbcC0u9bGh8QIECAAAECBAgQIECAAAECBAgQIECAAAECBDILSL+Zt2d2AucFpN/zZp4gQIAAAQIECBAgQIAAAQIECBAgQIAAAQIECCQQkH4TLMmIBAYKSL8DMR1FgAABAgQIECBAgAABAgQIECBAgAABAgQIEIgjIP3G2YVJCKwQkH5XKHsHAQIECBAgQIAAAQIECBAgQIAAAQIECBAgQGC5gPS7nNwLCWwVkH638ns5AQIECBAgQIAAAQIECBAgQIAAAQIECBAgQGCWgPQ7S9a5BGIKSL8x92IqAgQIECBAgAABAgQIECBAgAABAgQIECBAgMBFAen3IqDHCSQTkH6TLcy4BAgQIECAAAECBAgQIECAAAECBAgQIECAAIFjAtLvMSffIlBFQPqtskn3IECAAAECBAgQIECAAAECBAgQIECAAAECBAg8CEi/Dxz+Q6C8gPRbfsUuSIAAAQIECBAgQIAAAQIECBAgQIAAAQIECPQUkH577t2t+wpIv3137+YECBAgQIAAAQIECBAgQIAAAQIECBAgQIBAaQHpt/R6XY7Ak4D0+0TiDwQIECBAgAABAgQIECBAgAABAgQIECBAgACBCgLSb4UtugOB4wLS73Er3yRAgAABAgQIECBAgAABAgQIECBAgAABAgQIJBKQfhMty6gEBghIvwMQHUGAAAECBAgQIECAAAECBAgQIECAAAECBAgQiCcg/cbbiYkIzBSQfmfqOpsAAQIECBAgQIAAAQIECBAgQIAAAQIECBAgsE1A+t1G78UEtghIv1vYvZQAAQIECBAgQIAAAQIECBAgQIAAAQIECBAgMFtA+p0t7HwCsQSk31j7MA0BAgQIECBAgAABAgQIECBAgAABAgQIECBAYJCA9DsI0jEEkghIv0kWZUwCBAgQIECAAAECBAgQIECAAAECBAgQIECAwDkB6fecl28TyC4g/WbfoPkJECBAgAABAgQIECBAgAABAgQIECBAgAABAi8FpN+XLP5IoKyA9Ft2tS5GgAABAgQIECBAgAABAgQIECBAgAABAgQI9BaQfnvv3+37CUi//XbuxgQIECBAgAABAgQIECBAgAABAgQIECBAgEALAem3xZpdksBdQPq9U/gHAQIECBAgQIAAAQIECBAgQIAAAQIECBAgQKCSgPRbaZvuQuC7gPT73cg3CBAgQIAAAQIECBAgQIAAAQIECBAgQIAAAQIJBaTfhEszMoELAtLvBTyPEiBAgAABAgQIECBAgAABAgQIECBAgAABAgTiCki/cXdjMgIzBKTfGarOJECAAAECBAgQIECAAAECBAgQIECAAAECBAhsF5B+t6/AAASWCki/S7m9jAABAgQIECBAgAABAgQIECBAgAABAgQIECCwSkD6XSXtPQRiCEi/MfZgCgIECBAgQIAAAQIECBAgQIAAAQIECBAgQIDAYAHpdzCo4wgEF5B+gy/IeAQIECBAgAABAgQIECBAgAABAgQIECBAgACB3wSk39/cPEUgq4D0m3Vz5iZAgAABAgQIECBAgAABAgQIECBAgAABAgQIfBSQfj/y+JBAOQHpt9xKXYgAAQIECBAgQIAAAQIECBAgQIAAAQIECBAgcBOQfv0OCPQSkH577dttCRAgQIAAAQIECBAgQIAAAQIECBAgQIAAgTYC0m+bVbsogX8B6dcPgQABAgQIECBAgAABAgQIECBAgAABAgQIECBQUkD6LblWlyLwVkD6fUvjAwIECBAgQIAAAQIECBAgQIAAAQIECBAgQIBAZgHpN/P2zE7gvID0e97MEwQIECBAgAABAgQIECBAgAABAgQIECBAgACBBALSb4IlGZHAQAHpdyCmowgQIECAAAECBAgQIECAAAECBAgQIECAAAECcQSk3zi7MAmBFQLS7wpl7yBAgAABAgQIECBAgAABAgQIECBAgAABAgQILBeQfpeTeyGBrQLS71Z+LydAgAABAgQIECBAgAABAgQIECBAgAABAgQIzBKQfmfJOpdATAHpN+ZeTEWAAAECBAgQIECAAAECBAgQIECAAAECBAgQuCgg/V4E9DiBZALSb7KFGZcAAQIECBAgQIAAAQIECBAgQIAAAQIECBAgcExA+j3m5FsEqghIv1U26R4ECBAgQIAAAQIECBAgQIAAAQIECBAgQIAAgQcB6feBw38IlBeQfsuv2AUJECBAgAABAgQIECBAgAABAgQIECBAgACBngLSb8+9u3VfAem37+7dnAABAgQIECBAgAABAgQIECBAgAABAgQIECgtIP2WXq/LEXgS+GvPPnIbBoIACP7/14Z8ECAokeKGCXWzFZazNbq19PtE4gUCBAgQIECAAAECBAgQIECAAAECBAgQIECAQAUB6bfCFt2BwHEB6fe4lU8SIECAAAECBAgQIECAAAECBAgQIECAAAECBBIJSL+JlmVUAgMEpN8BiI4gQIAAAQIECBAgQIAAAQIECBAgQIAAAQIECMQTkH7j7cREBGYKSL8zdZ1NgAABAgQIECBAgAABAgQIECBAgAABAgQIENgmIP1uo/dgAlsEpN8t7B5KgAABAgQIECBAgAABAgQIECBAgAABAgQIEJgtIP3OFnY+gVgC0m+sfZiGAAECBAgQIECAAAECBAgQIECAAAECBAgQIDBIQPodBOkYAkkEpN8kizImAQIECBAgQIAAAQIECBAgQIAAAQIECBAgQOCcgPR7zsunCWQXkH6zb9D8BAgQIECAAAECBAgQIECAAAECBAgQIECAAIGXAtLvSxYvEigrIP2WXa2LESBAgAABAgQIECBAgAABAgQIECBAgAABAr0FpN/e+3f7fgLSb7+duzEBAgQIECBAgAABAgQIECBAgAABAgQIECDQQkD6bbFmlyRwF5B+7xT+IECAAAECBAgQIECAAAECBAgQIECAAAECBAhUEpB+K23TXQh8F5B+vxv5BAECBAgQIECAAAECBAgQIECAAAECBAgQIEAgoYD0m3BpRiZwQUD6vYDnqwQIECBAgAABAgQIECBAgAABAgQIECBAgACBuALSb9zdmIzADAHpd4aqMwkQIECAAAECBAgQIECAAAECBAgQIECAAAEC2wWk3+0rMACBpQLS71JuDyNAgAABAgQIECBAgAABAgQIECBAgAABAgQIrBKQfldJew6BGALSb4w9mIIAAQIECBAgQIAAAQIECBAgQIAAAQIECBAgMFhA+h0M6jgCwQWk3+ALMh4BAgQIECBAgAABAgQIECBAgAABAgQIECBA4DcB6fc3N98ikFVA+s26OXMTIECAAAECBAgQIECAAAECBAgQIECAAAECBD4KSL8febxJoJyA9FtupS5EgAABAgQIECBAgAABAgQIECBAgAABAgQIELgJSL9+BwR6CUi/vfbttgQIECBAgAABAgQIECBAgAABAgQIECBAgEAbAem3zapdlMC/gPTrh0CAAAECBAgQIECAAAECBAgQIECAAAECBAgQKCkg/ZZcq0sReCsg/b6l8QYBAgQIECBAgAABAgQIECBAgAABAgQIECBAILOA9Jt5e2YncF5A+j1v5hsECBAgQIAAAQIECBAgQIAAAQIECBAgQIAAgQQC0m+CJRmRwEAB6XcgpqMIECBAgAABAgQIECBAgAABAgQIECBAgAABAnEEpN84uzAJgRUC0u8KZc8gQIAAAQIECBAgQIAAAQIECBAgQIAAAQIECCwXkH6Xk3sgga0C0u9Wfg8nQIAAAQIECBAgQIAAAQIECBAgQIAAAQIECMwSkH5nyTqXQEwB6TfmXkxFgAABAgQIECBAgAABAgQIECBAgAABAgQIELgoIP1eBPR1AskEpN9kCzMuAQIECBAgQIAAAQIECBAgQIAAAQIECBAgQOCYgPR7zMmnCFQRkH6rbNI9CBAgQIAAAQIECBAgQIAAAQIECBAgQIAAAQIPAtLvA4d/CJQXkH7Lr9gFCRAgQIAAAQIECBAgQIAAAQIECBAgQIAAgZ4C0m/Pvbt1XwHpt+/u3ZwAAQIECBAgQIAAAQIECBAgQIAAAQIECBAoLSD9ll6vyxF4EpB+n0i8QIAAAQIECBAgQIAAAQIECBAgQIAAAQIECBCoICD9VtiiOxA4LiD9HrfySQIECBAgQIAAAQIECBAgQIAAAQIECBAgQIBAIgHpN9GyjEpggID0OwDREQQIECBAgAABAgQIECBAgAABAgQIECBAgACBeALSb7ydmIjATAHpd6auswkQIECAAAECBAgQIECAAAECBAgQIECAAAEC2wSk3230Hkxgi4D0u4XdQwkQIECAAAECBAgQIECAAAECBAgQIECAAAECswWk39nCzicQS0D6jbUP0xAgQIAAAQIECBAgQIAAAQIECBAgQIAAAQIEBglIv4MgHUMgiYD0m2RRxiRAgAABAgQIECBAgAABAgQIECBAgAABAgQInBOQfs95+TSB7ALSb/YNmp8AAQIECBAgQIAAAQIECBAgQIAAAQIECBAg8FJA+n3J4kUCZQWk37KrdTECBAgQIECAAAECBAgQIECAAAECBAgQIECgt4D023v/bt9PQPrtt3M3JkCAAAECBAgQIECAAAECBAgQIECAAAECBFoISL8t1uySBO4C0u+dwh8ECBAgQIAAAQIECBAgQIAAAQIECBAgQIAAgUoC0m+lbboLge8C0u93I58gQIAAAQIECBAgQIAAAQIECBAgQIAAAQIECCQUkH4TLs3IBC4ISL8X8HyVAAECBAgQIECAAAECBAgQIECAAAECBAgQIBBXQPqNuxuTEZghIP3OUHUmAQIECBAgQIAAAQIECBAgQIAAAQIECBAgQGC7gPS7fQUGILBUQPpdyu1hBAgQIECAAAECBAgQIECAAAECBAgQIECAAIFVAtLvKmnPIRBDQPqNsQdTECBAgAABAgQIECBAgAABAgQIECBAgAABAgQGC0i/g0EdRyC4gPQbfEHGI0CAAAECBAgQIECAAAECBAgQIECAAAECBAj8JiD9/ubmWwSyCki/WTdnbgIECBAgQIAAAQIECBAgQIAAAQIECBAgQIDARwHp9yOPNwmUE5B+y63UhQgQIECAAAECBAgQIECAAAECBAgQIECAAAECNwHp1++AQC8B6bfXvt2WAAECBAgQIECAAAECBAgQIECAAAECBAgQaCMg/bZZtYsS+BeQfv0QCBAgQIAAAQIECBAgQIAAAQIECBAgQIAAAQIlBaTfkmt1KQJvBaTftzTeIECAAAECBAgQIECAAAECBAgQIECAAAECBAhkFpB+M2/P7ATOC0i/5818gwABAgQIECBAgAABAgQIECBAgAABAgQIECCQQED6TbAkIxIYKCD9DsR0FAECBAgQIECAAAECBAgQIECAAAECBAgQIEAgjoD0G2cXJiGwQkD6XaHsGQQIECBAgAABAgQIECBAgAABAgQIECBAgACB5QLS73JyDySwVUD63crv4QQIECBAgAABAgQIECBAgAABAgQIECBAgACBWQLS7yxZ5xKIKSD9xtyLqQgQIECAAAECBAgQIECAAAECBAgQIECAAAECFwWk34uAvk4gmYD0m2xhxiVAgAABAgQIECBAgAABAgQIECBAgAABAgQIHBOQfo85+RSBKgLSb5VNugcBAgQIECBAgAABAgQIECBAgAABAgQIECBA4EFA+n3g8A+B8gLSb/kVuyABAgQIECBAgAABAgQIECBAgAABAgQIECDQU0D67bl3t+4rIP323b2bEyBAgAABAgQIECBAgAABAgQIECBAgAABAqUFpN/S63U5Ak8C0u8TiRcIECBAgAABAgQIECBAgAABAgQIECBAgAABAhUEpN8KW3QHAscFpN/jVj5JgAABAgQIECBAgAABAgQIECBAgAABAgQIEEgkIP0mWpZRCQwQkH4HIDqCAAECBAgQIECAAAECBAgQIECAAAECBAgQIBBPQPqNtxMTEZgpIP3O1HU2AQIECBAgQIAAAQIECBAgQIAAAQIECBAgQGCbgPS7jd6DCWwRkH63sHsoAQIECBAgQIAAAQIECBAgQIAAAQIECBAgQGC2gPQ7W9j5BGIJSL+x9mEaAgQIECBAgAABAgQIECBAgAABAgQIECBAgMAgAel3EKRjCCQRkH6TLMqYBAgQIECAAAECBAgQIECAAAECBAgQIECAAIFzAtLvOS+fJpBdQPrNvkHzEyBAgAABAgQIECBAgAABAgQIECBAgAABAgReCki/L1m8SKCsgPRbdrUuRoAAAQIECBAgQIAAAQIECBAgQIAAAQIECPQWkH5779/t+wlIv/127sYECBAgQIAAAQIECBAgQIAAAQIECBAgQIBACwHpt8WaXZLAXUD6vVP4gwABAgQIECBAgAABAgQIECBAgAABAgQIECBQSUD6rbRNdyHwXUD6/W7kEwQIECBAgAABAgQIECBAgAABAgQIECBAgACBhALSb8KlGZnABQHp9wKerxIgQIAAAQIECBAgQIAAAQIECBAgQIAAAQIE4gpIv3F3YzICMwSk3xmqziRAgAABAgQIECBAgAABAgQIECBAgAABAgQIbBeQfrevwAAElgpIv0u5PYwAAQIECBAgQIAAAQIECBAgQIAAAQIECBAgsEpA+l0l7TkEYghIvzH2YAoCBAgQIECAAAECBAgQIECAAAECBAgQIECAwGAB6XcwqOMIBBeQfoMvyHgECBAgQIAAAQIECBAgQIAAAQIECBAgQIAAgd8EpN/f3HyLQFYB6Tfr5sxNgAABAgQIECBAgAABAgQIECBAgAABAgQIEPgoIP1+5PEmgXIC0m+5lboQAQIECBAgQIAAAQIECBAgQIAAAQIECBAgQOAmIP36HRDoJSD99tq32xIgQIAAAQIECBAgQIA5Cj1pAAALCElEQVQAAQIECBAgQIAAAQJtBKTfNqt2UQL/AtKvHwIBAgQIECBAgAABAgQIECBAgAABAgQIECBAoKSA9FtyrS5F4K2A9PuWxhsECBAgQIAAAQIECBAgQIAAAQIECBAgQIAAgcwC0m/m7ZmdwHkB6fe8mW8QIECAAAECBAgQIECAAAECBAgQIECAAAECBBIISL8JlmREAgMFpN+BmI4iQIAAAQIECBAgQIAAAQIECBAgQIAAAQIECMQRkH7j7MIkBFYISL8rlD2DAAECBAgQIECAAAECBAgQIECAAAECBAgQILBcQPpdTu6BBLYKSL9b+T2cAAECBAgQIECAAAECBAgQIECAAAECBAgQIDBLQPqdJetcAjEFpN+YezEVAQIECBAgQIAAAQIECBAgQIAAAQIECBAgQOCigPR7EdDXCSQTkH6TLcy4BAgQIECAAAECBAgQIECAAAECBAgQIECAAIFjAtLvMSefIlBFQPqtskn3IECAAAECBAgQIECAAAECBAgQIECAAAECBAg8CEi/Dxz+IVBeQPotv2IXJECAAAECBAgQIECAAAECBAgQIECAAAECBHoKSL899+7WfQWk3767d3MCBAgQIECAAAECBAgQIECAAAECBAgQIECgtID0W3q9LkfgSUD6fSLxAgECBAgQIECAAAECBAgQIECAAAECBAgQIECggoD0W2GL7kDguID0e9zKJwkQIECAAAECBAgQIECAAAECBAgQIECAAAECiQSk30TLMiqBAQLS7wBERxAgQIAAAQIECBAgQIAAAQIECBAgQIAAAQIE4glIv/F2YiICMwWk35m6ziZAgAABAgQIECBAgAABAgQIECBAgAABAgQIbBOQfrfRezCBLQLS7xZ2DyVAgAABAgQIECBAgAABAgQIECBAgAABAgQIzBaQfmcLO59ALAHpN9Y+TEOAAAECBAgQIECAAAECBAgQIECAAAECBAgQGCQg/Q6CdAyBJALSb5JFGZMAAQIECBAgQIAAAQIECBAgQIAAAQIECBAgcE5A+j3n5dMEsgtIv9k3aH4CBAgQIECAAAECBAgQIECAAAECBAgQIECAwEsB6fclixcJlBWQfsuu1sUIECBAgAABAgQIECBAgAABAgQIECBAgACB3gLSb+/9u30/Aem3387dmAABAgQIECBAgAABAgQIECBAgAABAgQIEGghIP22WLNLErgLSL93Cn8QIECAAAECBAgQIECAAAECBAgQIECAAAECBCoJSL+VtukuBL4LSL/fjXyCAAECBAgQIECAAAECBAgQIECAAAECBAgQIJBQQPpNuDQjE7ggIP1ewPNVAgQIECBAgAABAgQIECBAgAABAgQIECBAgEBcAek37m5MRmCGgPQ7Q9WZBAgQIECAAAECBAgQIECAAAECBAgQIECAAIHtAtLv9hUYgMBSAel3KbeHESBAgAABAgQIECBAgAABAgQIECBAgAABAgRWCUi/q6Q9h0AMAek3xh5MQYAAAQIECBAgQIAAAQIECBAgQIAAAQIECBAYLCD9DgZ1HIHgAtJv8AUZjwABAgQIECBAgAABAgQIECBAgAABAgQIECDwm4D0+5ubbxHIKiD9Zt2cuQkQIECAAAECBAgQIECAAAECBAgQIECAAAECHwWk34883iRQTkD6LbdSFyJAgAABAgQIECBAgAABAgQIECBAgAABAgQI3ASkX78DAr0EpN9e+3ZbAgQIECBAgAABAgQIECBAgAABAgQIECBAoI2A9Ntm1S5K4F9A+vVDIECAAAECBAgQIECAAAECBAgQIECAAAECBAiUFJB+S67VpQi8FZB+39J4gwABAgQIECBAgAABAgQIECBAgAABAgQIECCQWUD6zbw9sxM4LyD9njfzDQIECBAgQIAAAQIECBAgQIAAAQIECBAgQIBAAgHpN8GSjEhgoID0OxDTUQQIECBAgAABAgQIECBAgAABAgQIECBAgACBOALSb5xdmITACgHpd4WyZxAgQIAAAQIECBAgQIAAAQIECBAgQIAAAQIElgtIv8vJPZDAVgHpdyu/hxMgQIAAAQIECBAgQIAAAQIECBAgQIAAAQIEZglIv7NknUsgpoD0G3MvpiJAgAABAgQIECBAgAABAgQIECBAgAABAgQIXBSQfi8C+jqBZALSb7KFGZcAAQIECBAgQIAAAQIECBAgQIAAAQIECBAgcExA+j3m5FMEqghIv1U26R4ECBAgQIAAAQIECBAgQIAAAQIECBAgQIAAgQcB6feBwz8EygtIv+VX7IIECBAgQIAAAQIECBAgQIAAAQIECBAgQIBATwHpt+fe3bqvgPTbd/duToAAAQIECBAgQIAAAQIECBAgQIAAAQIECJQWkH5Lr9flCDwJSL9PJF4gQIAAAQIECBAgQIAAAQIECBAgQIAAAQIECFQQkH4rbNEdCBwXkH6PW/kkAQIECBAgQIAAAQIECBAgQIAAAQIECBAgQCCRgPSbaFlGJTBAQPodgOgIAgQIECBAgAABAgQIECBAgAABAgQIECBAgEA8Aek33k5MRGCmgPQ7U9fZBAgQIECAAAECBAgQIECAAAECBAgQIECAAIFtAtLvNnoPJrBFQPrdwu6hBAgQIECAAAECBAgQIECAAAECBAgQIECAAIHZAtLvbGHnE4glIP3G2odpCBAgQIAAAQIECBAgQIAAAQIECBAgQIAAAQKDBKTfQZCOIZBEQPpNsihjEiBAgAABAgQIECBAgAABAgQIECBAgAABAgTOCUi/57x8mkB2Aek3+wbNT4AAAQIECBAgQIAAAQIECBAgQIAAAQIECBB4KSD9vmTxIoGyAtJv2dW6GAECBAgQIECAAAECBAgQIECAAAECBAgQINBbQPrtvX+37ycg/fbbuRsTIECAAAECBAgQIECAAAECBAgQIECAAAECLQSk3xZrdkkCdwHp907hDwIECBAgQIAAAQIECBAgQIAAAQIECBAgQIBAJQHpt9I23YXAdwHp97uRTxAgQIAAAQIECBAgQIAAAQIECBAgQIAAAQIEEgpIvwmXZmQCFwSk3wt4vkqAAAECBAgQIECAAAECBAgQIECAAAECBAgQiCsg/cbdjckIzBCQfmeoOpMAAQIECBAgQIAAAQIECBAgQIAAAQIECBAgsF1A+t2+AgMQWCog/S7l9jACBAgQIECAAAECBAgQIECAAAECBAgQIECAwCoB6XeVtOcQiCEg/cbYgykIECBAgAABAgQIECBAgAABAgQIECBAgAABAoMFpN/BoI4jEFxA+g2+IOMRIECAAAECBAgQIECAAAECBAgQIECAAAECBH4TkH5/c/MtAlkFpN+smzM3AQIECBAgQIAAAQIECBAgQIAAAQIECBAgQOCjgPT7kcebBMoJSL/lVupCBAgQIECAAAECBAgQIECAAAECBAgQIECAAIGbgPTrd0Cgl4D022vfbkuAAAECBAgQIECAAAECBAgQIECAAAECBAi0EZB+26zaRQn8C0i/fggECBAgQIAAAQIECBAgQIAAAQIECBAgQIAAgZIC0m/JtboUgbcC0u9bGm8QIECAAAECBAgQIECAAAECBAgQIECAAAECBDILSL+Zt2d2AucFpN/zZr5BgAABAgQIECBAgAABAgQIECBAgAABAgQIEEggIP0mWJIRCQwUkH4HYjqKAAECBAgQIECAAAECBAgQIECAAAECBAgQIBBHQPqNswuTEFghIP2uUPYMAgQIECBAgAABAgQIECBAgAABAgQIECBAgMBygT/jyuWOQksFIQAAAABJRU5ErkJggg==;" parent="p8KF00mh1tTUKPBj2ykA-5" vertex="1">
          <mxGeometry x="-30" y="-10" width="1258" height="628.02" as="geometry" />
        </mxCell>
        <mxCell id="p8KF00mh1tTUKPBj2ykA-2" value="" style="rounded=0;whiteSpace=wrap;html=1;fontFamily=Architects Daughter;fontSource=https%3A%2F%2Ffonts.googleapis.com%2Fcss%3Ffamily%3DArchitects%2BDaughter;strokeColor=none;" parent="p8KF00mh1tTUKPBj2ykA-5" vertex="1">
          <mxGeometry x="150" y="220" width="120" height="60" as="geometry" />
        </mxCell>
        <mxCell id="p8KF00mh1tTUKPBj2ykA-7" value="" style="shape=stencil(5VnZbhsxDPwavxKSqPM5Tf8jQJzGaBoHaXr9fWdhaG3Ru+MG6IX2zfaKlkjODEntRq8+3t88bTfBfXx53r/fftndvtxv9M0mhN3j/fZ594JPG73e6NXd/nn77nn/6fH28P3pZlo5ffqw/zz9w9eDnY/i3GQV3LfDL67/8Paw/mH3eLI+RIlpWK+SdX29Bql5WJ9F6/r6GPvjvt47UXKglER1NPCiZd0gN4l+NKiS27pBKaJhMIDPNawb1CZljKm6fshFgxYkjgahiU/EIEpodocUiUEWN6ZBVZonBkWS2aGJY0eqUkcfYqJhbU3yGNakEklYvXMWq9lL4Vu0cYtyIRHNoq9UHtfaj9wNapLGdijixrgi+Y75kCSOmUMuMzuS9sezQeNOI4ijDyeRXgY4GGacUFFyJnAujSQFRwIhaSo97LNBoToTaz/AiQHDhhZpY1xrlUJ2ACXtDjOClw0QpVFomuscWQZ4kFZGA/A8EwMv3qQ6SSEkrVaMgSUGjWwpigNFkrZo0wyPWZqDFBNS7SFYdtimoIBtBHfOSn2GRyQ+ZwKTONecjX/MEgnokP8xPpopSCENpvJU8QRBZ9THjkyNoNCjv55rNihlinPopW45X/FM7aiw+CLeMKAr+HJ8nA0QHPCEMYioju0LMOtZBuYyeZIyx3Y440CE+DEfYj/xDFK95INBEViQGMuc5DFtKFKRwAJpaIbHqBGkW0Ce67gDCkJhRPZSo92BdW3oh0wBiR2LK0h1JkaxB2GFCWUEXg6d2yvr4+gwClAkypLFj+s1iSP+Fqkj7ABE1jejSzYbICeZpUz7/keqMer73DvS43rPujU8Nm126BV3rVxmQ01H22xExORAgSrGg9hRPyctSiNJg4HpcxIfFaYkjUEt8Io7HUeDGiQxhUQJN4rqKJAgiEbAQE2mFq83+Au7kGhD9Mu7ENpVLHQhBBSLXQj9//MuhGHov+tC1E7L8xXAjzbuXFeabSpACUeKxzR7FGvA+tipuIyUmeSbQAg6ZTCEcsDkGoNxNtcomRZAcMRo44QrcqQ/dclBgPGTLjlIWV6+5GBl+d+95GBh+i2XHAbfly45qkXTlExigCpghxff2+LluoayZOIa6LiDSSKYrrb2PndZaKqt5TgkVSZInxlGGt0BYm/Gncy17yhcMyOghqyz9X18Oi2HbHpxFn3gHKsnZ/0I4syunEsXlXm99g5iZX0YcaHzjfLa7GJGTkc1o3RlP5kV2EVq6YPBidQXotyg/8g1z++xMO+aDNOrZvybEbB5SF+7JjNtvKOXj699xXF5PT4c36fc7R4eDq9jTp/b9y/46fDuRq+/Aw==);lineShape=1;strokeColor=#FFFFFF;fontFamily=Architects Daughter;fontSource=https%3A%2F%2Ffonts.googleapis.com%2Fcss%3Ffamily%3DArchitects%2BDaughter;" parent="1" vertex="1">
          <mxGeometry x="286.63721217450916" y="148.03986968989534" width="152.98261457644685" height="34.35981065876945" as="geometry" />
        </mxCell>
      </root>
    </mxGraphModel>
  </diagram>
</mxfile>
